<svg width="24" height="24" viewBox="0 0 24 24" fill="none" xmlns="http://www.w3.org/2000/svg">
<path d="M16.7505 3.56V2C16.7505 1.59 16.4105 1.25 16.0005 1.25C15.5905 1.25 15.2505 1.59 15.2505 2V3.5H8.75047V2C8.75047 1.59 8.41047 1.25 8.00047 1.25C7.59047 1.25 7.25047 1.59 7.25047 2V3.56C4.55047 3.81 3.24047 5.42 3.04047 7.81C3.02047 8.1 3.26047 8.34 3.54047 8.34H20.4605C20.7505 8.34 20.9905 8.09 20.9605 7.81C20.7605 5.42 19.4505 3.81 16.7505 3.56Z" fill="#2E37A4"/>
<path opacity="0.4" d="M20 9.84375C20.55 9.84375 21 10.2937 21 10.8438V17.0038C21 20.0038 19.5 22.0038 16 22.0038H8C4.5 22.0038 3 20.0038 3 17.0038V10.8438C3 10.2937 3.45 9.84375 4 9.84375H20Z" fill="#2E37A4"/>
<path d="M8.5 14.9989C8.24 14.9989 7.98 14.8889 7.79 14.7089C7.61 14.5189 7.5 14.2589 7.5 13.9989C7.5 13.7389 7.61 13.4789 7.79 13.2889C8.07 13.0089 8.51 12.9189 8.88 13.0789C9.01 13.1289 9.12 13.1989 9.21 13.2889C9.39 13.4789 9.5 13.7389 9.5 13.9989C9.5 14.2589 9.39 14.5189 9.21 14.7089C9.02 14.8889 8.76 14.9989 8.5 14.9989Z" fill="#2E37A4"/>
<path d="M12.0002 14.9989C11.7402 14.9989 11.4802 14.8889 11.2902 14.7089C11.1102 14.5189 11.0002 14.2589 11.0002 13.9989C11.0002 13.7389 11.1102 13.4789 11.2902 13.2889C11.3802 13.1989 11.4902 13.1289 11.6202 13.0789C11.9902 12.9189 12.4302 13.0089 12.7102 13.2889C12.8902 13.4789 13.0002 13.7389 13.0002 13.9989C13.0002 14.2589 12.8902 14.5189 12.7102 14.7089C12.6602 14.7489 12.6102 14.7889 12.5602 14.8289C12.5002 14.8689 12.4402 14.8989 12.3802 14.9189C12.3202 14.9489 12.2602 14.9689 12.2002 14.9789C12.1302 14.9889 12.0702 14.9989 12.0002 14.9989Z" fill="#2E37A4"/>
<path d="M15.4998 15C15.2398 15 14.9798 14.89 14.7898 14.71C14.6098 14.52 14.4998 14.26 14.4998 14C14.4998 13.74 14.6098 13.48 14.7898 13.29C14.8898 13.2 14.9898 13.13 15.1198 13.08C15.2998 13 15.4998 12.98 15.6998 13.02C15.7598 13.03 15.8198 13.05 15.8798 13.08C15.9398 13.1 15.9998 13.13 16.0598 13.17C16.1098 13.21 16.1598 13.25 16.2098 13.29C16.3898 13.48 16.4998 13.74 16.4998 14C16.4998 14.26 16.3898 14.52 16.2098 14.71C16.1598 14.75 16.1098 14.79 16.0598 14.83C15.9998 14.87 15.9398 14.9 15.8798 14.92C15.8198 14.95 15.7598 14.97 15.6998 14.98C15.6298 14.99 15.5598 15 15.4998 15Z" fill="#2E37A4"/>
<path d="M8.5 18.5C8.37 18.5 8.24 18.47 8.12 18.42C7.99 18.37 7.89 18.3 7.79 18.21C7.61 18.02 7.5 17.76 7.5 17.5C7.5 17.24 7.61 16.98 7.79 16.79C7.89 16.7 7.99 16.63 8.12 16.58C8.3 16.5 8.5 16.48 8.7 16.52C8.76 16.53 8.82 16.55 8.88 16.58C8.94 16.6 9 16.63 9.06 16.67C9.11 16.71 9.16 16.75 9.21 16.79C9.39 16.98 9.5 17.24 9.5 17.5C9.5 17.76 9.39 18.02 9.21 18.21C9.16 18.25 9.11 18.3 9.06 18.33C9 18.37 8.94 18.4 8.88 18.42C8.82 18.45 8.76 18.47 8.7 18.48C8.63 18.49 8.57 18.5 8.5 18.5Z" fill="#2E37A4"/>
<path d="M12.0002 18.5031C11.7402 18.5031 11.4802 18.3931 11.2902 18.2131C11.1102 18.0231 11.0002 17.7631 11.0002 17.5031C11.0002 17.2431 11.1102 16.9831 11.2902 16.7931C11.6602 16.4231 12.3402 16.4231 12.7102 16.7931C12.8902 16.9831 13.0002 17.2431 13.0002 17.5031C13.0002 17.7631 12.8902 18.0231 12.7102 18.2131C12.5202 18.3931 12.2602 18.5031 12.0002 18.5031Z" fill="#2E37A4"/>
<path d="M15.4998 18.5031C15.2398 18.5031 14.9798 18.3931 14.7898 18.2131C14.6098 18.0231 14.4998 17.7631 14.4998 17.5031C14.4998 17.2431 14.6098 16.9831 14.7898 16.7931C15.1598 16.4231 15.8398 16.4231 16.2098 16.7931C16.3898 16.9831 16.4998 17.2431 16.4998 17.5031C16.4998 17.7631 16.3898 18.0231 16.2098 18.2131C16.0198 18.3931 15.7598 18.5031 15.4998 18.5031Z" fill="#2E37A4"/>
</svg>
