<svg width="25" height="25" viewBox="0 0 25 25" fill="none" xmlns="http://www.w3.org/2000/svg">
<path d="M19.8562 6.25228L21.1479 4.96061C21.45 4.65853 21.45 4.15853 21.1479 3.85645C20.8458 3.55436 20.3458 3.55436 20.0437 3.85645L18.752 5.14811L17.4604 3.85645C17.1583 3.55436 16.6583 3.55436 16.3562 3.85645C16.0541 4.15853 16.0541 4.65853 16.3562 4.96061L17.6479 6.25228L16.3562 7.54394C16.0541 7.84603 16.0541 8.34603 16.3562 8.64811C16.5125 8.80436 16.7104 8.87728 16.9083 8.87728C17.1062 8.87728 17.3041 8.80436 17.4604 8.64811L18.752 7.35645L20.0437 8.64811C20.2 8.80436 20.3979 8.87728 20.5958 8.87728C20.7937 8.87728 20.9916 8.80436 21.1479 8.64811C21.45 8.34603 21.45 7.84603 21.1479 7.54394L19.8562 6.25228Z" fill="white"/>
<path opacity="0.4" d="M12.2812 14.8018L8.87492 18.208C8.49992 17.8747 8.13534 17.5309 7.78117 17.1768C6.70825 16.0934 5.7395 14.958 4.87492 13.7705C4.02075 12.583 3.33325 11.3955 2.83325 10.2184C2.33325 9.03093 2.08325 7.89551 2.08325 6.81217C2.08325 6.10384 2.20825 5.42676 2.45825 4.80176C2.70825 4.16634 3.10409 3.58301 3.65617 3.06217C4.32284 2.40592 5.052 2.08301 5.82284 2.08301C6.1145 2.08301 6.40617 2.14551 6.66659 2.27051C6.93742 2.39551 7.177 2.58301 7.3645 2.85384L9.78117 6.26009C9.96867 6.52051 10.1041 6.76009 10.1978 6.98926C10.2916 7.20801 10.3437 7.42676 10.3437 7.62468C10.3437 7.87468 10.2708 8.12467 10.1249 8.36426C9.9895 8.60384 9.79159 8.85384 9.54159 9.10384L8.74992 9.92676C8.63534 10.0413 8.58325 10.1768 8.58325 10.3434C8.58325 10.4268 8.59367 10.4997 8.6145 10.583C8.64575 10.6663 8.677 10.7288 8.69784 10.7913C8.88534 11.1351 9.20825 11.583 9.66659 12.1247C10.1353 12.6663 10.6353 13.2184 11.177 13.7705C11.552 14.1351 11.9166 14.4893 12.2812 14.8018Z" fill="white"/>
<path d="M22.8871 19.0928C22.8871 19.3844 22.835 19.6865 22.7309 19.9782C22.6996 20.0615 22.6684 20.1449 22.6267 20.2282C22.4496 20.6032 22.2205 20.9574 21.9184 21.2907C21.408 21.8532 20.8455 22.2594 20.21 22.5199C20.1996 22.5199 20.1892 22.5303 20.1788 22.5303C19.5642 22.7803 18.8975 22.9157 18.1788 22.9157C17.1163 22.9157 15.9809 22.6657 14.783 22.1553C13.585 21.6449 12.3871 20.9574 11.1996 20.0928C10.7934 19.7907 10.3871 19.4886 10.0017 19.1657L13.408 15.7594C13.6996 15.9782 13.96 16.1449 14.1788 16.2594C14.2309 16.2803 14.2934 16.3115 14.3663 16.3428C14.4496 16.374 14.533 16.3844 14.6267 16.3844C14.8038 16.3844 14.9392 16.3219 15.0538 16.2074L15.8455 15.4261C16.1059 15.1657 16.3559 14.9678 16.5955 14.8428C16.835 14.6969 17.0746 14.624 17.335 14.624C17.533 14.624 17.7413 14.6657 17.9705 14.7594C18.1996 14.8532 18.4392 14.9886 18.6996 15.1657L22.1475 17.6136C22.4184 17.8011 22.6059 18.0199 22.7205 18.2803C22.8246 18.5407 22.8871 18.8011 22.8871 19.0928Z" fill="white"/>
</svg>
