<svg width="21" height="20" viewBox="0 0 21 20" fill="none" xmlns="http://www.w3.org/2000/svg">
<path d="M16.7793 7.95801C16.4376 7.95801 16.1543 7.67467 16.1543 7.33301V3.95801H12.7793C12.4376 3.95801 12.1543 3.67467 12.1543 3.33301C12.1543 2.99134 12.4376 2.70801 12.7793 2.70801H16.7793C17.121 2.70801 17.4043 2.99134 17.4043 3.33301V7.33301C17.4043 7.67467 17.121 7.95801 16.7793 7.95801Z" fill="#FE3F51"/>
<path opacity="0.4" d="M9.93836 11.842L7.21336 14.567C6.91336 14.3003 6.6217 14.0253 6.33836 13.742C5.48003 12.8753 4.70503 11.967 4.01336 11.017C3.33003 10.067 2.78003 9.11699 2.38003 8.17533C1.98003 7.22533 1.78003 6.31699 1.78003 5.45033C1.78003 4.88366 1.88003 4.34199 2.08003 3.84199C2.28003 3.33366 2.5967 2.86699 3.03836 2.45033C3.5717 1.92533 4.15503 1.66699 4.7717 1.66699C5.00503 1.66699 5.23836 1.71699 5.4467 1.81699C5.66336 1.91699 5.85503 2.06699 6.00503 2.28366L7.93836 5.00866C8.08836 5.21699 8.1967 5.40866 8.2717 5.59199C8.3467 5.76699 8.38836 5.94199 8.38836 6.10033C8.38836 6.30033 8.33003 6.50033 8.21336 6.69199C8.10503 6.88366 7.9467 7.08366 7.7467 7.28366L7.11336 7.94199C7.0217 8.03366 6.98003 8.14199 6.98003 8.27533C6.98003 8.34199 6.98836 8.40033 7.00503 8.46699C7.03003 8.53366 7.05503 8.58366 7.0717 8.63366C7.2217 8.90866 7.48003 9.26699 7.8467 9.70033C8.2217 10.1337 8.6217 10.5753 9.05503 11.017C9.35503 11.3087 9.6467 11.592 9.93836 11.842Z" fill="#FE3F51"/>
<path d="M18.4228 15.2742C18.4228 15.5076 18.3812 15.7492 18.2978 15.9826C18.2728 16.0492 18.2478 16.1159 18.2145 16.1826C18.0728 16.4826 17.8895 16.7659 17.6478 17.0326C17.2395 17.4826 16.7895 17.8076 16.2812 18.0159C16.2728 18.0159 16.2645 18.0242 16.2562 18.0242C15.7645 18.2242 15.2312 18.3326 14.6562 18.3326C13.8062 18.3326 12.8978 18.1326 11.9395 17.7242C10.9812 17.3159 10.0228 16.7659 9.07283 16.0742C8.74783 15.8326 8.42284 15.5909 8.1145 15.3326L10.8395 12.6076C11.0728 12.7826 11.2812 12.9159 11.4562 13.0076C11.4978 13.0242 11.5478 13.0492 11.6062 13.0742C11.6728 13.0992 11.7395 13.1076 11.8145 13.1076C11.9562 13.1076 12.0645 13.0576 12.1562 12.9659L12.7895 12.3409C12.9978 12.1326 13.1978 11.9742 13.3895 11.8742C13.5812 11.7576 13.7728 11.6992 13.9812 11.6992C14.1395 11.6992 14.3062 11.7326 14.4895 11.8076C14.6728 11.8826 14.8645 11.9909 15.0728 12.1326L17.8312 14.0909C18.0478 14.2409 18.1978 14.4159 18.2895 14.6242C18.3728 14.8326 18.4228 15.0409 18.4228 15.2742Z" fill="#FE3F51"/>
</svg>
