<svg width="20" height="20" viewBox="0 0 20 20" fill="none" xmlns="http://www.w3.org/2000/svg">
<path opacity="0.4" d="M17.0712 2.92875C13.1667 -0.97625 6.83316 -0.97625 2.92859 2.92875C-0.975984 6.83332 -0.976409 13.1668 2.92859 17.0714C6.83316 20.976 13.1667 20.9764 17.0712 17.0714C20.9758 13.1668 20.9762 6.83545 17.0712 2.92875ZM13.5292 5.9408C14.324 5.9408 14.9679 6.58469 14.9679 7.37946C14.9679 8.17466 14.324 8.81812 13.5292 8.81812C12.7344 8.81812 12.0905 8.17466 12.0905 7.37946C12.0905 6.58469 12.7344 5.9408 13.5292 5.9408ZM6.46808 5.85027C7.26285 5.85027 7.90674 6.49416 7.90674 7.28894C7.90674 8.08371 7.26285 8.7276 6.46808 8.7276C5.67331 8.7276 5.02942 8.08371 5.02942 7.28894C5.02687 6.49416 5.67331 5.85027 6.46808 5.85027ZM15.089 12.6976C14.6266 13.5829 13.9223 14.336 13.0855 14.8775C11.8003 15.7075 10.1916 15.9609 8.70406 15.6285C7.09327 15.266 5.67076 14.1597 4.90872 12.6976C4.72724 12.3512 4.82966 11.956 5.15947 11.7422C5.46633 11.5446 5.94532 11.6678 6.1149 11.9934C6.18927 12.1375 6.27045 12.2769 6.35673 12.4116C6.4005 12.4813 6.44725 12.5463 6.49358 12.6139C6.51441 12.6441 6.54501 12.6742 6.56328 12.707C6.75156 12.939 6.95854 13.1532 7.1838 13.3483C7.23523 13.3925 7.28623 13.4342 7.33723 13.4762C7.32575 13.469 7.31428 13.4597 7.30493 13.4507C7.2977 13.4461 7.29558 13.4435 7.29345 13.4435C7.29728 13.4478 7.35933 13.4954 7.3725 13.5047C7.37123 13.503 7.36868 13.5005 7.36485 13.4975C7.37165 13.5022 7.37888 13.5068 7.3861 13.5111C7.48853 13.5855 7.59521 13.6573 7.70231 13.7249C7.89527 13.8435 8.09502 13.948 8.302 14.0411C8.66241 14.1852 9.0343 14.2872 9.41765 14.3454C9.80569 14.3896 10.1963 14.3896 10.5843 14.3454C10.9655 14.285 11.34 14.1852 11.7 14.0411C11.9069 13.9501 12.1067 13.8435 12.2997 13.7249C12.4136 13.6552 12.5228 13.5808 12.6299 13.5017C12.6367 13.4971 12.6439 13.4924 12.6507 13.4877C12.6414 13.4945 12.632 13.5017 12.6227 13.5111C12.6333 13.5039 12.6426 13.4954 12.6528 13.4877C12.6537 13.4873 12.6541 13.4864 12.655 13.486C12.655 13.486 12.6554 13.486 12.6554 13.4856C12.6622 13.4792 12.6703 13.4733 12.6762 13.469C12.7251 13.4295 12.7714 13.39 12.8182 13.3504C13.046 13.1532 13.2551 12.9369 13.4434 12.7023C13.4548 12.6883 13.4663 12.6721 13.4782 12.6581C13.4786 12.6572 13.4795 12.6564 13.4803 12.6555C13.4816 12.6538 13.4825 12.6521 13.4837 12.6509C13.4918 12.6381 13.4999 12.6241 13.5084 12.6139C13.5547 12.5489 13.6015 12.4813 13.6457 12.4116C13.7336 12.2769 13.8127 12.1375 13.8871 11.9934C14.0685 11.647 14.5216 11.5726 14.8425 11.7422C15.1817 11.9258 15.256 12.3746 15.089 12.6976Z" fill="#35446F"/>
<path d="M15.0891 12.697C14.6266 13.5823 13.9224 14.3354 13.0856 14.8769C11.8003 15.7069 10.1917 15.9602 8.70411 15.6279C7.09332 15.2653 5.67081 14.159 4.90877 12.697C4.72729 12.3506 4.82972 11.9554 5.15952 11.7416C5.46638 11.5439 5.94537 11.6672 6.11495 11.9928C6.18933 12.1368 6.2705 12.2762 6.35678 12.411C6.40056 12.4807 6.44731 12.5457 6.49363 12.6133C6.51446 12.6434 6.54506 12.6736 6.56333 12.7063C6.75161 12.9384 6.9586 13.1526 7.18385 13.3477C7.23528 13.3919 7.28628 13.4335 7.33728 13.4756C7.3258 13.4684 7.31433 13.459 7.30498 13.4501C7.29775 13.4454 7.29563 13.4429 7.2935 13.4429C7.29733 13.4471 7.35938 13.4947 7.37256 13.5041C7.37128 13.5024 7.36873 13.4998 7.36491 13.4969C7.37171 13.5015 7.37893 13.5062 7.38616 13.5105C7.48858 13.5848 7.59526 13.6567 7.70236 13.7242C7.89532 13.8428 8.09507 13.9474 8.30205 14.0405C8.66246 14.1845 9.03435 14.2865 9.41771 14.3448C9.80574 14.389 10.1963 14.389 10.5844 14.3448C10.9656 14.2844 11.34 14.1845 11.7 14.0405C11.907 13.9495 12.1068 13.8428 12.2997 13.7242C12.4136 13.6545 12.5228 13.5802 12.6299 13.5011C12.6367 13.4964 12.644 13.4918 12.6508 13.4871C12.6414 13.4939 12.6321 13.5011 12.6227 13.5105C12.6333 13.5032 12.6427 13.4947 12.6529 13.4871C12.6537 13.4867 12.6542 13.4858 12.655 13.4854C12.655 13.4854 12.6554 13.4854 12.6554 13.485C12.6622 13.4786 12.6703 13.4726 12.6763 13.4684C12.7251 13.4289 12.7715 13.3893 12.8182 13.3498C13.046 13.1526 13.2551 12.9363 13.4434 12.7017C13.4549 12.6876 13.4664 12.6715 13.4783 12.6575C13.4787 12.6566 13.4795 12.6558 13.4804 12.6549C13.4817 12.6532 13.4825 12.6515 13.4838 12.6502C13.4919 12.6375 13.4999 12.6235 13.5084 12.6133C13.5548 12.5482 13.6015 12.4807 13.6457 12.411C13.7337 12.2762 13.8127 12.1368 13.8871 11.9928C14.0686 11.6464 14.5217 11.572 14.8425 11.7416C15.1817 11.9252 15.2561 12.374 15.0891 12.697Z" fill="#35446F"/>
<path d="M14.5465 8.39716C15.1083 7.83533 15.1083 6.92443 14.5465 6.36261C13.9846 5.80078 13.0737 5.80078 12.5119 6.36261C11.9501 6.92443 11.9501 7.83533 12.5119 8.39716C13.0737 8.95899 13.9846 8.95899 14.5465 8.39716Z" fill="#35446F"/>
<path d="M7.90663 7.28925C7.90663 8.08402 7.26274 8.72791 6.46797 8.72791C5.6732 8.72791 5.0293 8.08402 5.0293 7.28925C5.02675 6.49448 5.6732 5.85059 6.46797 5.85059C7.26274 5.85059 7.90663 6.49448 7.90663 7.28925Z" fill="#35446F"/>
</svg>
