<svg width="20" height="20" viewBox="0 0 20 20" fill="none" xmlns="http://www.w3.org/2000/svg">
<path opacity="0.4" d="M15.9334 7.60013C15.6084 7.60013 15.3501 7.85846 15.3501 8.18346V9.50013C15.3501 12.4501 12.9501 14.8501 10.0001 14.8501C7.05007 14.8501 4.65007 12.4501 4.65007 9.50013V8.17513C4.65007 7.85013 4.39173 7.5918 4.06673 7.5918C3.74173 7.5918 3.4834 7.85013 3.4834 8.17513V9.4918C3.4834 12.8835 6.09173 15.6751 9.41673 15.9751V17.7501C9.41673 18.0751 9.67507 18.3335 10.0001 18.3335C10.3251 18.3335 10.5834 18.0751 10.5834 17.7501V15.9751C13.9001 15.6835 16.5167 12.8835 16.5167 9.4918V8.17513C16.5084 7.85846 16.2501 7.60013 15.9334 7.60013Z" fill="#35446F"/>
<path d="M9.99998 1.66699C7.96665 1.66699 6.31665 3.31699 6.31665 5.35033V9.61699C6.31665 11.6503 7.96665 13.3003 9.99998 13.3003C12.0333 13.3003 13.6833 11.6503 13.6833 9.61699V5.35033C13.6833 3.31699 12.0333 1.66699 9.99998 1.66699ZM11.0917 7.45866C11.0333 7.67533 10.8417 7.81699 10.625 7.81699C10.5833 7.81699 10.5417 7.80866 10.5 7.80032C10.175 7.70866 9.83332 7.70866 9.50832 7.80032C9.24165 7.87533 8.98332 7.71699 8.91665 7.45866C8.84165 7.20033 8.99998 6.93366 9.25832 6.86699C9.74998 6.73366 10.2667 6.73366 10.7583 6.86699C11.0083 6.93366 11.1583 7.20033 11.0917 7.45866ZM11.5333 5.84199C11.4583 6.04199 11.275 6.15866 11.075 6.15866C11.0167 6.15866 10.9667 6.15033 10.9083 6.13366C10.325 5.91699 9.67498 5.91699 9.09165 6.13366C8.84165 6.22533 8.55832 6.09199 8.46665 5.84199C8.37498 5.59199 8.50832 5.30866 8.75832 5.22533C9.55832 4.93366 10.4417 4.93366 11.2417 5.22533C11.4917 5.31699 11.625 5.59199 11.5333 5.84199Z" fill="#35446F"/>
</svg>
