<svg width="20" height="20" viewBox="0 0 20 20" fill="none" xmlns="http://www.w3.org/2000/svg">
<path opacity="0.4" d="M14.19 0H5.81C2.17 0 0 2.17 0 5.81V14.18C0 17.83 2.17 20 5.81 20H14.18C17.82 20 19.99 17.83 19.99 14.19V5.81C20 2.17 17.83 0 14.19 0Z" fill="#00D3C7"/>
<path d="M7.1001 9.9995V8.5195C7.1001 6.6095 8.4501 5.8395 10.1001 6.7895L11.3801 7.5295L12.6601 8.2695C14.3101 9.2195 14.3101 10.7795 12.6601 11.7295L11.3801 12.4695L10.1001 13.2095C8.4501 14.1595 7.1001 13.3795 7.1001 11.4795V9.9995Z" fill="#00D3C7"/>
</svg>
