<svg width="21" height="20" viewBox="0 0 21 20" fill="none" xmlns="http://www.w3.org/2000/svg">
<path opacity="0.4" d="M10.9466 2.70801H5.94661C3.09661 2.70801 1.98828 3.81634 1.98828 6.66634V13.333C1.98828 15.2497 3.02995 17.2913 5.94661 17.2913H10.9466C13.7966 17.2913 14.9049 16.183 14.9049 13.333V6.66634C14.9049 3.81634 13.7966 2.70801 10.9466 2.70801Z" fill="#234CE3"/>
<path d="M9.69655 9.48294C10.5618 9.48294 11.2632 8.78152 11.2632 7.91628C11.2632 7.05103 10.5618 6.34961 9.69655 6.34961C8.8313 6.34961 8.12988 7.05103 8.12988 7.91628C8.12988 8.78152 8.8313 9.48294 9.69655 9.48294Z" fill="#234CE3"/>
<path d="M18.1549 5.14168C17.8132 4.96668 17.0965 4.76668 16.1215 5.45001L14.8882 6.31668C14.8965 6.43334 14.9049 6.54168 14.9049 6.66668V13.3333C14.9049 13.4583 14.8882 13.5667 14.8882 13.6833L16.1215 14.55C16.6382 14.9167 17.0882 15.0333 17.4465 15.0333C17.7549 15.0333 17.9965 14.95 18.1549 14.8667C18.4965 14.6917 19.0715 14.2167 19.0715 13.025V6.98334C19.0715 5.79168 18.4965 5.31668 18.1549 5.14168Z" fill="#234CE3"/>
</svg>
