<svg width="21" height="20" viewBox="0 0 21 20" fill="none" xmlns="http://www.w3.org/2000/svg">
<path d="M14.7967 8.95866C14.4384 8.95866 14.155 8.66699 14.155 8.31699C14.155 8.00866 13.8467 7.36699 13.33 6.80866C12.8217 6.26699 12.2634 5.95033 11.7967 5.95033C11.4384 5.95033 11.155 5.65866 11.155 5.30866C11.155 4.95866 11.4467 4.66699 11.7967 4.66699C12.63 4.66699 13.505 5.11699 14.2717 5.92533C14.9884 6.68366 15.4467 7.62533 15.4467 8.30866C15.4467 8.66699 15.155 8.95866 14.7967 8.95866Z" fill="#234CE3"/>
<path d="M17.805 8.95866C17.4467 8.95866 17.1633 8.66699 17.1633 8.31699C17.1633 5.35866 14.755 2.95866 11.805 2.95866C11.4467 2.95866 11.1633 2.66699 11.1633 2.31699C11.1633 1.96699 11.4467 1.66699 11.7967 1.66699C15.4633 1.66699 18.4467 4.65033 18.4467 8.31699C18.4467 8.66699 18.155 8.95866 17.805 8.95866Z" fill="#234CE3"/>
<path opacity="0.4" d="M9.93836 11.842L7.21336 14.567C6.91336 14.3003 6.6217 14.0253 6.33836 13.742C5.48003 12.8753 4.70503 11.967 4.01336 11.017C3.33003 10.067 2.78003 9.11699 2.38003 8.17533C1.98003 7.22533 1.78003 6.31699 1.78003 5.45033C1.78003 4.88366 1.88003 4.34199 2.08003 3.84199C2.28003 3.33366 2.5967 2.86699 3.03836 2.45033C3.5717 1.92533 4.15503 1.66699 4.7717 1.66699C5.00503 1.66699 5.23836 1.71699 5.4467 1.81699C5.66336 1.91699 5.85503 2.06699 6.00503 2.28366L7.93836 5.00866C8.08836 5.21699 8.1967 5.40866 8.2717 5.59199C8.3467 5.76699 8.38836 5.94199 8.38836 6.10033C8.38836 6.30033 8.33003 6.50033 8.21336 6.69199C8.10503 6.88366 7.9467 7.08366 7.7467 7.28366L7.11336 7.94199C7.0217 8.03366 6.98003 8.14199 6.98003 8.27533C6.98003 8.34199 6.98836 8.40033 7.00503 8.46699C7.03003 8.53366 7.05503 8.58366 7.0717 8.63366C7.2217 8.90866 7.48003 9.26699 7.8467 9.70033C8.2217 10.1337 8.6217 10.5753 9.05503 11.017C9.35503 11.3087 9.6467 11.592 9.93836 11.842Z" fill="#234CE3"/>
<path d="M18.4216 15.2752C18.4216 15.5085 18.3799 15.7502 18.2966 15.9835C18.2716 16.0502 18.2466 16.1169 18.2133 16.1835C18.0716 16.4835 17.8883 16.7669 17.6466 17.0335C17.2383 17.4835 16.7883 17.8085 16.2799 18.0169C16.2716 18.0169 16.2633 18.0252 16.2549 18.0252C15.7633 18.2252 15.2299 18.3335 14.6549 18.3335C13.8049 18.3335 12.8966 18.1335 11.9383 17.7252C10.9799 17.3169 10.0216 16.7669 9.07161 16.0752C8.74661 15.8335 8.42161 15.5919 8.11328 15.3335L10.8383 12.6085C11.0716 12.7835 11.2799 12.9169 11.4549 13.0085C11.4966 13.0252 11.5466 13.0502 11.6049 13.0752C11.6716 13.1002 11.7383 13.1085 11.8133 13.1085C11.9549 13.1085 12.0633 13.0585 12.1549 12.9669L12.7883 12.3419C12.9966 12.1335 13.1966 11.9752 13.3883 11.8752C13.5799 11.7585 13.7716 11.7002 13.9799 11.7002C14.1383 11.7002 14.3049 11.7335 14.4883 11.8085C14.6716 11.8835 14.8633 11.9919 15.0716 12.1335L17.8299 14.0919C18.0466 14.2419 18.1966 14.4169 18.2883 14.6252C18.3716 14.8335 18.4216 15.0419 18.4216 15.2752Z" fill="#234CE3"/>
</svg>
