<svg width="19" height="27" viewBox="0 0 19 27" fill="none" xmlns="http://www.w3.org/2000/svg">
<path d="M9.2809 0.861795L9.26396 0.849531L9.72793 0.85C12.0815 0.852378 14.3379 1.78847 16.0024 3.45247L16.0024 3.45249C17.6667 5.11674 18.603 7.37282 18.6056 9.7266L9.2809 0.861795ZM9.2809 0.861795C7.08992 0.974447 5.01196 1.89435 3.45322 3.45302L3.45322 3.45302C1.78894 5.1173 0.85265 7.37395 0.85 9.7275V9.72767C0.85 10.1333 1.17886 10.4621 1.58445 10.4621C1.99004 10.4621 2.3189 10.1333 2.3189 9.72767C2.3189 7.08077 3.73106 4.63492 6.02325 3.31147L6.02326 3.31147C8.31571 1.98775 11.14 1.98775 13.4323 3.31146L13.4323 3.31147C15.7245 4.63492 17.1367 7.08077 17.1367 9.72767C17.1367 10.242 16.9804 10.9167 16.7244 11.673C16.4694 12.4264 16.1198 13.2486 15.7421 14.0537C14.9868 15.6638 14.1245 17.1954 13.6965 17.9552L13.8272 18.0289L13.6965 17.9552C13.4139 18.4571 13.2525 19.1475 13.0737 19.9119L13.0667 19.9419L13.0667 19.942C12.8097 21.0457 12.5239 22.2534 11.882 23.1858C11.1885 24.1923 10.1631 24.6808 8.71512 24.6808H8.71225C6.75038 24.6808 5.22744 23.2175 5.22744 21.3534L5.22744 21.3527C5.22547 20.9471 4.89532 20.6199 4.48965 20.6218C4.08413 20.6238 3.75693 20.9535 3.75854 21.3589M9.2809 0.861795L18.6056 9.72687M3.75854 21.3589C3.75854 21.3587 3.75854 21.3585 3.75854 21.3583L3.90854 21.3589L3.75854 21.3596C3.75854 21.3594 3.75854 21.3592 3.75854 21.3589ZM3.75854 21.3589C3.75386 22.6533 4.28484 23.8922 5.22599 24.7811L5.32899 24.672M5.32899 24.672L5.226 24.7811C6.16774 25.6704 7.41676 26.1609 8.71189 26.1498M5.32899 24.672C6.24273 25.5349 7.45465 26.0108 8.71125 25.9998M5.32899 24.672L8.71125 25.9998M8.71189 26.1498H8.71516C10.6311 26.1498 12.1122 25.4413 13.0916 24.0187M8.71189 26.1498H8.71125V25.9998M8.71189 26.1498C8.71211 26.1498 8.71233 26.1498 8.71255 26.1498L8.71125 25.9998M13.0916 24.0187C13.8955 22.8514 14.2315 21.411 14.4961 20.2767L14.4973 20.2718L14.4973 20.2718C14.5753 19.9369 14.6503 19.6162 14.7295 19.3369C14.8092 19.0555 14.89 18.8276 14.9766 18.6738C15.8173 17.1804 16.7227 15.5027 17.4181 13.9233C18.1111 12.3498 18.6056 10.8526 18.6056 9.72687M13.0916 24.0187C13.0916 24.0187 13.0916 24.0187 13.0916 24.0187L12.9681 23.9336M13.0916 24.0187L12.9681 23.9336M18.6056 9.72687L18.4556 9.72695C18.4554 11.9105 16.5261 15.6155 14.8459 18.6002C14.6544 18.9405 14.507 19.5695 14.3512 20.2377C14.0853 21.3774 13.7544 22.7918 12.9681 23.9336M18.6056 9.72687L8.71125 25.9998M12.9681 23.9336C12.0207 25.3097 10.5893 25.9998 8.71516 25.9998H8.71125" fill="#2E37A4" stroke="#2E37A4" stroke-width="0.3"/>
<path d="M8.48452 17.1327C8.48504 17.1428 8.48556 17.1533 8.48556 17.1637V18.4545C8.48556 18.7775 8.22386 19.0389 7.90111 19.0389C7.57836 19.0389 7.31666 18.7775 7.31666 18.4545V17.1786C7.17051 14.6151 10.8252 12.712 10.8617 12.6963L8.48452 17.1327ZM8.48452 17.1327C8.40285 15.5967 10.8273 14.0267 11.334 13.7658L8.48452 17.1327ZM7.16666 17.1828C7.09163 15.8298 8.01547 14.673 8.92115 13.8698C9.37862 13.4641 9.84108 13.14 10.1911 12.9164C10.5375 12.6951 10.7815 12.5675 10.8026 12.5585L10.8029 12.5583C11.3779 12.3133 11.8528 11.881 12.1502 11.3316C12.4478 10.7821 12.5507 10.1483 12.4418 9.53305L12.4416 9.53201C12.259 8.45628 11.388 7.54877 10.3285 7.3277L10.3274 7.32746C9.50483 7.14921 8.64575 7.35293 7.99039 7.88123C7.34501 8.40346 6.97074 9.1899 6.97222 10.0201L6.97222 10.0204C6.97222 10.426 6.64336 10.7548 6.23777 10.7548C5.83218 10.7548 5.50332 10.426 5.50332 10.0204C5.50332 8.99832 5.87397 8.01092 6.54619 7.24106L6.65918 7.33972L6.54619 7.24106C7.21843 6.47118 8.14711 5.97126 9.15965 5.83383L7.16666 17.1828ZM7.16666 17.1828V18.4545C7.16666 18.8604 7.49556 19.1889 7.90111 19.1889C8.30666 19.1889 8.63556 18.8604 8.63556 18.4545V17.1637C8.63556 17.1489 8.63482 17.1347 8.63432 17.125L8.63431 17.1247C8.61606 16.7815 8.73754 16.4256 8.95214 16.0733C9.16636 15.7217 9.46729 15.3837 9.79111 15.0806C10.4364 14.4766 11.1536 14.0282 11.3989 13.9011C12.3357 13.4978 13.095 12.7693 13.5367 11.8501C13.9793 10.9291 14.0731 9.87858 13.8004 8.89338L13.8004 8.89337C13.5278 7.9084 12.9074 7.05576 12.0542 6.49309L12.0542 6.49308C11.2008 5.93041 10.1725 5.69612 9.15969 5.83382L7.16666 17.1828ZM6.82222 10.0204C6.82066 9.14477 7.21542 8.31532 7.89614 7.76453L6.82222 10.0204Z" fill="#00D3C7" stroke="#00D3C7" stroke-width="0.3"/>
</svg>
