<svg width="23" height="25" viewBox="0 0 23 25" fill="none" xmlns="http://www.w3.org/2000/svg">
<path d="M6.77018 24.0923L6.76979 24.0922C4.95581 23.8996 4.01402 22.5001 3.50983 20.7266C3.0064 18.9558 2.9272 16.7756 2.8608 14.9478L2.86051 14.9396L2.86051 14.9396L2.85893 14.8962C2.84912 14.6267 2.83963 14.366 2.829 14.1167C2.77807 12.9297 2.36169 11.973 1.91153 10.9415L1.90888 10.9355C1.41694 9.80873 0.9 8.62476 0.9 7.11337C0.9 3.68745 3.68723 0.9 7.11337 0.9C8.31106 0.9 9.15656 1.29854 9.88788 1.64326L9.89256 1.64547L9.89258 1.64548C10.5595 1.95998 11.1162 2.22142 11.892 2.22158L6.77018 24.0923ZM6.77018 24.0923C6.8212 24.0975 6.87157 24.1 6.92106 24.1C7.63459 24.0998 8.11397 23.6208 8.48103 22.9189C8.84682 22.2194 9.11775 21.268 9.40416 20.2623L9.40631 20.2547C9.68391 19.2798 9.9926 18.197 10.3985 17.3525C10.6013 16.9305 10.8255 16.5743 11.0772 16.3223C11.3271 16.0722 11.5993 15.929 11.9027 15.9186C12.2003 15.9289 12.4683 16.0716 12.7152 16.3218C12.964 16.5738 13.1862 16.93 13.3876 17.3521C13.7908 18.1967 14.0994 19.2796 14.377 20.2545L14.3797 20.2641C14.666 21.2693 14.9368 22.2201 15.3023 22.9191C15.6693 23.6211 16.1487 24.1 16.8625 24.1H16.8625H16.8629C16.9122 24.1 16.9626 24.0975 17.0136 24.0923L17.014 24.0922M6.77018 24.0923L17.014 24.0922M17.014 24.0922C18.8279 23.8996 19.7697 22.5001 20.274 20.7266C20.7777 18.9549 20.8568 16.7735 20.9231 14.9453L20.9233 14.9396L20.9246 14.9031C20.9345 14.631 20.944 14.3681 20.9548 14.1167C21.0057 12.9298 21.4223 11.9735 21.8722 10.9416C21.8722 10.9415 21.8722 10.9415 21.8723 10.9415L21.874 10.9374C22.3663 9.81046 22.8838 8.62563 22.8838 7.11337C22.8838 3.68723 20.0967 0.9 16.6704 0.9C15.4718 0.9 14.6252 1.29926 13.8939 1.64422L13.8912 1.64545M17.014 24.0922L13.8912 1.64545M4.24139 14.0565C4.17945 12.6039 3.68274 11.4659 3.20967 10.3822L3.2073 10.3767L3.20729 10.3767C2.7424 9.31244 2.31386 8.32734 2.31386 7.11374C2.31386 4.46714 4.46711 2.31389 7.11372 2.31389C7.99299 2.31389 8.61378 2.6053 9.29004 2.92428L9.29346 2.9259C10.0236 3.27044 10.7966 3.63526 11.8923 3.63547H11.8924C12.9881 3.63503 13.7616 3.27013 14.4922 2.92544L14.4946 2.92429C14.4946 2.92429 14.4946 2.92428 14.4946 2.92428C15.1708 2.60551 15.7913 2.31389 16.6705 2.31389C19.3171 2.31389 21.4706 4.46714 21.4706 7.11374C21.4706 8.32713 21.0419 9.31249 20.5772 10.3767L20.5772 10.3767L20.5743 10.3833C20.1016 11.4667 19.6052 12.6043 19.5431 14.0564C19.5319 14.3118 19.5223 14.5789 19.5123 14.8542L19.5111 14.8885C19.5111 14.8885 19.5111 14.8885 19.5111 14.8885C19.4525 16.5019 19.3832 18.3997 19.0239 19.9265C18.8443 20.6898 18.5941 21.3518 18.2426 21.8371C17.8936 22.319 17.4469 22.6243 16.867 22.6863L16.8604 22.6868C16.8488 22.6859 16.8216 22.6771 16.7779 22.6333C16.7333 22.5888 16.6836 22.5198 16.6302 22.4272C16.5237 22.2425 16.4127 21.9821 16.3033 21.6854C16.0853 21.0935 15.8807 20.3751 15.7365 19.869L15.7361 19.8676L15.7333 19.8581C15.3866 18.6408 15.0126 17.3281 14.4462 16.3108C13.8772 15.2891 13.1007 14.5427 11.9429 14.506L11.9415 14.506L11.8932 14.5052L11.803 14.5036L11.8025 14.5078C10.6657 14.5591 9.89996 15.3005 9.33716 16.3114C8.77069 17.3288 8.3966 18.6419 8.04972 19.8595L8.04715 19.8685L8.04714 19.8685C7.90316 20.3743 7.69843 21.093 7.47881 21.6849C7.3688 21.9815 7.25673 22.2415 7.14869 22.4259C7.09449 22.5184 7.04395 22.5872 6.99845 22.6318C6.95516 22.6741 6.92688 22.6844 6.9126 22.6858C6.33505 22.6226 5.88991 22.3176 5.54184 21.837C5.1904 21.3518 4.94013 20.6898 4.76053 19.9265C4.40125 18.3997 4.33197 16.5019 4.27336 14.8885M4.24139 14.0565L4.14148 14.0608L4.24139 14.0565C4.24139 14.0565 4.24139 14.0565 4.24139 14.0565ZM4.24139 14.0565C4.25283 14.3226 4.263 14.601 4.27336 14.8885M4.27336 14.8885L4.17343 14.8921L4.27336 14.8885ZM13.8912 1.64545C13.2238 1.95975 12.6674 2.22137 11.892 2.22158L13.8912 1.64545Z" fill="#2E37A4" stroke="#2E37A4" stroke-width="0.2"/>
</svg>
