<svg width="28" height="26" viewBox="0 0 28 26" fill="none" xmlns="http://www.w3.org/2000/svg">
<path d="M4.12929 13.6174L4.23858 13.5146L13.2869 23.1394L16.4648 19.7603C16.6047 19.5804 16.8137 19.4667 17.0412 19.4475C17.2713 19.4282 17.4992 19.507 17.6679 19.6649L17.5654 19.7745L17.6679 19.6649C17.8367 19.8229 17.9308 20.0448 17.9266 20.2759C17.9266 20.2759 17.9266 20.276 17.9266 20.2761L17.7766 20.2733C17.7734 20.4619 17.6903 20.6403 17.548 20.7642L4.12929 13.6174ZM4.12929 13.6174L4.23857 13.5146C1.89695 11.024 1.92241 6.88893 4.25006 4.36321L4.25007 4.36319C5.4131 3.1009 6.9002 2.48413 8.37997 2.48413C9.85859 2.48413 11.3587 3.09913 12.7253 4.40129L12.7257 4.40162C13.0407 4.69984 13.5338 4.69991 13.8487 4.40157L13.849 4.40129C15.2156 3.09913 16.7157 2.48413 18.1943 2.48413C19.6743 2.48413 21.1612 3.1009 22.3245 4.3632L22.4348 4.26155L22.3245 4.36321C23.3277 5.45178 23.914 6.82958 24.056 8.26021C24.0602 8.48617 24.158 8.70038 24.326 8.85176C24.4959 9.00482 24.722 9.07938 24.9495 9.05803L24.9497 9.05801C25.1769 9.03638 25.3851 8.92079 25.5233 8.73868C25.6602 8.55831 25.716 8.32929 25.6777 8.10646C25.5032 6.34316 24.783 4.61923 23.5244 3.2534L23.4141 3.35504L23.5244 3.25339C22.0665 1.67152 20.1347 0.850399 18.1944 0.850399C16.4684 0.850399 14.7787 1.52731 13.2872 2.7536C11.7957 1.5273 10.1054 0.85 8.37941 0.85C6.43905 0.85 4.50732 1.67105 3.04961 3.25299C0.135105 6.41565 0.0982234 11.4857 3.05057 14.626C3.05059 14.626 3.05061 14.626 3.05063 14.626L12.6871 24.8876C12.6873 24.8877 12.6874 24.8879 12.6876 24.8881C12.842 25.0551 13.0595 25.15 13.2869 25.15C13.5146 25.15 13.7318 25.055 13.8864 24.8881C13.8865 24.8879 13.8866 24.8878 13.8867 24.8877L17.6525 20.8721L4.12929 13.6174ZM24.9355 8.90869C25.121 8.89102 25.291 8.7966 25.4038 8.64799C25.5166 8.49939 25.562 8.31032 25.5289 8.12684L24.9355 8.90869Z" fill="#2E37A4" stroke="#2E37A4" stroke-width="0.3"/>
<path d="M20.6702 7.03255L20.6715 7.03244C21.0637 7.00026 21.4233 7.25236 21.5267 7.63208L21.5269 7.63285L22.664 11.8973H27.0071C27.225 11.8947 27.4354 11.9792 27.5909 12.1325L27.591 12.1326C27.7465 12.2861 27.8342 12.4954 27.8342 12.7142C27.8342 12.9328 27.7465 13.1424 27.591 13.2959L27.5908 13.2961C27.4354 13.4489 27.2252 13.5338 27.007 13.531H22.0385H22.0382V13.381C21.737 13.3824 21.4724 13.1817 21.3924 12.8912L20.6702 7.03255ZM20.6702 7.03255C20.3301 7.06332 20.0449 7.30261 19.9555 7.63219L19.9553 7.63273L18.1415 14.416L17.6307 12.5102C17.6306 12.5099 17.6306 12.5097 17.6305 12.5094C17.5371 12.1488 17.2116 11.8974 16.8394 11.8974H11.8705C11.6526 11.8948 11.4422 11.9794 11.2868 12.1328C11.1311 12.2863 11.0434 12.4956 11.0434 12.7144C11.0434 12.9329 11.1311 13.1426 11.2869 13.2961L11.3921 13.1894L11.2869 13.2961C11.4421 13.4491 11.6525 13.534 11.8707 13.5311H16.2136L17.3503 17.7943C17.3504 17.7945 17.3505 17.7947 17.3505 17.7949C17.4436 18.1557 17.769 18.4081 18.1417 18.4081C18.5144 18.4081 18.8398 18.1557 18.9329 17.7949C18.9329 17.7947 18.933 17.7945 18.933 17.7943L20.7362 11.0149L20.6702 7.03255Z" fill="#00D3C7" stroke="#00D3C7" stroke-width="0.3"/>
</svg>
