<svg width="24" height="26" viewBox="0 0 24 26" fill="none" xmlns="http://www.w3.org/2000/svg">
<path d="M23.2052 12.6437C23.2329 10.9179 21.851 9.53159 20.1293 9.52242L20.129 9.52233H20.1119C18.3817 9.52233 16.9912 10.9127 16.9912 12.643C16.9912 14.1454 18.0556 15.4028 19.4625 15.6914V17.6132C19.4625 21.0264 16.9179 23.8016 13.796 23.8016C10.6739 23.8016 8.12936 21.0264 8.12936 17.6132V15.8132C11.653 15.5978 14.4452 12.6365 14.4452 9.07313L14.4453 2.0983C14.4453 1.741 14.1535 1.44915 13.7962 1.44915H12.2593C12.0444 1.11869 11.6725 0.9 11.2699 0.9C10.6106 0.9 10.0716 1.43895 10.0716 2.0983C10.0716 2.75765 10.6106 3.2966 11.2699 3.2966C11.6941 3.2966 12.0697 3.08165 12.2632 2.74745H13.147V9.04562C13.147 12.0659 10.6929 14.52 7.67267 14.52C4.65243 14.52 2.1983 12.0659 2.1983 9.04562V2.74745H3.08604C3.30096 3.07791 3.67279 3.2966 4.07542 3.2966C4.73476 3.2966 5.27372 2.75765 5.27372 2.0983C5.27372 1.43895 4.73476 0.9 4.07542 0.9C3.65126 0.9 3.27567 1.11496 3.08217 1.44915H1.54915C1.19185 1.44915 0.9 1.74102 0.9 2.0983V9.04567C0.9 12.472 3.47433 15.3223 6.80389 15.752V17.6133C6.80389 21.7254 9.91724 25.1 13.7689 25.1C17.6205 25.1 20.7339 21.7253 20.7339 17.6133V15.6913C22.1406 15.4027 23.2048 14.1459 23.2052 12.6437ZM20.1119 14.4651C19.0962 14.4651 18.2898 13.6587 18.2898 12.643C18.2898 11.6273 19.0962 10.8208 20.1119 10.8208C21.1276 10.8208 21.9341 11.6273 21.9341 12.643C21.9341 13.6578 21.1012 14.4651 20.1119 14.4651Z" fill="#2E37A4" stroke="#2E37A4" stroke-width="0.2"/>
</svg>
