<svg width="32" height="32" viewBox="0 0 32 32" fill="none" xmlns="http://www.w3.org/2000/svg">
<path d="M22.2706 4.85388V2.79469C22.2706 2.25349 21.8218 1.80469 21.2806 1.80469C20.7394 1.80469 20.2906 2.25349 20.2906 2.79469V4.77469H11.7106V2.79469C11.7106 2.25349 11.2618 1.80469 10.7206 1.80469C10.1794 1.80469 9.73061 2.25349 9.73061 2.79469V4.85388C6.16661 5.18388 4.43742 7.30908 4.17342 10.4639C4.14702 10.8467 4.46382 11.1635 4.83342 11.1635H27.1678C27.5506 11.1635 27.8674 10.8335 27.8278 10.4639C27.5638 7.30908 25.8346 5.18388 22.2706 4.85388Z" fill="white"/>
<path opacity="0.4" d="M26.5599 13.1484C27.2859 13.1484 27.8799 13.7424 27.8799 14.4684V22.5996C27.8799 26.5596 25.8999 29.1996 21.2799 29.1996H10.7199C6.09987 29.1996 4.11987 26.5596 4.11987 22.5996V14.4684C4.11987 13.7424 4.71387 13.1484 5.43987 13.1484H26.5599Z" fill="white"/>
<path d="M11.3798 19.9589C11.0366 19.9589 10.6934 19.8136 10.4426 19.576C10.205 19.3252 10.0598 18.9821 10.0598 18.6389C10.0598 18.2957 10.205 17.9525 10.4426 17.7017C10.8122 17.3321 11.393 17.2132 11.8814 17.4244C12.053 17.4904 12.1982 17.5829 12.317 17.7017C12.5546 17.9525 12.6998 18.2957 12.6998 18.6389C12.6998 18.9821 12.5546 19.3252 12.317 19.576C12.0662 19.8136 11.723 19.9589 11.3798 19.9589Z" fill="white"/>
<path d="M16.0002 19.9589C15.657 19.9589 15.3138 19.8136 15.063 19.576C14.8254 19.3252 14.6802 18.9821 14.6802 18.6389C14.6802 18.2957 14.8254 17.9525 15.063 17.7017C15.1818 17.5829 15.327 17.4904 15.4986 17.4244C15.987 17.2132 16.5678 17.3321 16.9374 17.7017C17.175 17.9525 17.3202 18.2957 17.3202 18.6389C17.3202 18.9821 17.175 19.3252 16.9374 19.576C16.8714 19.6288 16.8054 19.6816 16.7394 19.7344C16.6602 19.7872 16.581 19.8269 16.5018 19.8533C16.4226 19.8929 16.3434 19.9193 16.2642 19.9325C16.1718 19.9457 16.0926 19.9589 16.0002 19.9589Z" fill="white"/>
<path d="M20.6196 19.9603C20.2764 19.9603 19.9332 19.8151 19.6824 19.5775C19.4448 19.3267 19.2996 18.9835 19.2996 18.6403C19.2996 18.2971 19.4448 17.9539 19.6824 17.7031C19.8144 17.5843 19.9464 17.4919 20.118 17.4259C20.3556 17.3203 20.6196 17.2939 20.8836 17.3467C20.9628 17.3599 21.042 17.3863 21.1212 17.4259C21.2004 17.4523 21.2796 17.4919 21.3588 17.5447C21.4248 17.5975 21.4908 17.6503 21.5568 17.7031C21.7944 17.9539 21.9396 18.2971 21.9396 18.6403C21.9396 18.9835 21.7944 19.3267 21.5568 19.5775C21.4908 19.6303 21.4248 19.6831 21.3588 19.7359C21.2796 19.7887 21.2004 19.8283 21.1212 19.8547C21.042 19.8943 20.9628 19.9207 20.8836 19.9339C20.7912 19.9471 20.6988 19.9603 20.6196 19.9603Z" fill="white"/>
<path d="M11.3798 24.5775C11.2082 24.5775 11.0366 24.5379 10.8782 24.4719C10.7066 24.4059 10.5746 24.3135 10.4426 24.1947C10.205 23.9439 10.0598 23.6007 10.0598 23.2575C10.0598 22.9143 10.205 22.5711 10.4426 22.3203C10.5746 22.2015 10.7066 22.1091 10.8782 22.0431C11.1158 21.9375 11.3798 21.9111 11.6438 21.9639C11.723 21.9771 11.8022 22.0035 11.8814 22.0431C11.9606 22.0695 12.0398 22.1091 12.119 22.1619C12.185 22.2147 12.251 22.2675 12.317 22.3203C12.5546 22.5711 12.6998 22.9143 12.6998 23.2575C12.6998 23.6007 12.5546 23.9439 12.317 24.1947C12.251 24.2475 12.185 24.3135 12.119 24.3531C12.0398 24.4059 11.9606 24.4455 11.8814 24.4719C11.8022 24.5115 11.723 24.5379 11.6438 24.5511C11.5514 24.5643 11.4722 24.5775 11.3798 24.5775Z" fill="white"/>
<path d="M16.0002 24.5766C15.657 24.5766 15.3138 24.4314 15.063 24.1938C14.8254 23.943 14.6802 23.5998 14.6802 23.2566C14.6802 22.9134 14.8254 22.5702 15.063 22.3194C15.5514 21.831 16.449 21.831 16.9374 22.3194C17.175 22.5702 17.3202 22.9134 17.3202 23.2566C17.3202 23.5998 17.175 23.943 16.9374 24.1938C16.6866 24.4314 16.3434 24.5766 16.0002 24.5766Z" fill="white"/>
<path d="M20.6196 24.5766C20.2764 24.5766 19.9332 24.4314 19.6824 24.1938C19.4448 23.943 19.2996 23.5998 19.2996 23.2566C19.2996 22.9134 19.4448 22.5702 19.6824 22.3194C20.1708 21.831 21.0684 21.831 21.5568 22.3194C21.7944 22.5702 21.9396 22.9134 21.9396 23.2566C21.9396 23.5998 21.7944 23.943 21.5568 24.1938C21.306 24.4314 20.9628 24.5766 20.6196 24.5766Z" fill="white"/>
</svg>
