<svg width="32" height="32" viewBox="0 0 32 32" fill="none" xmlns="http://www.w3.org/2000/svg">
<path opacity="0.4" d="M23.9728 18.0388C23.4184 18.58 23.1016 19.3588 23.1808 20.1904C23.2996 21.616 24.6064 22.6588 26.032 22.6588H28.54V24.2296C28.54 26.962 26.3092 29.1928 23.5768 29.1928H8.42316C5.69076 29.1928 3.45996 26.962 3.45996 24.2296V15.346C3.45996 12.6136 5.69076 10.3828 8.42316 10.3828H23.5768C26.3092 10.3828 28.54 12.6136 28.54 15.346V17.2468H25.8736C25.1344 17.2468 24.4612 17.5372 23.9728 18.0388Z" fill="white"/>
<path d="M19.762 5.36844V10.3844H8.42316C5.69076 10.3844 3.45996 12.6152 3.45996 15.3476V10.5033C3.45996 8.93246 4.42356 7.5332 5.88876 6.9788L16.3696 3.0188C18.0064 2.4116 19.762 3.61284 19.762 5.36844Z" fill="white"/>
<path d="M29.9394 18.5963V21.3156C29.9394 22.0416 29.3586 22.6356 28.6194 22.662H26.0322C24.6066 22.662 23.2998 21.6192 23.181 20.1936C23.1018 19.362 23.4186 18.5832 23.973 18.042C24.4614 17.5404 25.1346 17.25 25.8738 17.25H28.6194C29.3586 17.2764 29.9394 17.8703 29.9394 18.5963Z" fill="white"/>
<path d="M18.6402 16.9878H9.40016C8.85896 16.9878 8.41016 16.539 8.41016 15.9978C8.41016 15.4566 8.85896 15.0078 9.40016 15.0078H18.6402C19.1814 15.0078 19.6302 15.4566 19.6302 15.9978C19.6302 16.539 19.1814 16.9878 18.6402 16.9878Z" fill="white"/>
</svg>
