<svg width="18" height="15" viewBox="0 0 18 15" fill="none" xmlns="http://www.w3.org/2000/svg">
<path d="M16.8679 14.9934C16.6473 14.9934 16.4431 14.877 16.3305 14.6873C14.5999 11.8007 11.2447 10.1449 6.87118 9.99492V13.1189C6.87076 13.2447 6.83241 13.3675 6.76115 13.4712C6.68974 13.5749 6.58877 13.6547 6.47134 13.6999C6.35378 13.7453 6.22519 13.7541 6.10247 13.7251C5.97988 13.6961 5.86886 13.6307 5.78407 13.5376L0.160939 7.28963C0.0573201 7.17471 0 7.02563 0 6.87095C0 6.71626 0.0573201 6.5672 0.160939 6.45226L5.78407 0.204339C5.86886 0.111177 5.97988 0.0457703 6.10247 0.0167621C6.22519 -0.0122461 6.35378 -0.00346008 6.47134 0.0420048C6.58877 0.0871898 6.68974 0.166963 6.76115 0.270722C6.83241 0.374341 6.87076 0.497211 6.87118 0.623005V3.74697C9.66086 3.83316 12.3126 4.97981 14.2862 6.95337C16.2598 8.92692 17.4064 11.5786 17.4926 14.3684C17.4978 14.5087 17.4557 14.6465 17.3728 14.7599C17.2901 14.8733 17.1717 14.9554 17.0366 14.9932C16.9806 15.0023 16.9237 15.0023 16.8678 14.9932L16.8679 14.9934ZM6.24642 8.74549C10.2826 8.74549 13.6879 9.99507 15.9243 12.1756C15.3504 10.0668 14.0839 8.21188 12.3287 6.91017C10.5733 5.60814 8.43106 4.93426 6.24642 4.99688C6.08074 4.99688 5.92175 4.93105 5.80461 4.8139C5.68746 4.69676 5.62163 4.53777 5.62163 4.37209V2.25407L1.46658 6.87111L5.62163 11.4881V9.37014C5.62163 9.20446 5.68746 9.04547 5.80461 8.92832C5.92175 8.81117 6.08074 8.74535 6.24642 8.74535V8.74549Z" fill="#333448" fill-opacity="0.5"/>
</svg>
