<svg width="19" height="15" viewBox="0 0 19 15" fill="none" xmlns="http://www.w3.org/2000/svg">
<path d="M1.35867 14.9934C1.5793 14.9934 1.78345 14.877 1.89602 14.6873C3.62663 11.8007 6.98183 10.1449 11.3554 9.99492V13.1189C11.3558 13.2447 11.3942 13.3675 11.4654 13.4712C11.5368 13.5749 11.6378 13.6547 11.7552 13.6999C11.8728 13.7453 12.0014 13.7541 12.1241 13.7251C12.2467 13.6961 12.3577 13.6307 12.4425 13.5376L18.0656 7.28963C18.1692 7.17471 18.2266 7.02563 18.2266 6.87095C18.2266 6.71626 18.1692 6.5672 18.0656 6.45226L12.4425 0.204339C12.3577 0.111177 12.2467 0.0457703 12.1241 0.0167621C12.0014 -0.0122461 11.8728 -0.00346008 11.7552 0.0420048C11.6378 0.0871898 11.5368 0.166963 11.4654 0.270722C11.3942 0.374341 11.3558 0.497211 11.3554 0.623005V3.74697C8.5657 3.83316 5.91397 4.97981 3.94034 6.95337C1.96671 8.92692 0.820133 11.5786 0.733946 14.3684C0.728786 14.5087 0.770905 14.6465 0.853745 14.7599C0.936445 14.8733 1.05485 14.9554 1.18999 14.9932C1.24592 15.0023 1.30282 15.0023 1.35874 14.9932L1.35867 14.9934ZM11.9801 8.74549C7.94398 8.74549 4.53868 9.99507 2.30228 12.1756C2.87616 10.0668 4.14264 8.21188 5.89787 6.91017C7.65329 5.60814 9.79551 4.93426 11.9801 4.99688C12.1458 4.99688 12.3048 4.93105 12.422 4.8139C12.5391 4.69676 12.6049 4.53777 12.6049 4.37209V2.25407L16.76 6.87111L12.6049 11.4881V9.37014C12.6049 9.20446 12.5391 9.04547 12.422 8.92832C12.3048 8.81117 12.1458 8.74535 11.9801 8.74535V8.74549Z" fill="#333448" fill-opacity="0.5"/>
</svg>
