<svg width="18" height="15" viewBox="0 0 18 15" fill="none" xmlns="http://www.w3.org/2000/svg">
<path d="M9.97572 3.76891V0.651025C9.9753 0.482324 9.90654 0.321142 9.7853 0.203938C9.66393 0.0868764 9.50038 0.0238239 9.3318 0.0293933C9.16324 0.0349609 9.00414 0.108456 8.8907 0.233171L3.2785 6.46894C3.17509 6.58364 3.11788 6.73243 3.11788 6.88681C3.11788 7.04119 3.17509 7.18997 3.2785 7.30468L8.8907 13.5405C9.00414 13.6652 9.16323 13.7387 9.3318 13.7442C9.50036 13.7498 9.66391 13.6867 9.7853 13.5697C9.90653 13.4525 9.9753 13.2913 9.97572 13.1226V10.0047C13.6299 10.1294 14.3906 11.4264 15.8373 13.8894C15.9807 14.1451 16.1366 14.4069 16.2988 14.6752C16.4079 14.8693 16.6124 14.9906 16.8351 14.9932C16.8909 15.0023 16.9477 15.0023 17.0035 14.9932C17.1384 14.9555 17.2565 14.8735 17.3391 14.7603C17.4218 14.6472 17.4638 14.5097 17.4586 14.3696C17.4586 10.7593 17.4586 4.13049 9.97572 3.76882L9.97572 3.76891ZM9.35214 8.75753C9.18678 8.75753 9.0281 8.82323 8.91118 8.94015C8.79426 9.05707 8.72856 9.21575 8.72856 9.38111V11.495L4.5816 6.88694L8.72856 2.27888V4.39277C8.72856 4.55813 8.79426 4.71681 8.91118 4.83373C9.0281 4.95065 9.18678 5.01635 9.35214 5.01635C14.871 5.01635 15.9496 8.66446 16.1616 12.0254C14.877 10.005 13.4677 8.75785 9.35214 8.75785V8.75753ZM6.69566 12.7046C6.80618 12.8272 6.86367 12.9885 6.85546 13.1534C6.84738 13.3182 6.77417 13.4729 6.6521 13.5839C6.53769 13.6879 6.38875 13.7456 6.23423 13.746C6.05829 13.7456 5.89071 13.6709 5.77282 13.5403L0.160626 7.30454C0.0572087 7.18984 0 7.04105 0 6.88667C0 6.73229 0.0572087 6.58351 0.160626 6.4688L5.77282 0.233029C5.88041 0.099127 6.0384 0.0154715 6.20961 0.00197015C6.38095 -0.0116705 6.55021 0.0459553 6.67758 0.161346C6.80494 0.276597 6.87899 0.439311 6.88247 0.61107C6.88595 0.782831 6.8183 0.948329 6.69567 1.06874L1.46404 6.88654L6.69566 12.7046Z" fill="#333448" fill-opacity="0.5"/>
</svg>
