<svg width="34" height="37" viewBox="0 0 34 37" fill="none" xmlns="http://www.w3.org/2000/svg">
<path d="M33.0832 17.7705C33.0832 19.784 31.4512 21.4167 29.4377 21.4167C27.4242 21.4167 25.7915 19.784 25.7915 17.7705C25.7915 15.757 27.4242 14.125 29.4377 14.125C31.4512 14.125 33.0832 15.757 33.0832 17.7705Z" fill="#00D3C7"/>
<path d="M28.8887 13.4743C31.3783 13.4834 33.3771 15.4865 33.3367 17.9801C33.3367 17.9804 33.3367 17.9806 33.3367 17.9808L33.2367 17.9792C33.2367 20.1418 31.675 21.9438 29.6327 22.3041L28.8887 13.4743ZM28.8887 13.4743L28.8884 13.4742H28.8716C26.3736 13.4742 24.3664 15.4813 24.3664 17.9794C24.3664 20.1614 25.9215 21.9853 27.9704 22.3874V25.2276C27.9704 30.2266 24.2427 34.2981 19.6608 34.2981C15.0787 34.2981 11.3512 30.2266 11.3512 25.2276V22.5593C16.4859 22.2683 20.5617 17.9602 20.5617 12.7733L20.562 2.60169C20.562 2.10594 20.1568 1.70084 19.6611 1.70084H17.3947C17.0914 1.21938 16.556 0.9 15.977 0.9C15.0407 0.9 14.2753 1.66545 14.2753 2.60169C14.2753 3.53792 15.0407 4.30338 15.977 4.30338C16.5899 4.30338 17.1293 3.98792 17.3988 3.50253H18.7603V12.7332C18.7603 17.163 15.1608 20.7625 10.731 20.7625C6.30115 20.7625 2.70169 17.163 2.70169 12.7332V3.50253H4.06722C4.37055 3.984 4.906 4.30338 5.48498 4.30338C6.42122 4.30338 7.18667 3.53792 7.18667 2.60169C7.18667 1.66545 6.42122 0.9 5.48498 0.9C4.8721 0.9 4.33266 1.21546 4.0632 1.70084H1.80084C1.3051 1.70084 0.9 2.10596 0.9 2.60169V12.7333C0.9 17.7202 4.65739 21.8669 9.50984 22.473V25.2277C9.50984 31.2025 14.0328 36.1 19.6213 36.1C25.2098 36.1 29.7327 31.2024 29.7327 25.2277V22.3872L28.8887 13.4743ZM28.8716 20.6825C27.365 20.6825 26.1684 19.4859 26.1684 17.9793C26.1684 16.4728 27.365 15.2762 28.8716 15.2762C30.3781 15.2762 31.5747 16.4728 31.5747 17.9793C31.5747 19.485 30.3391 20.6825 28.8716 20.6825Z" fill="#2E37A4" stroke="#2E37A4" stroke-width="0.2"/>
</svg>
