<svg width="20" height="20" viewBox="0 0 20 20" fill="none" xmlns="http://www.w3.org/2000/svg">
<path d="M19.9987 10.2231C20.0108 9.53538 19.9382 8.84765 19.785 8.17969H10.2031V11.891H15.8288C15.6151 13.2072 14.861 14.3771 13.7439 15.136L13.7237 15.2585L16.7523 17.5589L16.962 17.5786C18.8857 15.8356 19.9987 13.2704 19.9987 10.2231Z" fill="#4285F4"/>
<path d="M10.2029 19.9962C12.9573 19.9962 15.2721 19.1069 16.9618 17.5733L13.7437 15.1268C12.6992 15.8145 11.4611 16.1623 10.2069 16.1267C7.56145 16.1109 5.22245 14.4351 4.39976 11.9688L4.27878 11.9806L1.12919 14.3679L1.08887 14.4786C2.81489 17.8658 6.34355 20.0001 10.2029 19.9962Z" fill="#34A853"/>
<path d="M4.39571 11.9785C4.17391 11.3422 4.05696 10.6742 4.05696 9.99835C4.06099 9.32643 4.17391 8.65847 4.38765 8.01817L4.38361 7.88774L1.1937 5.46094L1.08885 5.50836C-0.362949 8.33437 -0.362949 11.6623 1.08885 14.4883L4.39571 11.9785Z" fill="#FBBC05"/>
<path d="M10.2029 3.86609C11.6668 3.84238 13.0783 4.37596 14.147 5.35617L17.0264 2.60131C15.1793 0.901758 12.7315 -0.0270664 10.1989 0.00060078C6.33953 0.00060078 2.81087 2.13097 1.08081 5.51427L4.37961 8.02407C5.21036 5.55774 7.55339 3.8819 10.2029 3.86609Z" fill="#EB4335"/>
</svg>
