<svg width="21" height="20" viewBox="0 0 21 20" fill="none" xmlns="http://www.w3.org/2000/svg">
<path d="M14.5251 2.96406V1.66406C14.5251 1.3224 14.2418 1.03906 13.9001 1.03906C13.5584 1.03906 13.2751 1.3224 13.2751 1.66406V2.91406H7.85843V1.66406C7.85843 1.3224 7.57509 1.03906 7.23343 1.03906C6.89176 1.03906 6.60843 1.3224 6.60843 1.66406V2.96406C4.35843 3.17239 3.26676 4.51406 3.10009 6.50573C3.08343 6.74739 3.28343 6.94739 3.51676 6.94739H17.6168C17.8584 6.94739 18.0584 6.73906 18.0334 6.50573C17.8668 4.51406 16.7751 3.17239 14.5251 2.96406Z" fill="#333548" fill-opacity="0.75"/>
<path opacity="0.4" d="M18.0667 9.03699V10.487C18.0667 10.9953 17.6167 11.387 17.1167 11.3037C16.8833 11.2703 16.6417 11.2453 16.4 11.2453C13.875 11.2453 11.8167 13.3036 11.8167 15.8286C11.8167 16.212 11.9667 16.7453 12.125 17.2287C12.3083 17.7703 11.9083 18.3286 11.3333 18.3286H7.23332C4.31665 18.3286 3.06665 16.662 3.06665 14.162V9.02865C3.06665 8.57031 3.44165 8.19531 3.89998 8.19531H17.2333C17.6917 8.20365 18.0667 8.57865 18.0667 9.03699Z" fill="#333548" fill-opacity="0.75"/>
<path d="M16.4 12.5C14.5583 12.5 13.0667 13.9917 13.0667 15.8333C13.0667 16.4583 13.2417 17.05 13.55 17.55C14.125 18.5167 15.1833 19.1667 16.4 19.1667C17.6167 19.1667 18.675 18.5167 19.25 17.55C19.5583 17.05 19.7333 16.4583 19.7333 15.8333C19.7333 13.9917 18.2417 12.5 16.4 12.5ZM18.125 15.475L16.35 17.1167C16.2333 17.225 16.075 17.2833 15.925 17.2833C15.7667 17.2833 15.6083 17.225 15.4833 17.1L14.6583 16.275C14.4167 16.0333 14.4167 15.6333 14.6583 15.3917C14.9 15.15 15.3 15.15 15.5417 15.3917L15.9416 15.7917L17.275 14.5583C17.525 14.325 17.925 14.3417 18.1583 14.5917C18.3917 14.8417 18.375 15.2333 18.125 15.475Z" fill="#333548" fill-opacity="0.75"/>
<path d="M7.64998 12.5033C7.43332 12.5033 7.21665 12.4117 7.05832 12.2617C6.90832 12.1033 6.81665 11.8867 6.81665 11.67C6.81665 11.4533 6.90832 11.2367 7.05832 11.0784C7.24998 10.8867 7.54165 10.795 7.81665 10.8533C7.86665 10.8617 7.91665 10.8783 7.96665 10.9033C8.01665 10.92 8.06665 10.945 8.11665 10.9784C8.15831 11.0117 8.19998 11.045 8.24165 11.0784C8.39165 11.2367 8.48332 11.4533 8.48332 11.67C8.48332 11.8867 8.39165 12.1033 8.24165 12.2617C8.19998 12.295 8.15831 12.3283 8.11665 12.3617C8.06665 12.395 8.01665 12.42 7.96665 12.4367C7.91665 12.4617 7.86665 12.4784 7.81665 12.4867C7.75831 12.495 7.69998 12.5033 7.64998 12.5033Z" fill="#333548" fill-opacity="0.75"/>
<path d="M10.5667 12.5C10.3501 12.5 10.1334 12.4083 9.97507 12.2583C9.82507 12.1 9.7334 11.8833 9.7334 11.6667C9.7334 11.45 9.82507 11.2333 9.97507 11.075C10.2917 10.7667 10.8501 10.7667 11.1584 11.075C11.3084 11.2333 11.4001 11.45 11.4001 11.6667C11.4001 11.8833 11.3084 12.1 11.1584 12.2583C11.0001 12.4083 10.7834 12.5 10.5667 12.5Z" fill="#333548" fill-opacity="0.75"/>
<path d="M7.64998 15.4157C7.43332 15.4157 7.21665 15.3241 7.05832 15.1741C6.90832 15.0157 6.81665 14.7991 6.81665 14.5824C6.81665 14.3657 6.90832 14.1491 7.05832 13.9908C7.14165 13.9158 7.22499 13.8574 7.33332 13.8157C7.64165 13.6824 8.00832 13.7574 8.24165 13.9908C8.39165 14.1491 8.48332 14.3657 8.48332 14.5824C8.48332 14.7991 8.39165 15.0157 8.24165 15.1741C8.08332 15.3241 7.86665 15.4157 7.64998 15.4157Z" fill="#333548" fill-opacity="0.75"/>
</svg>
