<svg width="21" height="20" viewBox="0 0 21 20" fill="none" xmlns="http://www.w3.org/2000/svg">
<path opacity="0.4" d="M7.23332 18.3307H13.9C16.2 18.3307 18.0667 16.4641 18.0667 14.1641V5.83073C18.0667 3.53073 16.2 1.66406 13.9 1.66406H7.23332C4.93332 1.66406 3.06665 3.53073 3.06665 5.83073V14.1641C3.06665 16.4641 4.93332 18.3307 7.23332 18.3307Z" fill="#333548" fill-opacity="0.75"/>
<path d="M13.0667 4.75781H8.06667C7.20833 4.75781 6.5 5.45781 6.5 6.32448V7.15781C6.5 8.01615 7.2 8.72448 8.06667 8.72448H13.0667C13.925 8.72448 14.6333 8.02448 14.6333 7.15781V6.32448C14.6333 5.45781 13.9333 4.75781 13.0667 4.75781Z" fill="#333548" fill-opacity="0.75"/>
<path d="M7.36706 12.433C7.25039 12.433 7.14206 12.408 7.04206 12.3664C6.94206 12.3247 6.85039 12.2664 6.77539 12.1914C6.61706 12.033 6.52539 11.8247 6.52539 11.5997C6.52539 11.4914 6.55039 11.383 6.59206 11.283C6.63372 11.1747 6.69206 11.0914 6.77539 11.008C6.96706 10.8164 7.25872 10.7247 7.52539 10.783C7.57539 10.7914 7.63372 10.808 7.68372 10.833C7.73372 10.8497 7.78372 10.8747 7.82539 10.908C7.87539 10.933 7.91706 10.9747 7.95039 11.008C8.02539 11.0914 8.09206 11.1747 8.13372 11.283C8.17539 11.383 8.19206 11.4914 8.19206 11.5997C8.19206 11.8247 8.10872 12.033 7.95039 12.1914C7.79206 12.3497 7.58372 12.433 7.36706 12.433Z" fill="#333548" fill-opacity="0.75"/>
<path d="M10.692 12.4297C10.4753 12.4297 10.267 12.3464 10.1086 12.188C9.95031 12.0297 9.85864 11.8214 9.85864 11.5964C9.85864 11.3797 9.95031 11.163 10.1086 11.0047C10.417 10.6964 10.9753 10.6964 11.2836 11.0047C11.3586 11.088 11.4253 11.1714 11.467 11.2797C11.5086 11.3797 11.5253 11.488 11.5253 11.5964C11.5253 11.8214 11.442 12.0297 11.2836 12.188C11.1253 12.3464 10.917 12.4297 10.692 12.4297Z" fill="#333548" fill-opacity="0.75"/>
<path d="M14.0252 12.4297C13.8086 12.4297 13.6002 12.3464 13.4419 12.188C13.2836 12.0297 13.1919 11.8214 13.1919 11.5964C13.1919 11.3797 13.2836 11.163 13.4419 11.0047C13.7502 10.6964 14.3086 10.6964 14.6169 11.0047C14.7752 11.163 14.8669 11.3797 14.8669 11.5964C14.8669 11.7047 14.8419 11.813 14.8002 11.913C14.7586 12.013 14.7002 12.1047 14.6169 12.188C14.4586 12.3464 14.2502 12.4297 14.0252 12.4297Z" fill="#333548" fill-opacity="0.75"/>
<path d="M7.36706 15.7641C7.14206 15.7641 6.93372 15.6807 6.77539 15.5224C6.61706 15.3641 6.52539 15.1557 6.52539 14.9307C6.52539 14.7141 6.61706 14.4974 6.77539 14.3391C6.85039 14.2641 6.94206 14.2057 7.04206 14.1641C7.25039 14.0807 7.47539 14.0807 7.68372 14.1641C7.73372 14.1807 7.78372 14.2057 7.82539 14.2391C7.87539 14.2641 7.91706 14.3057 7.95039 14.3391C8.10872 14.4974 8.20039 14.7141 8.20039 14.9307C8.20039 15.1557 8.10872 15.3641 7.95039 15.5224C7.79206 15.6807 7.58372 15.7641 7.36706 15.7641Z" fill="#333548" fill-opacity="0.75"/>
<path d="M10.692 15.7636C10.4753 15.7636 10.267 15.6803 10.1086 15.5219C9.95031 15.3636 9.85864 15.1553 9.85864 14.9303C9.85864 14.8719 9.86698 14.8219 9.87531 14.7636C9.89198 14.7136 9.90864 14.6636 9.92531 14.6136C9.95031 14.5636 9.97531 14.5136 10.0003 14.4636C10.0336 14.4219 10.067 14.3803 10.1086 14.3386C10.1836 14.2636 10.2753 14.2053 10.3753 14.1636C10.6836 14.0386 11.0503 14.1053 11.2836 14.3386C11.442 14.4969 11.5253 14.7136 11.5253 14.9303C11.5253 15.1553 11.442 15.3636 11.2836 15.5219C11.2086 15.5969 11.117 15.6553 11.017 15.6969C10.917 15.7386 10.8086 15.7636 10.692 15.7636Z" fill="#333548" fill-opacity="0.75"/>
<path d="M14.0252 15.7636C13.9169 15.7636 13.8085 15.7386 13.7085 15.6969C13.6085 15.6553 13.5169 15.5969 13.4419 15.5219C13.2835 15.3636 13.2002 15.1553 13.2002 14.9303C13.2002 14.7136 13.2835 14.4969 13.4419 14.3386C13.6669 14.1053 14.0419 14.0386 14.3502 14.1636C14.4502 14.2053 14.5419 14.2636 14.6169 14.3386C14.7752 14.4969 14.8585 14.7136 14.8585 14.9303C14.8585 15.1553 14.7752 15.3636 14.6169 15.5219C14.4585 15.6803 14.2502 15.7636 14.0252 15.7636Z" fill="#333548" fill-opacity="0.75"/>
</svg>
