<svg width="21" height="20" viewBox="0 0 21 20" fill="none" xmlns="http://www.w3.org/2000/svg">
<path opacity="0.4" d="M2.2334 10.8057V5.8224C2.2334 3.5224 4.10007 1.66406 6.40006 1.66406H14.7334C17.0334 1.66406 18.9001 3.5224 18.9001 5.8224V11.6391C18.9001 13.9307 17.0334 15.7891 14.7334 15.7891H13.4834C13.2251 15.7891 12.9751 15.9141 12.8167 16.1224L11.5667 17.7807C11.0167 18.5141 10.1167 18.5141 9.56673 17.7807L8.31673 16.1224C8.1834 15.9391 7.8834 15.7891 7.65006 15.7891H6.40006C4.10007 15.7891 2.2334 13.9307 2.2334 11.6391V10.8057Z" fill="#333548" fill-opacity="0.75"/>
<path d="M10.5667 10.0026C10.1001 10.0026 9.7334 9.6276 9.7334 9.16927C9.7334 8.71094 10.1084 8.33594 10.5667 8.33594C11.0251 8.33594 11.4001 8.71094 11.4001 9.16927C11.4001 9.6276 11.0334 10.0026 10.5667 10.0026Z" fill="#333548" fill-opacity="0.75"/>
<path d="M13.9 10.0026C13.4333 10.0026 13.0667 9.6276 13.0667 9.16927C13.0667 8.71094 13.4417 8.33594 13.9 8.33594C14.3583 8.33594 14.7333 8.71094 14.7333 9.16927C14.7333 9.6276 14.3667 10.0026 13.9 10.0026Z" fill="#333548" fill-opacity="0.75"/>
<path d="M7.23324 10.0026C6.76657 10.0026 6.3999 9.6276 6.3999 9.16927C6.3999 8.71094 6.7749 8.33594 7.23324 8.33594C7.69157 8.33594 8.06657 8.71094 8.06657 9.16927C8.06657 9.6276 7.6999 10.0026 7.23324 10.0026Z" fill="#333548" fill-opacity="0.75"/>
</svg>
