<svg width="21" height="20" viewBox="0 0 21 20" fill="none" xmlns="http://www.w3.org/2000/svg">
<path opacity="0.4" d="M16.7999 10.7943H18.4832V9.59428C18.4832 7.86928 17.0749 6.46094 15.3499 6.46094H5.78323C4.05823 6.46094 2.6499 7.86928 2.6499 9.59428V12.6359C3.30824 12.0359 4.19157 11.6693 5.1499 11.6693C7.2249 11.6693 8.8999 13.3526 8.8999 15.4193C8.8999 15.8609 8.82491 16.2776 8.68324 16.6693C8.45824 17.3276 8.04157 17.8943 7.51657 18.3359H15.3499C17.0749 18.3359 18.4832 16.9276 18.4832 15.2026V14.2109H16.8999C15.9999 14.2109 15.1749 13.5526 15.0999 12.6526C15.0499 12.1276 15.2499 11.6359 15.5999 11.2943C15.9082 10.9776 16.3332 10.7943 16.7999 10.7943Z" fill="#333548" fill-opacity="0.75"/>
<path d="M5.1499 11.6641C4.19157 11.6641 3.30824 12.0307 2.6499 12.6307C2.4999 12.764 2.35824 12.9057 2.23324 13.0641C1.70824 13.7057 1.3999 14.5224 1.3999 15.4141C1.3999 17.4891 3.08324 19.1641 5.1499 19.1641C6.0499 19.1641 6.86657 18.8474 7.51657 18.3307C8.04157 17.8891 8.45824 17.3224 8.68324 16.6641C8.82491 16.2724 8.8999 15.8557 8.8999 15.4141C8.8999 13.3474 7.2249 11.6641 5.1499 11.6641ZM7.3999 14.6891C7.3999 14.9474 7.19156 15.1474 6.94156 15.1474C6.69156 15.1474 6.48324 14.9474 6.48324 14.6891V14.5974C6.48324 14.4974 6.40824 14.4141 6.30824 14.4141H4.42491C4.51657 14.5891 4.4999 14.8057 4.3499 14.9557C4.26656 15.0391 4.1499 15.0891 4.0249 15.0891C3.90823 15.0891 3.79157 15.0391 3.70824 14.9557L3.03324 14.2807C2.99157 14.2391 2.95823 14.1891 2.93323 14.1307C2.89157 14.0224 2.89157 13.8974 2.93323 13.7807C2.95823 13.7307 2.99157 13.6724 3.03324 13.6307L3.70824 12.9641C3.88324 12.7807 4.1749 12.7807 4.3499 12.9641C4.4999 13.1057 4.51657 13.3307 4.42491 13.4974H6.30824C6.90824 13.4974 7.3999 13.9891 7.3999 14.5974V14.6891ZM6.27491 17.9974C6.14991 17.9974 6.03324 17.9557 5.94991 17.8641C5.79991 17.7224 5.78323 17.4974 5.8749 17.3307H3.99157C3.39157 17.3307 2.8999 16.839 2.8999 16.2307V16.1391C2.8999 15.8807 3.10824 15.6807 3.35824 15.6807C3.60824 15.6807 3.81656 15.8807 3.81656 16.1391V16.2307C3.81656 16.3307 3.89157 16.4141 3.99157 16.4141H5.8749C5.78323 16.2391 5.79991 16.0224 5.94991 15.8724C6.12491 15.6974 6.41657 15.6974 6.59157 15.8724L7.26656 16.5474C7.30823 16.5891 7.34157 16.639 7.36657 16.6974C7.40824 16.8057 7.40824 16.9307 7.36657 17.0474C7.34157 17.0974 7.30823 17.1557 7.26656 17.1974L6.59157 17.8641C6.50823 17.9557 6.39157 17.9974 6.27491 17.9974Z" fill="#333548" fill-opacity="0.75"/>
<path d="M12.9416 3.29494V6.4616H5.78323C4.05823 6.4616 2.6499 7.86994 2.6499 9.59494V6.53662C2.6499 5.54496 3.25823 4.66159 4.18323 4.31159L10.7999 1.81159C11.8332 1.42825 12.9416 2.18661 12.9416 3.29494Z" fill="#333548" fill-opacity="0.75"/>
<path d="M19.3666 11.639V13.3557C19.3666 13.8141 18.9999 14.189 18.5332 14.2057H16.8999C15.9999 14.2057 15.1749 13.5474 15.0999 12.6474C15.0499 12.1224 15.2499 11.6307 15.5999 11.289C15.9082 10.9724 16.3332 10.7891 16.7999 10.7891H18.5332C18.9999 10.8057 19.3666 11.1807 19.3666 11.639Z" fill="#333548" fill-opacity="0.75"/>
<path d="M12.2337 10.625H6.40039C6.05872 10.625 5.77539 10.3417 5.77539 10C5.77539 9.65833 6.05872 9.375 6.40039 9.375H12.2337C12.5754 9.375 12.8587 9.65833 12.8587 10C12.8587 10.3417 12.5754 10.625 12.2337 10.625Z" fill="#333548" fill-opacity="0.75"/>
</svg>
