<svg width="21" height="20" viewBox="0 0 21 20" fill="none" xmlns="http://www.w3.org/2000/svg">
<path d="M14.5251 2.96406V1.66406C14.5251 1.3224 14.2418 1.03906 13.9001 1.03906C13.5584 1.03906 13.2751 1.3224 13.2751 1.66406V2.91406H7.85843V1.66406C7.85843 1.3224 7.57509 1.03906 7.23343 1.03906C6.89176 1.03906 6.60843 1.3224 6.60843 1.66406V2.96406C4.35843 3.17239 3.26676 4.51406 3.10009 6.50573C3.08343 6.74739 3.28343 6.94739 3.51676 6.94739H17.6168C17.8584 6.94739 18.0584 6.73906 18.0334 6.50573C17.8668 4.51406 16.7751 3.17239 14.5251 2.96406Z" fill="#333548" fill-opacity="0.75"/>
<path opacity="0.4" d="M17.2333 8.20312C17.6917 8.20312 18.0667 8.57812 18.0667 9.03646V14.1698C18.0667 16.6698 16.8167 18.3365 13.9 18.3365H7.23332C4.31665 18.3365 3.06665 16.6698 3.06665 14.1698V9.03646C3.06665 8.57812 3.44165 8.20312 3.89998 8.20312H17.2333Z" fill="#333548" fill-opacity="0.75"/>
<path d="M7.64998 12.5017C7.43332 12.5017 7.21665 12.41 7.05832 12.26C6.90832 12.1017 6.81665 11.885 6.81665 11.6684C6.81665 11.4517 6.90832 11.235 7.05832 11.0767C7.29165 10.8434 7.65832 10.7683 7.96665 10.9017C8.07498 10.9433 8.16665 11.0017 8.24165 11.0767C8.39165 11.235 8.48332 11.4517 8.48332 11.6684C8.48332 11.885 8.39165 12.1017 8.24165 12.26C8.08332 12.41 7.86665 12.5017 7.64998 12.5017Z" fill="#333548" fill-opacity="0.75"/>
<path d="M10.5662 12.5017C10.3496 12.5017 10.1329 12.41 9.97458 12.26C9.82458 12.1017 9.73291 11.885 9.73291 11.6684C9.73291 11.4517 9.82458 11.235 9.97458 11.0767C10.0496 11.0017 10.1412 10.9433 10.2496 10.9017C10.5579 10.7683 10.9246 10.8434 11.1579 11.0767C11.3079 11.235 11.3996 11.4517 11.3996 11.6684C11.3996 11.885 11.3079 12.1017 11.1579 12.26C11.1162 12.2933 11.0746 12.3267 11.0329 12.36C10.9829 12.3933 10.9329 12.4184 10.8829 12.435C10.8329 12.46 10.7829 12.4767 10.7329 12.485C10.6746 12.4934 10.6246 12.5017 10.5662 12.5017Z" fill="#333548" fill-opacity="0.75"/>
<path d="M13.4837 12.5026C13.2671 12.5026 13.0504 12.4109 12.8921 12.2609C12.7421 12.1026 12.6504 11.8859 12.6504 11.6693C12.6504 11.4526 12.7421 11.236 12.8921 11.0776C12.9754 11.0026 13.0587 10.9443 13.1671 10.9026C13.3171 10.8359 13.4837 10.8193 13.6504 10.8526C13.7004 10.8609 13.7504 10.8776 13.8004 10.9026C13.8504 10.9193 13.9004 10.9443 13.9504 10.9776C13.9921 11.011 14.0337 11.0443 14.0754 11.0776C14.2254 11.236 14.3171 11.4526 14.3171 11.6693C14.3171 11.8859 14.2254 12.1026 14.0754 12.2609C14.0337 12.2943 13.9921 12.3276 13.9504 12.3609C13.9004 12.3943 13.8504 12.4193 13.8004 12.436C13.7504 12.461 13.7004 12.4776 13.6504 12.486C13.5921 12.4943 13.5337 12.5026 13.4837 12.5026Z" fill="#333548" fill-opacity="0.75"/>
<path d="M7.64998 15.4167C7.54165 15.4167 7.43332 15.3917 7.33332 15.35C7.22498 15.3084 7.14165 15.25 7.05832 15.175C6.90832 15.0167 6.81665 14.8 6.81665 14.5833C6.81665 14.3667 6.90832 14.15 7.05832 13.9917C7.14165 13.9167 7.22498 13.8583 7.33332 13.8167C7.48332 13.75 7.64998 13.7333 7.81665 13.7667C7.86665 13.775 7.91665 13.7917 7.96665 13.8167C8.01665 13.8333 8.06665 13.8584 8.11665 13.8917C8.15832 13.925 8.19998 13.9584 8.24165 13.9917C8.39165 14.15 8.48332 14.3667 8.48332 14.5833C8.48332 14.8 8.39165 15.0167 8.24165 15.175C8.19998 15.2083 8.15832 15.25 8.11665 15.275C8.06665 15.3083 8.01665 15.3334 7.96665 15.35C7.91665 15.375 7.86665 15.3917 7.81665 15.4C7.75832 15.4084 7.70832 15.4167 7.64998 15.4167Z" fill="#333548" fill-opacity="0.75"/>
<path d="M10.5662 15.4141C10.3496 15.4141 10.1329 15.3224 9.97458 15.1724C9.82458 15.014 9.73291 14.7974 9.73291 14.5807C9.73291 14.3641 9.82458 14.1474 9.97458 13.9891C10.2829 13.6807 10.8496 13.6807 11.1579 13.9891C11.3079 14.1474 11.3996 14.3641 11.3996 14.5807C11.3996 14.7974 11.3079 15.014 11.1579 15.1724C10.9996 15.3224 10.7829 15.4141 10.5662 15.4141Z" fill="#333548" fill-opacity="0.75"/>
<path d="M13.4837 15.4141C13.2671 15.4141 13.0504 15.3224 12.8921 15.1724C12.7421 15.014 12.6504 14.7974 12.6504 14.5807C12.6504 14.3641 12.7421 14.1474 12.8921 13.9891C13.2004 13.6807 13.7671 13.6807 14.0754 13.9891C14.2254 14.1474 14.3171 14.3641 14.3171 14.5807C14.3171 14.7974 14.2254 15.014 14.0754 15.1724C13.9171 15.3224 13.7004 15.4141 13.4837 15.4141Z" fill="#333548" fill-opacity="0.75"/>
</svg>
