<svg width="19" height="19" viewBox="0 0 19 19" fill="none" xmlns="http://www.w3.org/2000/svg">
<path opacity="0.4" d="M9.33367 11.2522L6.74492 13.8409C6.45992 13.5876 6.18284 13.3264 5.91367 13.0572C5.09825 12.2339 4.362 11.3709 3.70492 10.4684C3.05575 9.56594 2.53325 8.66344 2.15325 7.76885C1.77325 6.86635 1.58325 6.00344 1.58325 5.1801C1.58325 4.64177 1.67825 4.12719 1.86825 3.65219C2.05825 3.16927 2.35909 2.72594 2.77867 2.3301C3.28534 1.83135 3.8395 1.58594 4.42534 1.58594C4.647 1.58594 4.86867 1.63344 5.06659 1.72844C5.27242 1.82344 5.4545 1.96594 5.597 2.17177L7.43367 4.76052C7.57617 4.95844 7.67908 5.14052 7.75033 5.31469C7.82159 5.48094 7.86117 5.64719 7.86117 5.7976C7.86117 5.9876 7.80575 6.1776 7.69492 6.35969C7.592 6.54177 7.44159 6.73177 7.25159 6.92177L6.64992 7.54719C6.56283 7.63427 6.52325 7.73719 6.52325 7.86385C6.52325 7.92719 6.53117 7.9826 6.547 8.04594C6.57075 8.10927 6.5945 8.15677 6.61034 8.20427C6.75284 8.46552 6.99825 8.80594 7.34658 9.2176C7.70283 9.62927 8.08283 10.0489 8.4945 10.4684C8.7795 10.7455 9.05658 11.0147 9.33367 11.2522Z" fill="#333548" fill-opacity="0.75"/>
<path d="M17.393 14.5134C17.393 14.7351 17.3534 14.9647 17.2743 15.1864C17.2505 15.2497 17.2268 15.313 17.1951 15.3764C17.0605 15.6614 16.8863 15.9305 16.6568 16.1839C16.2688 16.6114 15.8413 16.9201 15.3584 17.118C15.3505 17.118 15.3426 17.1259 15.3347 17.1259C14.8676 17.3159 14.3609 17.4189 13.8147 17.4189C13.0072 17.4189 12.1443 17.2289 11.2338 16.8409C10.3234 16.453 9.41301 15.9305 8.51051 15.2734C8.20176 15.0439 7.89301 14.8143 7.6001 14.5689L10.1888 11.9801C10.4105 12.1464 10.6084 12.273 10.7747 12.3601C10.8143 12.3759 10.8618 12.3997 10.9172 12.4234C10.9805 12.4472 11.0438 12.4551 11.1151 12.4551C11.2497 12.4551 11.3526 12.4076 11.4397 12.3205L12.0413 11.7268C12.2393 11.5289 12.4293 11.3784 12.6113 11.2834C12.7934 11.1726 12.9755 11.1172 13.1734 11.1172C13.3238 11.1172 13.4822 11.1489 13.6563 11.2201C13.8305 11.2914 14.0126 11.3943 14.2105 11.5289L16.8309 13.3893C17.0368 13.5318 17.1793 13.698 17.2663 13.8959C17.3455 14.0939 17.393 14.2918 17.393 14.5134Z" fill="#333548" fill-opacity="0.75"/>
</svg>
