<svg width="24" height="24" viewBox="0 0 24 24" fill="none" xmlns="http://www.w3.org/2000/svg">
<path opacity="0.4" d="M20.4002 16.3269C20.1202 17.0769 19.5302 17.6469 18.7602 17.9069C17.6802 18.2669 16.5702 18.5369 15.4502 18.7269C15.3402 18.7469 15.2302 18.7669 15.1202 18.7769C14.9402 18.8069 14.7602 18.8269 14.5802 18.8469C14.3602 18.8769 14.1302 18.8969 13.9002 18.9169C13.2702 18.9669 12.6502 18.9969 12.0202 18.9969C11.3802 18.9969 10.7402 18.9669 10.1102 18.9069C9.8402 18.8869 9.5802 18.8569 9.3202 18.8169C9.1702 18.7969 9.0202 18.7769 8.8802 18.7569C8.7702 18.7369 8.6602 18.7269 8.5502 18.7069C7.4402 18.5269 6.3402 18.2569 5.2702 17.8969C4.4702 17.6269 3.8602 17.0569 3.5902 16.3269C3.3202 15.6069 3.4202 14.7669 3.8502 14.0469L4.9802 12.1669C5.2202 11.7569 5.4402 10.9669 5.4402 10.4869V8.62687C5.4402 4.99687 8.3902 2.04688 12.0202 2.04688C15.6402 2.04688 18.5902 4.99687 18.5902 8.62687V10.4869C18.5902 10.9669 18.8102 11.7569 19.0602 12.1669L20.1902 14.0469C20.6002 14.7469 20.6802 15.5669 20.4002 16.3269Z" fill="#2E37A4"/>
<path d="M12.0002 10.7606C11.5802 10.7606 11.2402 10.4206 11.2402 10.0006V6.90063C11.2402 6.48063 11.5802 6.14062 12.0002 6.14062C12.4202 6.14062 12.7602 6.48063 12.7602 6.90063V10.0006C12.7502 10.4206 12.4102 10.7606 12.0002 10.7606Z" fill="#2E37A4"/>
<path d="M14.8297 20.01C14.4097 21.17 13.2997 22 11.9997 22C11.2097 22 10.4297 21.68 9.87969 21.11C9.55969 20.81 9.31969 20.41 9.17969 20C9.30969 20.02 9.43969 20.03 9.57969 20.05C9.80969 20.08 10.0497 20.11 10.2897 20.13C10.8597 20.18 11.4397 20.21 12.0197 20.21C12.5897 20.21 13.1597 20.18 13.7197 20.13C13.9297 20.11 14.1397 20.1 14.3397 20.07C14.4997 20.05 14.6597 20.03 14.8297 20.01Z" fill="#2E37A4"/>
</svg>
