<svg width="25" height="25" viewBox="0 0 25 25" fill="none" xmlns="http://www.w3.org/2000/svg">
<path opacity="0.4" d="M17.708 21.3568H7.29134C4.16634 21.3568 2.08301 19.7943 2.08301 16.1484V8.85677C2.08301 5.21094 4.16634 3.64844 7.29134 3.64844H17.708C20.833 3.64844 22.9163 5.21094 22.9163 8.85677V16.1484C22.9163 19.7943 20.833 21.3568 17.708 21.3568Z" fill="#2E37A4"/>
<path d="M12.5 13.4045C11.625 13.4045 10.7396 13.1337 10.0625 12.5816L6.80205 9.97743C6.46872 9.70659 6.40623 9.21701 6.67706 8.88368C6.94789 8.55034 7.43748 8.48785 7.77081 8.75868L11.0312 11.3628C11.8229 11.9983 13.1666 11.9983 13.9583 11.3628L17.2187 8.75868C17.5521 8.48785 18.0521 8.53993 18.3125 8.88368C18.5833 9.21701 18.5312 9.71701 18.1875 9.97743L14.9271 12.5816C14.2604 13.1337 13.375 13.4045 12.5 13.4045Z" fill="#2E37A4"/>
</svg>
