<svg width="25" height="26" viewBox="0 0 25 26" fill="none" xmlns="http://www.w3.org/2000/svg">
<path d="M22.0679 17.9447V6.80319L15.7647 0.5H5.11866C4.6692 0.5 4.23807 0.678573 3.9201 0.996372C3.6023 1.31436 3.42373 1.74548 3.42373 2.19493V16.4924C3.29529 16.5661 3.18841 16.6723 3.11407 16.8005C3.03972 16.9286 3.00038 17.0739 3 17.222V23.3813C3.00076 23.943 3.22416 24.4815 3.62122 24.8788C4.01846 25.2758 4.55701 25.4992 5.11866 25.5H20.373C20.9347 25.4992 21.4732 25.2758 21.8704 24.8788C22.2675 24.4815 22.4909 23.943 22.4917 23.3813V18.6749C22.4913 18.5268 22.4521 18.3813 22.3776 18.253C22.3032 18.125 22.1964 18.0184 22.0679 17.9447ZM21.2202 17.827H11.9344L10.9175 16.6635C10.7565 16.4796 10.524 16.374 10.2796 16.374H4.27086V2.19427C4.27086 1.96954 4.36014 1.75389 4.51904 1.59499C4.67794 1.43609 4.89359 1.34681 5.11832 1.34681H15.1649V5.70708C15.1649 6.15653 15.3435 6.58766 15.6614 6.90544C15.9792 7.22343 16.4104 7.402 16.8598 7.402H21.2201L21.2202 17.827Z" fill="#2E37A4"/>
<path d="M9.25293 12.5703H10.2021C10.1865 12.8633 10.1064 13.1221 9.96191 13.3467C9.81934 13.5693 9.62109 13.7441 9.36719 13.8711C9.11328 13.9961 8.81152 14.0586 8.46191 14.0586C8.18262 14.0586 7.93262 14.0107 7.71191 13.915C7.49121 13.8193 7.30371 13.6826 7.14941 13.5049C6.99707 13.3252 6.87988 13.1094 6.79785 12.8574C6.71777 12.6035 6.67773 12.3174 6.67773 11.999V11.7383C6.67773 11.4199 6.71973 11.1338 6.80371 10.8799C6.8877 10.626 7.00781 10.4092 7.16406 10.2295C7.32031 10.0498 7.50781 9.91211 7.72656 9.81641C7.94531 9.7207 8.18945 9.67285 8.45898 9.67285C8.82227 9.67285 9.12891 9.73828 9.37891 9.86914C9.62891 10 9.82227 10.1797 9.95898 10.4082C10.0977 10.6367 10.1807 10.8975 10.208 11.1904H9.25586C9.24805 11.0244 9.2168 10.8848 9.16211 10.7715C9.10742 10.6562 9.02344 10.5693 8.91016 10.5107C8.79688 10.4521 8.64648 10.4229 8.45898 10.4229C8.32227 10.4229 8.20215 10.4482 8.09863 10.499C7.99707 10.5498 7.91211 10.6289 7.84375 10.7363C7.77734 10.8438 7.72754 10.9805 7.69434 11.1465C7.66113 11.3105 7.64453 11.5059 7.64453 11.7324V11.999C7.64453 12.2236 7.65918 12.418 7.68848 12.582C7.71777 12.7461 7.76465 12.8818 7.8291 12.9893C7.89551 13.0967 7.98047 13.1768 8.08398 13.2295C8.1875 13.2822 8.31348 13.3086 8.46191 13.3086C8.63184 13.3086 8.77344 13.2822 8.88672 13.2295C9 13.1748 9.08691 13.0928 9.14746 12.9834C9.20801 12.874 9.24316 12.7363 9.25293 12.5703ZM12.9443 12.875C12.9443 12.8027 12.9336 12.7383 12.9121 12.6816C12.8906 12.623 12.8516 12.5693 12.7949 12.5205C12.7383 12.4717 12.6582 12.4229 12.5547 12.374C12.4512 12.3232 12.3154 12.2715 12.1475 12.2188C11.9561 12.1562 11.7734 12.0859 11.5996 12.0078C11.4277 11.9277 11.2744 11.835 11.1396 11.7295C11.0049 11.624 10.8984 11.501 10.8203 11.3604C10.7441 11.2197 10.7061 11.0557 10.7061 10.8682C10.7061 10.6865 10.7461 10.5225 10.8262 10.376C10.9062 10.2295 11.0186 10.1045 11.1631 10.001C11.3076 9.89551 11.4775 9.81543 11.6729 9.76074C11.8682 9.7041 12.083 9.67578 12.3174 9.67578C12.6299 9.67578 12.9043 9.73145 13.1406 9.84277C13.3789 9.95215 13.5645 10.1064 13.6973 10.3057C13.8301 10.5029 13.8965 10.7324 13.8965 10.9941H12.9473C12.9473 10.8789 12.9229 10.7773 12.874 10.6895C12.8271 10.5996 12.7549 10.5293 12.6572 10.4785C12.5615 10.4277 12.4414 10.4023 12.2969 10.4023C12.1562 10.4023 12.0381 10.4238 11.9424 10.4668C11.8486 10.5078 11.7773 10.5645 11.7285 10.6367C11.6816 10.709 11.6582 10.7881 11.6582 10.874C11.6582 10.9424 11.6758 11.0049 11.7109 11.0615C11.748 11.1162 11.8008 11.168 11.8691 11.2168C11.9395 11.2637 12.0254 11.3086 12.127 11.3516C12.2285 11.3945 12.3447 11.4355 12.4756 11.4746C12.7041 11.5469 12.9062 11.627 13.082 11.7148C13.2598 11.8027 13.4092 11.9023 13.5303 12.0137C13.6514 12.125 13.7422 12.251 13.8027 12.3916C13.8652 12.5322 13.8965 12.6914 13.8965 12.8691C13.8965 13.0586 13.8594 13.2266 13.7852 13.373C13.7129 13.5195 13.6074 13.6445 13.4688 13.748C13.332 13.8496 13.168 13.9268 12.9766 13.9795C12.7852 14.0322 12.5713 14.0586 12.335 14.0586C12.1201 14.0586 11.9082 14.0312 11.6992 13.9766C11.4902 13.9199 11.3008 13.834 11.1309 13.7188C10.9629 13.6035 10.8281 13.457 10.7266 13.2793C10.627 13.0996 10.5771 12.8867 10.5771 12.6406H11.5322C11.5322 12.7695 11.5508 12.8789 11.5879 12.9688C11.625 13.0566 11.6777 13.1279 11.7461 13.1826C11.8164 13.2373 11.9014 13.2764 12.001 13.2998C12.1006 13.3232 12.2119 13.335 12.335 13.335C12.4775 13.335 12.5928 13.3154 12.6807 13.2764C12.7705 13.2354 12.8369 13.1797 12.8799 13.1094C12.9229 13.0391 12.9443 12.9609 12.9443 12.875ZM16.0352 13.0537L16.9844 9.73438H18.0479L16.5859 14H15.8916L16.0352 13.0537ZM15.1709 9.73438L16.1172 13.0537L16.2666 14H15.5635L14.1104 9.73438H15.1709Z" fill="#2E37A4"/>
</svg>
