<svg width="25" height="26" viewBox="0 0 25 26" fill="none" xmlns="http://www.w3.org/2000/svg">
<path d="M22.0679 17.9447V6.80319L15.7647 0.5H5.11866C4.6692 0.5 4.23807 0.678573 3.9201 0.996372C3.6023 1.31436 3.42373 1.74548 3.42373 2.19493V16.4924C3.29529 16.5661 3.18841 16.6723 3.11407 16.8005C3.03972 16.9286 3.00038 17.0739 3 17.222V23.3813C3.00076 23.943 3.22416 24.4815 3.62122 24.8788C4.01846 25.2758 4.55701 25.4992 5.11866 25.5H20.373C20.9347 25.4992 21.4732 25.2758 21.8704 24.8788C22.2675 24.4815 22.4909 23.943 22.4917 23.3813V18.6749C22.4913 18.5268 22.4521 18.3813 22.3776 18.253C22.3032 18.125 22.1964 18.0184 22.0679 17.9447ZM21.2202 17.827H11.9344L10.9175 16.6635C10.7565 16.4796 10.524 16.374 10.2796 16.374H4.27086V2.19427C4.27086 1.96954 4.36014 1.75389 4.51904 1.59499C4.67794 1.43609 4.89359 1.34681 5.11832 1.34681H15.1649V5.70708C15.1649 6.15653 15.3435 6.58766 15.6614 6.90544C15.9792 7.22343 16.4104 7.402 16.8598 7.402H21.2201L21.2202 17.827Z" fill="#FF3667"/>
<path d="M8.74902 12.5176H7.67676V11.7764H8.74902C8.90723 11.7764 9.03418 11.75 9.12988 11.6973C9.22754 11.6445 9.29883 11.5723 9.34375 11.4805C9.39062 11.3867 9.41406 11.2812 9.41406 11.1641C9.41406 11.043 9.39062 10.9307 9.34375 10.8271C9.29883 10.7217 9.22754 10.6367 9.12988 10.5723C9.03418 10.5078 8.90723 10.4756 8.74902 10.4756H8.02246V14H7.06738V9.73438H8.74902C9.08887 9.73438 9.37988 9.7959 9.62207 9.91895C9.86621 10.042 10.0527 10.2109 10.1816 10.4258C10.3125 10.6387 10.3779 10.8828 10.3779 11.1582C10.3779 11.4336 10.3125 11.6729 10.1816 11.876C10.0527 12.0791 9.86621 12.2373 9.62207 12.3506C9.37988 12.4619 9.08887 12.5176 8.74902 12.5176ZM12.3086 14H11.3711L11.377 13.2617H12.3086C12.5215 13.2617 12.7012 13.2129 12.8477 13.1152C12.9941 13.0156 13.1055 12.8691 13.1816 12.6758C13.2578 12.4805 13.2959 12.2432 13.2959 11.9639V11.7676C13.2959 11.5566 13.2744 11.3711 13.2314 11.2109C13.1885 11.0488 13.125 10.9131 13.041 10.8037C12.957 10.6943 12.8525 10.6123 12.7275 10.5576C12.6045 10.5029 12.4629 10.4756 12.3027 10.4756H11.3535V9.73438H12.3027C12.5918 9.73438 12.8555 9.7832 13.0938 9.88086C13.334 9.97852 13.541 10.1182 13.7148 10.2998C13.8906 10.4814 14.0264 10.6963 14.1221 10.9443C14.2178 11.1924 14.2656 11.4688 14.2656 11.7734V11.9639C14.2656 12.2666 14.2178 12.543 14.1221 12.793C14.0264 13.041 13.8906 13.2559 13.7148 13.4375C13.541 13.6172 13.335 13.7559 13.0967 13.8535C12.8584 13.9512 12.5957 14 12.3086 14ZM11.9131 9.73438V14H10.958V9.73438H11.9131ZM15.8037 9.73438V14H14.8486V9.73438H15.8037ZM17.4824 11.5332V12.2715H15.5371V11.5332H17.4824ZM17.6699 9.73438V10.4756H15.5371V9.73438H17.6699Z" fill="#FF3667"/>
</svg>
