<svg width="25" height="26" viewBox="0 0 25 26" fill="none" xmlns="http://www.w3.org/2000/svg">
<path d="M22.0679 17.9447V6.80319L15.7647 0.5H5.11866C4.6692 0.5 4.23807 0.678573 3.9201 0.996372C3.6023 1.31436 3.42373 1.74548 3.42373 2.19493V16.4924C3.29529 16.5661 3.18841 16.6723 3.11407 16.8005C3.03972 16.9286 3.00038 17.0739 3 17.222V23.3813C3.00076 23.943 3.22416 24.4815 3.62122 24.8788C4.01846 25.2758 4.55701 25.4992 5.11866 25.5H20.373C20.9347 25.4992 21.4732 25.2758 21.8704 24.8788C22.2675 24.4815 22.4909 23.943 22.4917 23.3813V18.6749C22.4913 18.5268 22.4521 18.3813 22.3776 18.253C22.3032 18.125 22.1964 18.0184 22.0679 17.9447ZM21.2202 17.827H11.9344L10.9175 16.6635C10.7565 16.4796 10.524 16.374 10.2796 16.374H4.27086V2.19427C4.27086 1.96954 4.36014 1.75389 4.51904 1.59499C4.67794 1.43609 4.89359 1.34681 5.11832 1.34681H15.1649V5.70708C15.1649 6.15653 15.3435 6.58766 15.6614 6.90544C15.9792 7.22343 16.4104 7.402 16.8598 7.402H21.2201L21.2202 17.827Z" fill="#00D3C7"/>
<path d="M6.35059 9.73438L7.10059 11.1875L7.85059 9.73438H8.94043L7.72754 11.8496L8.97266 14H7.87402L7.10059 12.5205L6.33008 14H5.22852L6.47656 11.8496L5.26074 9.73438H6.35059ZM12.1455 13.2617V14H9.99219V13.2617H12.1455ZM10.3174 9.73438V14H9.3623V9.73438H10.3174ZM14.8262 12.875C14.8262 12.8027 14.8154 12.7383 14.7939 12.6816C14.7725 12.623 14.7334 12.5693 14.6768 12.5205C14.6201 12.4717 14.54 12.4229 14.4365 12.374C14.333 12.3232 14.1973 12.2715 14.0293 12.2188C13.8379 12.1562 13.6553 12.0859 13.4814 12.0078C13.3096 11.9277 13.1562 11.835 13.0215 11.7295C12.8867 11.624 12.7803 11.501 12.7021 11.3604C12.626 11.2197 12.5879 11.0557 12.5879 10.8682C12.5879 10.6865 12.6279 10.5225 12.708 10.376C12.7881 10.2295 12.9004 10.1045 13.0449 10.001C13.1895 9.89551 13.3594 9.81543 13.5547 9.76074C13.75 9.7041 13.9648 9.67578 14.1992 9.67578C14.5117 9.67578 14.7861 9.73145 15.0225 9.84277C15.2607 9.95215 15.4463 10.1064 15.5791 10.3057C15.7119 10.5029 15.7783 10.7324 15.7783 10.9941H14.8291C14.8291 10.8789 14.8047 10.7773 14.7559 10.6895C14.709 10.5996 14.6367 10.5293 14.5391 10.4785C14.4434 10.4277 14.3232 10.4023 14.1787 10.4023C14.0381 10.4023 13.9199 10.4238 13.8242 10.4668C13.7305 10.5078 13.6592 10.5645 13.6104 10.6367C13.5635 10.709 13.54 10.7881 13.54 10.874C13.54 10.9424 13.5576 11.0049 13.5928 11.0615C13.6299 11.1162 13.6826 11.168 13.751 11.2168C13.8213 11.2637 13.9072 11.3086 14.0088 11.3516C14.1104 11.3945 14.2266 11.4355 14.3574 11.4746C14.5859 11.5469 14.7881 11.627 14.9639 11.7148C15.1416 11.8027 15.291 11.9023 15.4121 12.0137C15.5332 12.125 15.624 12.251 15.6846 12.3916C15.7471 12.5322 15.7783 12.6914 15.7783 12.8691C15.7783 13.0586 15.7412 13.2266 15.667 13.373C15.5947 13.5195 15.4893 13.6445 15.3506 13.748C15.2139 13.8496 15.0498 13.9268 14.8584 13.9795C14.667 14.0322 14.4531 14.0586 14.2168 14.0586C14.002 14.0586 13.79 14.0312 13.5811 13.9766C13.3721 13.9199 13.1826 13.834 13.0127 13.7188C12.8447 13.6035 12.71 13.457 12.6084 13.2793C12.5088 13.0996 12.459 12.8867 12.459 12.6406H13.4141C13.4141 12.7695 13.4326 12.8789 13.4697 12.9688C13.5068 13.0566 13.5596 13.1279 13.6279 13.1826C13.6982 13.2373 13.7832 13.2764 13.8828 13.2998C13.9824 13.3232 14.0938 13.335 14.2168 13.335C14.3594 13.335 14.4746 13.3154 14.5625 13.2764C14.6523 13.2354 14.7188 13.1797 14.7617 13.1094C14.8047 13.0391 14.8262 12.9609 14.8262 12.875ZM17.1494 9.73438L17.8994 11.1875L18.6494 9.73438H19.7393L18.5264 11.8496L19.7715 14H18.6729L17.8994 12.5205L17.1289 14H16.0273L17.2754 11.8496L16.0596 9.73438H17.1494Z" fill="#00D3C7"/>
</svg>
