<svg width="15" height="15" viewBox="0 0 15 15" fill="none" xmlns="http://www.w3.org/2000/svg">
<path d="M14.1567 6.6875C13.6904 6.6875 13.324 7.0539 13.324 7.52022C13.3129 9.07463 12.7133 10.5291 11.6252 11.6172C10.526 12.7164 9.06047 13.327 7.50606 13.327C5.95165 13.327 4.48604 12.7164 3.38685 11.6172C3.35354 11.5839 3.33135 11.5506 3.29804 11.5173H4.21957C4.67479 11.5173 5.05229 11.1398 5.05229 10.6846C5.05229 10.2293 4.67479 9.85183 4.21957 9.85183H1.2773C0.82208 9.85183 0.44458 10.2293 0.44458 10.6846V13.6268C0.44458 14.082 0.82208 14.4595 1.2773 14.4595C1.73252 14.4595 2.11002 14.082 2.11002 13.6268V12.6831C2.14333 12.7164 2.17663 12.7608 2.20994 12.8052C3.62001 14.2153 5.50753 15.0036 7.50606 15.0036C9.50458 15.0036 11.3921 14.2264 12.8021 12.8052C14.2011 11.4062 14.9783 9.52985 14.9894 7.53132C14.9894 7.065 14.6119 6.6986 14.1567 6.6875Z" fill="#2E37A4"/>
<path d="M0.832965 8.21616C1.28819 8.21616 1.65458 7.84977 1.66568 7.39455C1.68789 5.87345 2.29855 4.44117 3.36443 3.36419C4.46362 2.265 5.9292 1.65434 7.48361 1.65434C9.03802 1.65434 10.5036 2.265 11.6028 3.36419C11.6361 3.39749 11.6583 3.4308 11.6916 3.46411H10.7701C10.3149 3.46411 9.93738 3.84161 9.93738 4.29683C9.93738 4.75205 10.3149 5.12955 10.7701 5.12955H13.7124C14.1676 5.12955 14.5451 4.75205 14.5451 4.29683V1.36566C14.5451 0.91044 14.1676 0.53294 13.7124 0.53294C13.2571 0.53294 12.8796 0.91044 12.8796 1.36566V2.32051C12.8463 2.2872 12.813 2.24279 12.7797 2.19838C11.3697 0.788308 9.48213 0 7.48361 0C5.48508 0 3.59759 0.777205 2.18752 2.19838C0.799658 3.57514 0.0224517 5.41823 0.000245814 7.37234C-0.0108571 7.82756 0.355529 8.20506 0.821851 8.21616C0.832954 8.21616 0.832965 8.21616 0.832965 8.21616Z" fill="#2E37A4"/>
</svg>
