<svg width="15" height="15" viewBox="0 0 15 15" fill="none" xmlns="http://www.w3.org/2000/svg">
<path d="M14.1567 6.68359C13.6904 6.68359 13.324 7.04999 13.324 7.51631C13.3129 9.07072 12.7133 10.5252 11.6252 11.6133C10.526 12.7125 9.06047 13.3231 7.50606 13.3231C5.95165 13.3231 4.48604 12.7125 3.38685 11.6133C3.35354 11.58 3.33135 11.5467 3.29804 11.5134H4.21957C4.67479 11.5134 5.05229 11.1359 5.05229 10.6806C5.05229 10.2254 4.67479 9.84793 4.21957 9.84793H1.2773C0.82208 9.84793 0.44458 10.2254 0.44458 10.6806V13.6229C0.44458 14.0781 0.82208 14.4556 1.2773 14.4556C1.73252 14.4556 2.11002 14.0781 2.11002 13.6229V12.6792C2.14333 12.7125 2.17663 12.7569 2.20994 12.8013C3.62001 14.2114 5.50753 14.9997 7.50606 14.9997C9.50458 14.9997 11.3921 14.2225 12.8021 12.8013C14.2011 11.4023 14.9783 9.52594 14.9894 7.52742C14.9894 7.06109 14.6119 6.6947 14.1567 6.68359Z" fill="#234CE3"/>
<path d="M0.832965 8.21616C1.28819 8.21616 1.65458 7.84977 1.66568 7.39455C1.68789 5.87345 2.29855 4.44117 3.36443 3.36419C4.46362 2.265 5.9292 1.65434 7.48361 1.65434C9.03802 1.65434 10.5036 2.265 11.6028 3.36419C11.6361 3.39749 11.6583 3.4308 11.6916 3.46411H10.7701C10.3149 3.46411 9.93738 3.84161 9.93738 4.29683C9.93738 4.75205 10.3149 5.12955 10.7701 5.12955H13.7124C14.1676 5.12955 14.5451 4.75205 14.5451 4.29683V1.36566C14.5451 0.91044 14.1676 0.53294 13.7124 0.53294C13.2571 0.53294 12.8796 0.91044 12.8796 1.36566V2.32051C12.8463 2.2872 12.813 2.24279 12.7797 2.19838C11.3697 0.788308 9.48213 0 7.48361 0C5.48508 0 3.59759 0.777205 2.18752 2.19838C0.799658 3.57514 0.0224517 5.41823 0.000245814 7.37234C-0.0108571 7.82756 0.355529 8.20506 0.821851 8.21616C0.832954 8.21616 0.832965 8.21616 0.832965 8.21616Z" fill="#234CE3"/>
</svg>
