<svg width="38" height="39" viewBox="0 0 38 39" fill="none" xmlns="http://www.w3.org/2000/svg">
<path d="M19.0913 12.6944V2" stroke="#2E37A4" stroke-width="3" stroke-linecap="round" stroke-linejoin="round"/>
<path d="M19.0913 36.9991V26.3047" stroke="#2E37A4" stroke-width="3" stroke-linecap="round" stroke-linejoin="round"/>
<path d="M15.2031 2H22.9809" stroke="#2E37A4" stroke-width="3" stroke-linecap="round" stroke-linejoin="round"/>
<path d="M15.2031 37H22.9809" stroke="#2E37A4" stroke-width="3" stroke-linecap="round" stroke-linejoin="round"/>
<path d="M13.1994 16.0972L3.94385 10.75" stroke="#2E37A4" stroke-width="3" stroke-linecap="round" stroke-linejoin="round"/>
<path d="M34.2385 28.2535L24.9829 22.9062" stroke="#2E37A4" stroke-width="3" stroke-linecap="round" stroke-linejoin="round"/>
<path d="M2 14.1106L5.88889 7.38281" stroke="#2E37A4" stroke-width="3" stroke-linecap="round" stroke-linejoin="round"/>
<path d="M32.2944 31.6106L36.1833 24.8828" stroke="#2E37A4" stroke-width="3" stroke-linecap="round" stroke-linejoin="round"/>
<path d="M34.2385 10.75L24.9829 16.0972" stroke="#2E37A4" stroke-width="3" stroke-linecap="round" stroke-linejoin="round"/>
<path d="M13.1994 22.9062L3.94385 28.2535" stroke="#2E37A4" stroke-width="3" stroke-linecap="round" stroke-linejoin="round"/>
<path d="M36.1833 14.1106L32.2944 7.38281" stroke="#2E37A4" stroke-width="3" stroke-linecap="round" stroke-linejoin="round"/>
<path d="M5.88889 31.6106L2 24.8828" stroke="#2E37A4" stroke-width="3" stroke-linecap="round" stroke-linejoin="round"/>
<path d="M25.8972 19.5009C25.8972 20.7453 25.5667 21.8925 24.9834 22.9036C23.7972 24.9453 21.6 26.3064 19.0917 26.3064C16.5834 26.3064 14.3861 24.9453 13.2 22.9036C12.6167 21.8925 12.2861 20.7453 12.2861 19.5009C12.2861 18.2564 12.6167 17.1092 13.2 16.0981C14.3861 14.0564 16.5834 12.6953 19.0917 12.6953C21.6 12.6953 23.7972 14.0564 24.9834 16.0981C25.5667 17.1092 25.8972 18.2564 25.8972 19.5009Z" stroke="#00D3C7" stroke-width="3" stroke-linecap="round" stroke-linejoin="round"/>
</svg>
