<svg width="50" height="50" viewBox="0 0 50 50" fill="none" xmlns="http://www.w3.org/2000/svg">
<path d="M23.8267 42.1L23.8267 42.0998C21.2553 41.9376 18.7832 41.0474 16.6986 39.5335C14.6142 38.0198 13.0032 35.945 12.0531 33.5507C11.0001 31.0788 10.6589 28.362 11.0682 25.7067C11.4773 23.051 12.6208 20.5624 14.3695 18.5224L23.9194 7.3725L23.8267 42.1ZM23.8267 42.1H23.833H24.9454H26.0578V42.1002L26.064 42.0998C28.6312 41.9407 31.1002 41.0564 33.1845 39.5495C35.2684 38.0429 36.882 35.9756 37.8377 33.5883M23.8267 42.1L37.8377 33.5883M37.8377 33.5883C38.8982 31.1118 39.2437 28.3875 38.8343 25.7249C38.425 23.0617 37.2774 20.5662 35.5215 18.5224L37.8377 33.5883ZM24.9455 6.9C25.3402 6.9 25.7151 7.07264 25.9715 7.37245L24.9455 6.9ZM24.9455 6.9C24.5508 6.9 24.1759 7.07264 23.9195 7.37245L24.9455 6.9ZM35.5214 18.5223L25.9715 7.3725L35.5214 18.5223ZM35.3535 32.5111L35.3525 32.5134C34.5886 34.4416 33.2922 36.1127 31.6144 37.3324C29.9367 38.5517 27.9469 39.2688 25.8768 39.4002L25.8763 39.4002C25.2525 39.4429 24.6265 39.4429 24.0024 39.4002L24.002 39.4002C21.9344 39.2667 19.947 38.5484 18.2715 37.329C16.5963 36.1097 15.3017 34.4397 14.5386 32.5131L14.5387 32.5131L14.5376 32.5107C13.6777 30.4999 13.3972 28.2889 13.7281 26.1271L13.6292 26.1119L13.7281 26.127C14.0587 23.9653 14.9874 21.9393 16.4091 20.2777L24.9331 10.3661L33.4572 20.2778C33.4573 20.2778 33.4573 20.2779 33.4573 20.2779C34.8829 21.937 35.8166 23.9619 36.1516 26.1236C36.4866 28.2854 36.2101 30.4981 35.3535 32.5111Z" fill="#2E37A4" stroke="#2E37A4" stroke-width="0.2"/>
<path d="M20.2306 31.7147L20.2306 31.7147C19.3116 30.7959 18.7953 29.5496 18.7953 28.25C18.7953 27.7676 18.538 27.3219 18.1203 27.0808C17.7026 26.8397 17.188 26.8397 16.7703 27.0808C16.3526 27.3219 16.0953 27.7675 16.0953 28.25C16.0953 30.2656 16.8961 32.1986 18.3213 33.6239C19.7466 35.0493 21.6796 35.8499 23.6953 35.8499C24.0533 35.8499 24.3968 35.7077 24.6499 35.4546C24.903 35.2015 25.0453 34.8579 25.0453 34.5C25.0453 34.142 24.903 33.7984 24.6499 33.5453C24.3968 33.2922 24.0533 33.15 23.6953 33.15C22.3957 33.15 21.1493 32.6337 20.2306 31.7147Z" fill="#00D3C7" stroke="#00D3C7" stroke-width="0.2"/>
</svg>
