<svg width="44" height="40" viewBox="0 0 44 40" fill="none" xmlns="http://www.w3.org/2000/svg">
<path d="M4.23602 4.55877C-0.382972 9.57104 -0.441522 17.6062 4.23772 22.5831L19.4954 38.8305C19.4957 38.8307 19.496 38.831 19.4962 38.8313C19.7431 39.0983 20.0907 39.25 20.4542 39.25C20.8181 39.25 21.1653 39.0982 21.4124 38.8315C21.4127 38.8312 21.4129 38.8309 21.4132 38.8306L27.3752 32.4731C27.6478 32.2307 27.8066 31.8853 27.8129 31.5203L27.563 31.516L27.8129 31.5207C27.8198 31.1511 27.6694 30.7963 27.3995 30.5437L27.3995 30.5437C27.1297 30.2913 26.7654 30.1652 26.3976 30.1961C26.034 30.2267 25.7 30.4084 25.4765 30.6957L20.4542 36.0358L6.13686 20.8063L5.95471 20.9775L6.13685 20.8063C2.43389 16.8677 2.474 10.3279 6.15512 6.33355L6.15514 6.33353C7.9943 4.3374 10.3456 3.36237 12.685 3.36237C15.0224 3.36237 17.3945 4.33452 19.5565 6.39442L19.5571 6.39498C20.0607 6.87171 20.849 6.87183 21.3523 6.39489L21.3528 6.39442C23.5148 4.33452 25.8869 3.36237 28.2243 3.36237C30.5641 3.36237 32.915 4.33739 34.7546 6.33354L34.9384 6.16413L34.7546 6.33355C36.341 8.05488 37.2682 10.2336 37.4929 12.496C37.4997 12.8571 37.656 13.1993 37.9244 13.4412C38.196 13.6859 38.5576 13.8051 38.9212 13.771L38.9215 13.771C39.2847 13.7364 39.6176 13.5516 39.8385 13.2605C40.0573 12.9723 40.1465 12.6063 40.0854 12.2502C39.8088 9.45597 38.6674 6.72399 36.6728 4.55941L36.489 4.72882L36.6728 4.55939C34.3622 2.05226 31.3002 0.750631 28.2244 0.750631C25.4913 0.750631 22.8161 1.82135 20.4547 3.76036C18.0933 1.82134 15.4172 0.75 12.6841 0.75C9.60826 0.75 6.54637 2.05152 4.23602 4.55877ZM4.23602 4.55877L4.41986 4.72818L4.23602 4.55877Z" fill="#2E37A4" stroke="#2E37A4" stroke-width="0.5"/>
<path d="M32.1451 10.5356L32.1451 10.5357C32.7722 10.4842 33.347 10.8872 33.5123 11.4943L33.5127 11.4955L35.3106 18.2383H42.1774C42.5259 18.2342 42.8621 18.3693 43.1107 18.6143L43.1109 18.6145C43.3594 18.8598 43.4997 19.1945 43.4997 19.5443C43.4997 19.8937 43.3595 20.2287 43.1109 20.4741L43.1106 20.4744C42.8622 20.7188 42.5261 20.8545 42.1773 20.85H34.3107H34.3102V20.6C33.8333 20.6022 33.4143 20.2844 33.2876 19.8245L32.1451 10.5356ZM32.1451 10.5356L32.1431 10.5358C31.5993 10.585 31.1435 10.9676 31.0005 11.4944L31.0002 11.4953L28.1404 22.1903L27.3437 19.218C27.3436 19.2176 27.3435 19.2172 27.3434 19.2169C27.1941 18.6404 26.6738 18.2385 26.0787 18.2385H18.2114C17.8631 18.2344 17.5269 18.3694 17.2785 18.6146C17.0295 18.86 16.8892 19.1947 16.8892 19.5445C16.8892 19.8939 17.0294 20.2291 17.2785 20.4745L17.454 20.2964L17.2785 20.4745C17.5266 20.719 17.8628 20.8547 18.2116 20.8502H25.0783L26.8756 27.5908C26.8757 27.5911 26.8758 27.5915 26.8759 27.5918C27.0247 28.1686 27.5448 28.572 28.1407 28.572C28.7366 28.572 29.2567 28.1685 29.4055 27.5918C29.4056 27.5914 29.4057 27.5911 29.4057 27.5908L32.2486 16.9023L32.1451 10.5356Z" fill="#00D3C7" stroke="#00D3C7" stroke-width="0.5"/>
</svg>
