<svg width="24" height="24" viewBox="0 0 24 24" fill="none" xmlns="http://www.w3.org/2000/svg">
<path opacity="0.4" d="M14.79 4H9.21004C4.79004 4 4.79004 6.35 4.79004 8.42V12.21C4.79004 12.43 4.89004 12.63 5.06004 12.76C5.23004 12.89 5.46004 12.94 5.67004 12.88C6.12004 12.76 6.68004 12.7 7.35004 12.7C8.02004 12.7 8.16004 12.78 8.56004 13.08L9.47004 14.04C10.12 14.74 11.05 15.14 12.01 15.14C12.97 15.14 13.89 14.74 14.55 14.04L15.46 13.08C15.86 12.78 16 12.7 16.67 12.7C17.34 12.7 17.9 12.76 18.35 12.88C18.56 12.94 18.78 12.89 18.96 12.76C19.13 12.63 19.23 12.42 19.23 12.21V8.42C19.21 6.35 19.21 4 14.79 4Z" fill="#333448"/>
<path d="M14.275 4.94219C14.015 5.20219 13.585 5.20219 13.325 4.94219L12.675 4.29219V9.07219C12.675 9.44219 12.365 9.74219 11.995 9.74219C11.625 9.74219 11.315 9.44219 11.315 9.07219V4.30219L10.675 4.94219C10.415 5.20219 9.98503 5.20219 9.72503 4.94219C9.46503 4.68219 9.46503 4.25219 9.72503 3.99219L11.525 2.19219C11.535 2.18219 11.535 2.18219 11.545 2.18219C11.605 2.13219 11.665 2.08219 11.745 2.05219C11.825 2.02219 11.915 2.00219 12.005 2.00219C12.095 2.00219 12.175 2.02219 12.265 2.05219C12.345 2.08219 12.425 2.13219 12.485 2.20219L14.285 4.00219C14.535 4.25219 14.535 4.68219 14.275 4.94219Z" fill="#333448"/>
<path d="M18.6899 11.5269C18.1199 11.3769 17.4499 11.2969 16.6499 11.2969C15.5399 11.2969 15.1299 11.5669 14.5599 11.9969C14.5299 12.0169 14.4999 12.0469 14.4699 12.0769L13.5199 13.0869C12.7199 13.9269 11.2799 13.9369 10.4799 13.0769L9.52993 12.0769C9.49993 12.0469 9.46993 12.0169 9.43993 11.9969C8.86993 11.5669 8.45993 11.2969 7.34993 11.2969C6.54993 11.2969 5.87993 11.3769 5.30993 11.5269C2.92993 12.1669 2.92993 14.0569 2.92993 15.7169V16.6469C2.92993 19.1569 2.92993 21.9969 8.27993 21.9969H15.7199C19.2699 21.9969 21.0699 20.1969 21.0699 16.6469V15.7169C21.0699 14.0569 21.0699 12.1669 18.6899 11.5269ZM14.3299 18.3969H9.66993C9.28993 18.3969 8.97993 18.0869 8.97993 17.6969C8.97993 17.3069 9.28993 16.9969 9.66993 16.9969H14.3299C14.7099 16.9969 15.0199 17.3069 15.0199 17.6969C15.0199 18.0869 14.7099 18.3969 14.3299 18.3969Z" fill="#333448"/>
<path opacity="0.4" d="M15.02 17.7C15.02 18.09 14.71 18.4 14.33 18.4H9.66998C9.28998 18.4 8.97998 18.09 8.97998 17.7C8.97998 17.31 9.28998 17 9.66998 17H14.33C14.71 17 15.02 17.31 15.02 17.7Z" fill="#333448"/>
</svg>
