<svg width="15" height="15" viewBox="0 0 15 15" fill="none" xmlns="http://www.w3.org/2000/svg">
<path d="M7.5 1.35059C9.50391 1.35059 9.74121 1.35937 10.5293 1.39453C11.2617 1.42676 11.6572 1.5498 11.9209 1.65234C12.2695 1.78711 12.5215 1.95117 12.7822 2.21191C13.0459 2.47559 13.207 2.72461 13.3418 3.07324C13.4443 3.33691 13.5674 3.73535 13.5996 4.46484C13.6348 5.25586 13.6436 5.49316 13.6436 7.49414C13.6436 9.49805 13.6348 9.73535 13.5996 10.5234C13.5674 11.2559 13.4443 11.6514 13.3418 11.915C13.207 12.2637 13.043 12.5156 12.7822 12.7764C12.5186 13.04 12.2695 13.2012 11.9209 13.3359C11.6572 13.4385 11.2588 13.5615 10.5293 13.5938C9.73828 13.6289 9.50098 13.6377 7.5 13.6377C5.49609 13.6377 5.25879 13.6289 4.4707 13.5938C3.73828 13.5615 3.34277 13.4385 3.0791 13.3359C2.73047 13.2012 2.47852 13.0371 2.21777 12.7764C1.9541 12.5127 1.79297 12.2637 1.6582 11.915C1.55566 11.6514 1.43262 11.2529 1.40039 10.5234C1.36523 9.73242 1.35645 9.49512 1.35645 7.49414C1.35645 5.49023 1.36523 5.25293 1.40039 4.46484C1.43262 3.73242 1.55566 3.33691 1.6582 3.07324C1.79297 2.72461 1.95703 2.47266 2.21777 2.21191C2.48145 1.94824 2.73047 1.78711 3.0791 1.65234C3.34277 1.5498 3.74121 1.42676 4.4707 1.39453C5.25879 1.35937 5.49609 1.35059 7.5 1.35059ZM7.5 0C5.46387 0 5.20898 0.00878906 4.40918 0.0439453C3.6123 0.0791016 3.06445 0.208008 2.58984 0.392578C2.09473 0.585937 1.67578 0.84082 1.25977 1.25977C0.84082 1.67578 0.585938 2.09473 0.392578 2.58691C0.208008 3.06445 0.0791016 3.60937 0.0439453 4.40625C0.00878906 5.20898 0 5.46387 0 7.5C0 9.53613 0.00878906 9.79102 0.0439453 10.5908C0.0791016 11.3877 0.208008 11.9355 0.392578 12.4102C0.585938 12.9053 0.84082 13.3242 1.25977 13.7402C1.67578 14.1562 2.09473 14.4141 2.58691 14.6045C3.06445 14.7891 3.60938 14.918 4.40625 14.9531C5.20605 14.9883 5.46094 14.9971 7.49707 14.9971C9.5332 14.9971 9.78809 14.9883 10.5879 14.9531C11.3848 14.918 11.9326 14.7891 12.4072 14.6045C12.8994 14.4141 13.3184 14.1562 13.7344 13.7402C14.1504 13.3242 14.4082 12.9053 14.5986 12.4131C14.7832 11.9355 14.9121 11.3906 14.9473 10.5938C14.9824 9.79395 14.9912 9.53906 14.9912 7.50293C14.9912 5.4668 14.9824 5.21191 14.9473 4.41211C14.9121 3.61523 14.7832 3.06738 14.5986 2.59277C14.4141 2.09473 14.1592 1.67578 13.7402 1.25977C13.3242 0.84375 12.9053 0.585938 12.4131 0.395508C11.9355 0.210937 11.3906 0.0820312 10.5938 0.046875C9.79102 0.00878907 9.53613 0 7.5 0Z" fill="#333448"/>
<path d="M7.5 3.64844C5.37305 3.64844 3.64746 5.37402 3.64746 7.50098C3.64746 9.62793 5.37305 11.3535 7.5 11.3535C9.62695 11.3535 11.3525 9.62793 11.3525 7.50098C11.3525 5.37402 9.62695 3.64844 7.5 3.64844ZM7.5 10C6.12012 10 5.00098 8.88086 5.00098 7.50098C5.00098 6.12109 6.12012 5.00195 7.5 5.00195C8.87988 5.00195 9.99902 6.12109 9.99902 7.50098C9.99902 8.88086 8.87988 10 7.5 10Z" fill="#333448"/>
<path d="M12.4043 3.49317C12.4043 3.99121 12 4.39258 11.5049 4.39258C11.0068 4.39258 10.6055 3.98828 10.6055 3.49317C10.6055 2.99512 11.0098 2.59375 11.5049 2.59375C12 2.59375 12.4043 2.99805 12.4043 3.49317Z" fill="#333448"/>
</svg>
