<svg width="16" height="16" viewBox="0 0 16 16" fill="none" xmlns="http://www.w3.org/2000/svg">
<path d="M9.38994 1.14778L10.7999 3.96778C10.9899 4.35778 11.4999 4.72778 11.9299 4.80778L14.4799 5.22778C16.1099 5.49778 16.4899 6.67778 15.3199 7.85778L13.3299 9.84778C12.9999 10.1778 12.8099 10.8278 12.9199 11.2978L13.4899 13.7578C13.9399 15.6978 12.8999 16.4578 11.1899 15.4378L8.79994 14.0178C8.36994 13.7578 7.64994 13.7578 7.21994 14.0178L4.82994 15.4378C3.11994 16.4478 2.07994 15.6978 2.52994 13.7578L3.09994 11.2978C3.18994 10.8178 2.99994 10.1678 2.66994 9.83778L0.679942 7.84778C-0.490058 6.67778 -0.110058 5.49778 1.51994 5.21778L4.06994 4.79778C4.49994 4.72778 5.00994 4.34778 5.19994 3.95778L6.60994 1.13778C7.37994 -0.382224 8.61994 -0.382223 9.38994 1.14778Z" fill="#333448" fill-opacity="0.2"/>
</svg>
