<svg width="31" height="63" viewBox="0 0 31 63" fill="none" xmlns="http://www.w3.org/2000/svg">
<path d="M17.0055 0.242179C20.2075 0.987178 22.1993 4.188 21.4532 7.38994C20.7071 10.5919 17.5074 12.5837 14.3055 11.8376C11.1035 11.0926 9.11165 7.89292 9.85777 4.69099C10.6028 1.48793 13.8036 -0.502821 17.0055 0.242179Z" fill="#2E37A4" fill-opacity="0.4"/>
<path d="M24.9001 13.5957C24.4819 13.4195 24.0993 13.3146 23.7703 13.2522C23.5662 13.1964 23.3543 13.1641 23.1346 13.1641H8.17218C7.95471 13.1641 7.74392 13.1964 7.54094 13.2499C7.21082 13.3124 6.82605 13.4172 6.4056 13.5946C5.07843 14.1366 3.51036 15.437 2.44082 17.7311C1.35678 20.0297 0.658619 23.2795 0.655273 28.0953C0.655273 30.6091 0.84933 33.5556 1.29878 37.0286C1.45158 38.2097 2.45978 39.0706 3.61966 39.0706C3.72003 39.0706 3.82152 39.0639 3.92301 39.0506C5.20668 38.8833 6.11228 37.7089 5.94611 36.4252C5.51784 33.1173 5.34052 30.3671 5.34052 28.0942C5.33606 24.7907 5.71636 22.5223 6.19258 20.9955L8.34394 33.0504V59.1912C8.34394 61.0392 9.84286 62.5381 11.6909 62.5381C13.5389 62.5381 15.0389 61.0392 15.0389 59.1912L15.04 35.8932H16.2668V59.1912C16.2668 61.0392 17.7646 62.5381 19.6137 62.5381C21.4628 62.5381 22.9618 61.0392 22.9618 59.1912V33.0493L25.1131 20.9966C25.5893 22.5223 25.9652 24.803 25.9629 28.0953C25.9629 30.3682 25.7867 33.1196 25.3596 36.4274C25.1934 37.7111 26.099 38.8855 27.3827 39.0517C27.4842 39.0651 27.5857 39.0718 27.686 39.0718C28.847 39.0718 29.8541 38.2108 30.0069 37.0286C30.4552 33.5556 30.6493 30.6102 30.6493 28.0953C30.6426 21.6892 29.4102 18.0043 27.6559 15.7604C26.7838 14.6507 25.7767 13.9604 24.9001 13.5957Z" fill="#2E37A4" fill-opacity="0.4"/>
</svg>
