<svg width="50" height="49" viewBox="0 0 50 49" fill="none" xmlns="http://www.w3.org/2000/svg">
<path d="M27.5 33.8754H13C12.359 33.8754 11.7444 34.13 11.2911 34.5832C10.8379 35.0364 10.5833 35.6511 10.5833 36.2921C10.5833 36.933 10.8379 37.5477 11.2911 38.0009C11.7444 38.4541 12.359 38.7087 13 38.7087H27.5C28.1409 38.7087 28.7556 38.4541 29.2088 38.0009C29.662 37.5477 29.9166 36.933 29.9166 36.2921C29.9166 35.6511 29.662 35.0364 29.2088 34.5832C28.7556 34.13 28.1409 33.8754 27.5 33.8754ZM17.8333 19.3754H22.6666C23.3076 19.3754 23.9223 19.1208 24.3755 18.6676C24.8287 18.2144 25.0833 17.5997 25.0833 16.9587C25.0833 16.3178 24.8287 15.7031 24.3755 15.2499C23.9223 14.7967 23.3076 14.5421 22.6666 14.5421H17.8333C17.1924 14.5421 16.5777 14.7967 16.1245 15.2499C15.6713 15.7031 15.4166 16.3178 15.4166 16.9587C15.4166 17.5997 15.6713 18.2144 16.1245 18.6676C16.5777 19.1208 17.1924 19.3754 17.8333 19.3754ZM46.8333 24.2087H39.5833V2.45874C39.585 2.0329 39.4741 1.61417 39.2619 1.24496C39.0498 0.875749 38.7438 0.569162 38.375 0.356243C38.0076 0.144136 37.5909 0.0324707 37.1666 0.0324707C36.7424 0.0324707 36.3257 0.144136 35.9583 0.356243L28.7083 4.51291L21.4583 0.356243C21.0909 0.144136 20.6742 0.0324707 20.25 0.0324707C19.8258 0.0324707 19.409 0.144136 19.0416 0.356243L11.7916 4.51291L4.54164 0.356243C4.17427 0.144136 3.75752 0.0324707 3.33331 0.0324707C2.9091 0.0324707 2.49236 0.144136 2.12498 0.356243C1.75618 0.569162 1.4502 0.875749 1.23801 1.24496C1.02582 1.61417 0.914954 2.0329 0.916645 2.45874V41.1254C0.916645 43.0482 1.68048 44.8923 3.04012 46.2519C4.39976 47.6116 6.24382 48.3754 8.16664 48.3754H42C43.9228 48.3754 45.7669 47.6116 47.1265 46.2519C48.4861 44.8923 49.25 43.0482 49.25 41.1254V26.6254C49.25 25.9845 48.9954 25.3698 48.5422 24.9166C48.0889 24.4634 47.4742 24.2087 46.8333 24.2087ZM8.16664 43.5421C7.5257 43.5421 6.91102 43.2875 6.4578 42.8343C6.00459 42.381 5.74998 41.7663 5.74998 41.1254V6.63958L10.5833 9.39458C10.9563 9.58939 11.3709 9.69113 11.7916 9.69113C12.2124 9.69113 12.627 9.58939 13 9.39458L20.25 5.23791L27.5 9.39458C27.873 9.58939 28.2875 9.69113 28.7083 9.69113C29.1291 9.69113 29.5437 9.58939 29.9166 9.39458L34.75 6.63958V41.1254C34.7565 41.9498 34.9036 42.7671 35.185 43.5421H8.16664ZM44.4166 41.1254C44.4166 41.7663 44.162 42.381 43.7088 42.8343C43.2556 43.2875 42.6409 43.5421 42 43.5421C41.359 43.5421 40.7443 43.2875 40.2911 42.8343C39.8379 42.381 39.5833 41.7663 39.5833 41.1254V29.0421H44.4166V41.1254ZM27.5 24.2087H13C12.359 24.2087 11.7444 24.4634 11.2911 24.9166C10.8379 25.3698 10.5833 25.9845 10.5833 26.6254C10.5833 27.2664 10.8379 27.881 11.2911 28.3343C11.7444 28.7875 12.359 29.0421 13 29.0421H27.5C28.1409 29.0421 28.7556 28.7875 29.2088 28.3343C29.662 27.881 29.9166 27.2664 29.9166 26.6254C29.9166 25.9845 29.662 25.3698 29.2088 24.9166C28.7556 24.4634 28.1409 24.2087 27.5 24.2087Z" fill="#7638FF" fill-opacity="0.1"/>
</svg>
