<svg width="58" height="59" viewBox="0 0 58 59" fill="none" xmlns="http://www.w3.org/2000/svg">
<path d="M53.5513 43.5212C53.5513 41.3704 52.9245 39.2678 51.7501 37.4794C50.5757 35.691 48.9066 34.2972 46.9537 33.474C45.0008 32.6509 42.8519 32.4356 40.7787 32.8552C38.7056 33.2748 36.8012 34.3106 35.3066 35.8315C33.8119 37.3523 32.794 39.2901 32.3816 41.3996C31.9692 43.5092 32.1809 45.6958 32.9898 47.6829C33.7987 49.6701 35.1686 51.3685 36.9261 52.5635C38.6837 53.7584 40.75 54.3962 42.8638 54.3962C45.6973 54.3929 48.4137 53.246 50.4173 51.2073C52.4209 49.1686 53.548 46.4044 53.5513 43.5212ZM49.9888 43.5212C49.9821 44.8113 49.6332 46.0757 48.9788 47.1807L39.2674 37.2989C40.3534 36.6332 41.5959 36.2781 42.8638 36.2712C44.7527 36.2736 46.5636 37.0382 47.8993 38.3974C49.235 39.7565 49.9864 41.5992 49.9888 43.5212ZM35.7388 43.5212C35.7454 42.2311 36.0944 40.9668 36.7487 39.8618L46.4601 49.7436C45.3741 50.4093 44.1316 50.7644 42.8638 50.7712C40.9748 50.7688 39.1639 50.0042 37.8282 48.6451C36.4926 47.286 35.7411 45.4433 35.7388 43.5212ZM14.3638 29.0212H32.1763V32.6462H14.3638V29.0212ZM14.3638 18.1462H35.7388V21.7712H14.3638V18.1462Z" fill="#7638FF" fill-opacity="0.1"/>
<path d="M25.0513 50.2873L15.7282 45.2304C13.1618 43.8413 11.0156 41.7673 9.51994 39.2309C8.0243 36.6946 7.2357 33.7917 7.23878 30.8337V7.27124H42.8638V27.2087H46.4263V7.27124C46.4253 6.31013 46.0497 5.38865 45.3818 4.70904C44.7139 4.02943 43.8083 3.6472 42.8638 3.64624H7.23878C6.29424 3.6472 5.38865 4.02943 4.72076 4.70904C4.05286 5.38865 3.67722 6.31013 3.67628 7.27124V30.8337C3.67231 34.4485 4.63588 37.9961 6.46354 41.0958C8.29121 44.1954 10.914 46.7301 14.0503 48.4277L25.0513 54.3962V50.2873Z" fill="#7638FF" fill-opacity="0.1"/>
</svg>
