<?xml version="1.0" standalone="no"?>
<!DOCTYPE svg PUBLIC "-//W3C//DTD SVG 1.1//EN" "http://www.w3.org/Graphics/SVG/1.1/DTD/svg11.dtd" >
<svg xmlns="http://www.w3.org/2000/svg">
<metadata>Generated by IcoMoon</metadata>
<defs>
<font id="icomoon" horiz-adv-x="1024">
<font-face units-per-em="1024" ascent="960" descent="-64" />
<missing-glyph horiz-adv-x="1024" />
<glyph unicode="&#x20;" horiz-adv-x="512" d="" />
<glyph unicode="&#xe900;" glyph-name="telephone" d="M778.514 282.604c-33.454 33.028-75.219 33.028-108.46 0-25.357-25.144-50.714-50.288-75.645-75.858-6.819-7.032-12.572-8.523-20.882-3.836-16.408 8.95-33.88 16.194-49.649 25.996-73.514 46.239-135.096 105.69-189.645 172.599-27.062 33.241-51.14 68.826-67.974 108.886-3.409 8.097-2.77 13.424 3.836 20.030 25.357 24.505 50.075 49.649 75.006 74.793 34.733 34.946 34.733 75.858-0.213 111.017-19.817 20.030-39.634 39.634-59.451 59.664-20.456 20.456-40.699 41.125-61.368 61.368-33.454 32.602-75.219 32.602-108.46-0.213-25.57-25.144-50.075-50.927-76.071-75.645-24.079-22.8-36.224-50.714-38.781-83.316-4.049-53.058 8.95-103.133 27.275-151.929 37.503-101.002 94.61-190.711 163.862-272.962 93.544-111.23 205.201-199.234 335.822-262.733 58.811-28.553 119.754-50.501 186.023-54.124 45.6-2.557 85.234 8.95 116.984 44.535 21.735 24.292 46.239 46.452 69.253 69.679 34.094 34.52 34.307 76.284 0.426 110.378-40.486 40.699-81.185 81.185-121.884 121.671zM737.814 452.432l78.628 13.424c-12.359 72.236-46.452 137.653-98.232 189.645-54.763 54.763-124.015 89.283-200.3 99.937l-11.080-79.054c59.024-8.31 112.722-34.946 155.126-77.35 40.060-40.060 66.269-90.774 75.858-146.602zM860.764 794.22c-90.774 90.774-205.627 148.094-332.412 165.78l-11.080-79.054c109.526-15.342 208.823-64.991 287.238-143.193 74.367-74.367 123.163-168.337 140.849-271.683l78.628 13.424c-20.669 119.754-77.137 228.427-163.223 314.726z" />
<glyph unicode="&#xe901;" glyph-name="email" d="M934 838h-844c-13.854 0-26.824-3.406-38.558-9.020l458.558-458.558 102.778 98.774c0 0 0.008 0.010 0.010 0.014s0.010 0.008 0.010 0.008l359.774 359.754c-11.736 5.618-24.714 9.028-38.572 9.028zM1014.992 786.544l-338.566-338.548 338.554-338.554c5.614 11.734 9.020 24.704 9.020 38.558v600c0 13.846-3.398 26.814-9.008 38.544zM9.020 786.558c-5.614-11.734-9.020-24.704-9.020-38.558v-600c0-13.846 3.402-26.818 9.012-38.548l338.566 338.548-338.558 338.558zM634.004 405.574l-102.792-98.786c-5.86-5.86-13.536-8.79-21.21-8.79s-15.352 2.93-21.21 8.79l-98.792 98.79-338.572-338.55c11.736-5.618 24.714-9.028 38.572-9.028h844c13.854 0 26.824 3.406 38.558 9.020l-338.554 338.554z" />
<glyph unicode="&#xe902;" glyph-name="down-filled-triangular-arrow" d="M974.608 728.555h-925.217c-43.783 0-66.087-52.87-34.696-84.261l462.608-462.608c19-19 50.391-19 69.4 0l462.608 462.608c31.383 31.391 9.079 84.261-34.704 84.261z" />
<glyph unicode="&#xe903;" glyph-name="twitter" d="M920.576 701.952c-30.72-13.312-62.464-22.528-96.256-26.624 34.816 20.48 61.44 53.248 73.728 93.184-32.768-19.456-68.608-32.768-106.496-40.96-30.72 32.768-74.752 53.248-122.88 53.248-93.184 0-167.936-75.776-167.936-167.936 0-13.312 1.024-25.6 4.096-37.888-139.264 6.144-262.144 73.728-345.088 175.104-59.392-106.496 7.168-194.56 51.2-224.256-26.624 0-53.248 8.192-75.776 20.48 0-82.944 58.368-151.552 134.144-166.912-16.384-5.12-53.248-8.192-75.776-3.072 21.504-66.56 83.968-115.712 156.672-116.736-57.344-45.056-141.312-80.896-248.832-69.632 74.752-48.128 162.816-75.776 258.048-75.776 309.248 0 477.184 256 477.184 477.184 0 7.168 0 14.336-1.024 21.504 34.816 25.6 63.488 55.296 84.992 89.088z" />
<glyph unicode="&#xe904;" glyph-name="facebook" d="M510.365 944.484q138.46-1.58 250.17-68.059c73.972-44.179 134.012-104.566 176.511-176.542l1.271-2.327q66.074-112.383 67.649-251.686-3.924-190.6-120.233-325.582c-77.54-89.988-176.85-145.66-279.655-167.002v356.255h97.194l21.98 140h-147.174v91.696c-0.047 1.021-0.073 2.218-0.073 3.422 0 18.655 6.41 35.813 17.149 49.392l-0.127-0.167q17.655 22.505 62.179 23.657h88.873v122.637q-1.913 0.615-36.3 4.867c-23.286 2.885-50.471 4.648-78.023 4.865l-0.297 0.002q-88.866-0.41-140.562-50.135-51.698-49.711-52.817-143.842v-106.395h-112v-140h112v-356.255c-126.23 21.342-225.54 77.014-303.080 167.002s-117.616 198.516-120.232 325.582q1.57 139.309 67.647 251.686c43.771 74.303 103.811 134.69 175.51 177.608l2.274 1.261q111.707 66.466 250.168 68.059z" />
<glyph unicode="&#xe905;" glyph-name="instagram" d="M726.546 960h-429.090c-164.018 0-297.456-133.438-297.456-297.456v-429.088c0-164.018 133.438-297.456 297.456-297.456h429.088c164.018 0 297.456 133.438 297.456 297.454v429.090c0 164.018-133.438 297.456-297.454 297.456zM944 233.456c0-119.906-97.55-217.456-217.454-217.456h-429.090c-119.906 0-217.456 97.55-217.456 217.454v429.090c0 119.906 97.55 217.456 217.456 217.456h429.088c119.906 0 217.456-97.55 217.456-217.456v-429.088zM512 724c-152.188 0-276-123.812-276-276s123.812-276 276-276 276 123.812 276 276-123.812 276-276 276zM512 252c-108.074 0-196 87.926-196 196s87.926 196 196 196 196-87.926 196-196-87.926-196-196-196zM832 728c0-22.091-17.909-40-40-40s-40 17.909-40 40c0 22.091 17.909 40 40 40s40-17.909 40-40z" />
<glyph unicode="&#xe906;" glyph-name="pinterest" d="M245.891 403.562c1.281 3.195 14.102 52.461 15 55.797-20.016 30.117-42.25 128.742-25.195 208.797 18.398 117.461 142.875 175.203 260.398 175.203v0.219c147.141-0.094 257.281-81.961 257.398-222.953 0.094-110.359-66.391-256.234-179.914-256.234-0.031 0-0.055 0-0.086 0-40.516 0-91.813 18.375-105.266 36.422-15.523 20.797-19.336 46.461-11.133 73.883 20.102 64.164 45.734 141.023 48.727 192.273 2.773 48.367-31.547 79.836-76.055 79.836-33.492 0-76.992-19.453-98.672-74.117-17.906-45.414-17.523-92.961 1.172-145.344 7.289-20.477-32.313-153.969-45-197.438-31.523-107.984-74.68-244.609-65.453-320.695l8.906-73.211 44.734 58.625c61.906 81.039 125.914 290.664 142.969 341.672 50.422-65.297 155.422-67.172 167.664-67.172 150.367 0 320.875 149.313 316.039 357.125-4.242 182.242-137.617 333.75-377.266 333.75v-0.234c-227.953 0-361-121.672-393.57-275.406-29.828-142.547 36.508-251.039 114.602-280.797z" />
<glyph unicode="&#xe907;" glyph-name="phone-call" d="M613.272 149.985l-125.976 120.769c-29.789 28.562-75.188 31.638-107.935 7.297-0.012-0.006-0.164-0.112-0.17-0.123l-0.558-0.417c-0.669-0.505-1.297-0.511-1.72-0.44-0.74 0.141-1.045 0.611-1.151 0.793-29.102 46.203-48.781 96.986-58.509 150.945-9.716 53.97-8.988 108.458 2.19 161.941 0.035 0.182 0.141 0.663 0.716 1.010 0.47 0.276 0.986 0.335 1.556 0.164l0.869-0.252c39.282-11.495 80.9 7.28 98.929 44.624l82.45 170.723c11.618 24.059 6.64 52.785-12.37 71.542-6.74 6.822-14.413 13.239-22.814 19.086-75.246 52.262-177.945 36.493-233.805-35.906-3.47-4.532-6.693-9.276-9.798-14.066l-0.035-0.053c-11.178-16.55-16.726-26.882-25.104-42.493l-1.785-3.317c-2.014-3.716-49.52-91.667-61.227-153.587-18.147-96.047-16.538-195.369 4.673-287.218 22.409-97.021 65.013-183.346 126.616-256.567 15.634-18.581 44.595 5.742 28.943 24.352-57.722 68.595-97.661 149.594-118.702 240.727-20.037 86.794-21.552 180.733-4.362 271.684 10.597 56.084 56.824 141.704 57.329 142.626l1.832 3.411c7.309 13.609 14.994 26.712 23.425 39.652l0.129 0.205c2.536 4.010 5.243 7.896 8.113 11.671 43.556 56.319 123.54 68.536 182.172 27.816 6.528-4.532 12.434-9.476 17.565-14.677 0.070-0.076 0.147-0.153 0.223-0.229 7.526-7.38 9.505-18.722 4.92-28.209l-82.444-170.723c-9.969-20.63-32.789-31.051-54.229-24.787l-0.716 0.217c-10.65 3.176-22.209 1.75-31.714-3.922-9.434-5.624-16.133-15.012-18.376-25.767-12.182-58.262-12.98-117.604-2.389-176.389 10.585-58.755 32.019-114.058 63.722-164.389 5.871-9.335 15.458-15.828 26.301-17.83 10.943-2.014 22.344 0.675 31.344 7.432l0.517 0.382c17.883 13.286 42.781 11.507 59.201-4.239l125.976-120.769c15.37-14.742 15.663-39.605 5.589-57.282-17.677-30.792-54.311-51.434-88.426-57.223-34.738-5.883-69.822 1.937-98.777 22.051-19.943 13.849-41.548-17.19-21.575-31.063 29.072-20.19 62.953-30.734 97.673-30.734 9.628 0 19.333 0.816 28.996 2.454 45.293 7.685 91.608 35.102 114.91 75.681l0.434 0.757c18.493 32.219 14.742 76.397-12.646 102.657zM681.737 756.5c-112.203 0-203.477-91.28-203.477-203.489 0-9.804 0.71-19.679 2.125-29.43l-33.734-109.585c-3.552-11.524 5.213-23.824 17.078-24.446l104.571-5.477c33.593-22.62 72.692-34.544 113.436-34.544 112.203 0 203.489 91.285 203.489 203.483 0 112.209-91.285 203.489-203.489 203.489zM681.737 387.354c-34.708 0-67.943 10.62-96.105 30.716-2.93 2.090-6.399 3.305-9.986 3.487l-85.714 4.497 27.886 90.569c3.276 10.638-1.732 25.327-1.732 36.387 0 91.35 74.307 165.657 165.651 165.657s165.657-74.307 165.657-165.657c0-91.338-74.313-165.657-165.657-165.657zM613.066 566.59c-10.286 0-18.916-8.63-18.916-18.91 0-10.286 8.636-18.922 18.916-18.922 9.98 0 18.434 8.143 18.875 18.094 0.464 10.591-8.254 19.738-18.875 19.738zM333.040 78.984c-10.286 0-18.916-8.636-18.916-18.91 0-10.28 8.636-18.916 18.916-18.916 9.98 0 18.434 8.131 18.875 18.088 0.464 10.573-8.272 19.738-18.875 19.738zM687.461 566.59c-10.303 0-18.91-8.607-18.91-18.91 0-10.297 8.624-18.922 18.91-18.922 9.992 0.012 18.423 8.131 18.857 18.094 0.464 10.591-8.219 19.738-18.857 19.738zM761.839 566.59c-10.28 0-18.91-8.63-18.91-18.91 0.006-10.286 8.642-18.922 18.91-18.922 9.992 0 18.434 8.143 18.875 18.094 0.476 10.591-8.243 19.738-18.875 19.738z" />
<glyph unicode="&#xe908;" glyph-name="heartbeat" d="M809.7 448.136l-94.183 470.914c-4.641 23.477-25.661 40.949-49.685 40.949h-0.546c-24.023 0-44.498-16.38-50.231-39.857l-153.696-692.585-104.557 487.294c-5.187 22.931-25.115 39.857-48.593 40.403-23.477 1.638-44.498-14.742-50.777-37.4l-92.272-337.966-12.831 76.711c-4.095 24.569-25.661 42.587-50.777 42.587h-101.554v-102.373h58.967l43.952-264.258c4.095-23.477 24.023-41.495 48.047-42.587 22.931-1.638 45.59 14.469 52.142 37.4l97.732 360.352 109.471-511.318c5.187-23.477 26.207-39.857 50.231-40.403 24.023 0 45.044 16.926 50.231 40.403l152.058 684.669 54.872-273.813c4.641-24.023 25.661-41.495 50.231-41.495h256.068v102.373h-214.3z" />
<glyph unicode="&#xe909;" glyph-name="pulse" d="M555.304 815.841c5.027 20.109 32.036 21.45 39.994 4.022l1.399-4.022 107.304-429.11 21.97 87.777c2.077 8.31 8.87 14.449 17.094 15.854l3.602 0.305h128c11.782 0 21.333-9.551 21.333-21.333 0-10.473-7.547-19.183-17.499-20.99l-3.835-0.344h-111.36l-38.61-154.507c-5.027-20.109-32.036-21.45-39.994-4.022l-1.399 4.022-107.304 429.153-149.97-599.819c-5.027-20.109-32.036-21.45-39.994-4.022l-1.399 4.022-107.73 430.774-23.212-89.625c-2.136-8.231-8.903-14.288-17.072-15.674l-3.577-0.301h-126.379c-11.782 0-21.333 9.551-21.333 21.333 0 10.473 7.547 19.183 17.499 20.99l3.835 0.344h109.867l40.151 154.692c5.183 19.972 32.037 21.185 39.954 3.821l1.392-4.005 107.304-429.11z" />
<glyph unicode="&#xe90a;" glyph-name="right-arrow" d="M598.064 759.168c-12.784 12.176-33.056 11.696-45.232-1.104-12.192-12.8-11.68-33.056 1.104-45.248l245.472-232.816h-639.408c-17.664 0-32-14.336-32-32s14.336-32 32-32h638.384l-244.448-232.832c-12.8-12.192-13.296-32.448-1.104-45.248 6.288-6.592 14.72-9.92 23.168-9.92 7.936 0 15.872 2.928 22.064 8.832l279.184 265.92c12.096 12.080 18.752 28.144 18.752 45.248s-6.656 33.168-19.312 45.792z" />
<glyph unicode="&#xe90b;" glyph-name="ambulance" d="M544 320h-16v16c0 8.837-7.163 16-16 16s-16-7.163-16-16v0-16h-16c-8.837 0-16-7.163-16-16s7.163-16 16-16v0h16v-16c0-8.837 7.163-16 16-16s16 7.163 16 16v0 16h16c8.837 0 16 7.163 16 16s-7.163 16-16 16v0zM976 560h-64c-8.837 0-16-7.163-16-16v0-48h-21.28l-26.78 321.32c-0.703 8.248-7.57 14.677-15.94 14.68h-240v32c0 8.837-7.163 16-16 16v0h-16v48c0 8.837-7.163 16-16 16v0h-64c-8.837 0-16-7.163-16-16v0-48h-16c-8.837 0-16-7.163-16-16v0-32h-240c-8.37-0.003-15.237-6.432-15.936-14.621l-0.004-0.059-26.78-321.32h-21.28v48c0 8.837-7.163 16-16 16v0h-64c-8.837 0-16-7.163-16-16v0-128c0-8.837 7.163-16 16-16v0h64c8.837 0 16 7.163 16 16v0 48h18.62l-2.56-30.66c-0.020-0.2-0.020-0.4-0.020-0.6-0.020-0.24-0.040-0.5-0.040-0.74v-240c-17.664-0.024-31.976-14.337-32-31.998v-64.002c0.024-17.664 14.337-31.976 31.998-32h0.002v-64c0.036-26.495 21.505-47.964 47.996-48h64.004c26.495 0.036 47.964 21.505 48 47.996v64.004h416v-64c0.036-26.495 21.505-47.964 47.996-48h64.004c26.495 0.036 47.964 21.505 48 47.996v64.004c17.664 0.024 31.976 14.337 32 31.998v64.002c-0.024 17.664-14.337 31.976-31.998 32h-0.002v240c0 0.24-0.020 0.5-0.040 0.74 0 0.2 0 0.4-0.020 0.6l-2.56 30.66h18.62v-48c0-8.837 7.163-16 16-16v0h64c8.837 0 16 7.163 16 16v0 128c0 8.837-7.163 16-16 16v0zM96 432h-32v96h32zM496 912h32v-32h-32zM464 848h96v-16h-96zM206.72 800h610.56l4-48h-618.56zM200.060 720h623.88l22.68-272h-168l68.7 68.68c2.897 2.897 4.689 6.899 4.689 11.32 0 8.841-7.167 16.009-16.009 16.009-4.421 0-8.423-1.792-11.32-4.689l-91.3-91.32h-306.76l68.7 68.68c2.897 2.897 4.689 6.899 4.689 11.32 0 8.841-7.167 16.009-16.009 16.009-4.421 0-8.423-1.792-11.32-4.689l-91.3-91.32h-104zM176 416h672v-224h-672zM272 0c-0.013-8.832-7.168-15.987-15.999-16h-64.001c-8.832 0.013-15.987 7.168-16 15.999v64.001h96zM848 0c-0.013-8.832-7.168-15.987-15.999-16h-64.001c-8.832 0.013-15.987 7.168-16 15.999v64.001h96zM880 160v-16h-80c-8.837 0-16-7.163-16-16s7.163-16 16-16v0h80.020v-16h-736.020v16h80c8.837 0 16 7.163 16 16s-7.163 16-16 16v0h-80v16zM960 432h-32v96h32zM272 368c-35.346 0-64-28.654-64-64s28.654-64 64-64c35.346 0 64 28.654 64 64v0c-0.041 35.33-28.67 63.959-63.996 64h-0.004zM272 272c-17.673 0-32 14.327-32 32s14.327 32 32 32c17.673 0 32-14.327 32-32v0c-0.022-17.664-14.336-31.978-31.998-32h-0.002zM752 368c-35.346 0-64-28.654-64-64s28.654-64 64-64c35.346 0 64 28.654 64 64v0c-0.041 35.33-28.67 63.959-63.996 64h-0.004zM752 272c-17.673 0-32 14.327-32 32s14.327 32 32 32c17.673 0 32-14.327 32-32v0c-0.022-17.664-14.336-31.978-31.998-32h-0.002zM639.92 385.6c-0.84 8.121-7.647 14.4-15.92 14.4 0 0 0 0 0 0h-224c0 0 0 0 0 0-8.273 0-15.080-6.279-15.914-14.331l-0.006-0.069-16-160c-0.051-0.48-0.080-1.037-0.080-1.6 0-8.837 7.163-16 16-16 0 0 0 0 0 0h256c0 0 0 0 0 0 8.837 0 16 7.163 16 16 0 0.563-0.029 1.12-0.086 1.669l0.006-0.069zM401.68 240l12.8 128h195.040l12.8-128zM416 704h-176c-8.837 0-16-7.163-16-16s7.163-16 16-16v0h176c8.837 0 16 7.163 16 16s-7.163 16-16 16v0zM480 704h-16c-8.837 0-16-7.163-16-16s7.163-16 16-16v0h16c8.837 0 16 7.163 16 16s-7.163 16-16 16v0z" />
<glyph unicode="&#xe90c;" glyph-name="clinic" d="M914.656 800l-123.158 65.322-15-28.27 126.676-67.186c2.172-1.175 4.754-1.866 7.498-1.866h80v32zM909.228 639.934l-96.2-8.744c-3.825-0.359-8.272-0.564-12.766-0.564-42.506 0-80.731 18.331-107.2 47.519l-0.108 0.121-49.772 55.306c-7.642 8.467-12.317 19.74-12.317 32.105 0 11.18 3.822 21.468 10.232 29.627l-0.078-0.104 84.782-56.52c2.522-1.738 5.643-2.776 9.007-2.776 8.837 0 16 7.163 16 16 0 5.584-2.861 10.5-7.197 13.363l-0.060 0.037-96.050 64.034c-2.488 1.668-5.55 2.662-8.845 2.662-0.019 0-0.039 0-0.058 0h-175.911c-38.265 0.015-70.148 27.316-77.25 63.501l-0.082 0.499h280l79.14-41.976 15 28.27-82.654 43.84c-2.171 1.175-4.752 1.866-7.495 1.866-0.001 0-0.002 0-0.003 0h-301.332c0 0-0.001 0-0.002 0-8.758 0-15.873-7.037-15.998-15.766v-0.012c-0.007-0.457-0.011-0.997-0.011-1.538 0-61.129 49.555-110.684 110.684-110.684 0.001 0 0.002 0 0.003 0h143.892c-4.875-10.038-7.725-21.836-7.725-34.299 0-20.621 7.801-39.42 20.613-53.607l-0.062 0.070 49.772-55.304c32.458-35.792 79.118-58.196 131.013-58.26h0.011q7.846 0 15.724 0.712l95.476 8.688h79.274v32h-80c-0.474 0-0.966-0.022-1.446-0.066zM561.314 96h-65.314v-32h65.314c38.265-0.015 70.148-27.316 77.25-63.501l0.082-0.499h-280l-237.824 126.134c-2.172 1.175-4.754 1.866-7.498 1.866h-80v-32h76.020l237.816-126.134c2.171-1.175 4.752-1.866 7.495-1.866 0.001 0 0.002 0 0.003 0h301.342c0 0 0.001 0 0.002 0 8.758 0 15.873 7.037 15.998 15.766v0.012c0.007 0.457 0.011 0.997 0.011 1.538 0 61.129-49.555 110.684-110.684 110.684-0.004 0-0.009 0-0.013 0h0.001zM114.772 256.066l96.2 8.744c3.827 0.36 8.276 0.565 12.772 0.565 42.504 0 80.727-18.331 107.193-47.52l0.108-0.121 49.772-55.306c7.646-8.468 12.324-19.744 12.324-32.112 0-11.18-3.823-21.468-10.232-29.627l0.078 0.104-84.788 56.52c-2.522 1.738-5.643 2.776-9.007 2.776-8.837 0-16-7.163-16-16 0-5.584 2.861-10.5 7.197-13.363l0.060-0.037 96.052-64.036c2.48-1.662 5.532-2.652 8.815-2.652 0.001 0 0.002 0 0.003 0h78.68v32h-46.58c4.877 10.039 7.727 21.838 7.727 34.302 0 20.62-7.801 39.418-20.614 53.604l0.062-0.070-49.772 55.304c-32.485 35.824-79.206 58.229-131.161 58.229-5.49 0-10.921-0.25-16.283-0.74l0.69 0.051-95.47-8.68h-79.276v-32h80c0.476 0 0.968 0.022 1.448 0.066zM576 656h-128c-8.837 0-16-7.163-16-16v0-112h-32v-32h48c8.837 0 16 7.163 16 16v0 112h96v-112c0-8.837 7.163-16 16-16v0h112v-96h-112c-8.837 0-16-7.163-16-16v0-112h-96v112c0 8.837-7.163 16-16 16v0h-112v96h32v32h-48c-8.837 0-16-7.163-16-16v0-128c0-8.837 7.163-16 16-16v0h112v-112c0-8.837 7.163-16 16-16v0h128c8.837 0 16 7.163 16 16v0 112h112c8.837 0 16 7.163 16 16v0 128c0 8.837-7.163 16-16 16v0h-112v112c0 8.837-7.163 16-16 16v0zM208 448c0-0.094 0-0.206 0-0.317 0-35.715 6.189-69.985 17.553-101.795l-0.659 2.113 30.21 10.55c-9.571 26.559-15.104 57.206-15.104 89.145 0 0.107 0 0.214 0 0.321v-0.017c0 149.982 122.018 272 272 272 10.654-0.001 21.165-0.607 31.502-1.785l-1.266 0.117 3.528 31.8c-10.13 1.188-21.867 1.866-33.761 1.868h-0.003c-167.626 0-304-136.374-304-304zM512 176c-10.654 0.001-21.165 0.607-31.502 1.785l1.266-0.117-3.528-31.8c10.129-1.188 21.866-1.866 33.761-1.868h0.003c167.626 0 304 136.374 304 304 0 0.094 0 0.206 0 0.317 0 35.715-6.189 69.985-17.553 101.795l0.659-2.113-30.21-10.55c9.571-26.559 15.104-57.207 15.104-89.147 0-0.106 0-0.213 0-0.319v0.016c0-149.982-122.018-272-272-272zM857.832 556.86c-3.95-2.947-6.48-7.608-6.48-12.859 0-1.481 0.201-2.916 0.578-4.277l-0.027 0.112c7.68-27.46 12.095-58.994 12.095-91.559 0-132.793-73.408-248.44-181.857-308.576l-1.806-0.919 15.328-28.092c120.264 66.591 200.336 192.733 200.336 337.577 0 21.92-1.834 43.411-5.356 64.329l0.314-2.259 44.55-27.898 16.984 27.12-76.648 48c-2.41 1.531-5.345 2.44-8.493 2.44-3.585 0-6.894-1.179-9.562-3.17l0.042 0.030zM152.718 352c0 0 0.001 0 0.001 0 8.837 0 16 7.163 16 16 0 1.227-0.138 2.422-0.4 3.569l0.021-0.107c-5.34 22.979-8.4 49.365-8.4 76.466 0 138.801 80.288 258.85 196.955 316.238l2.069 0.92-13.928 28.8c-129.494-63.708-217.035-194.701-217.035-346.14 0-17.61 1.184-34.944 3.476-51.927l-0.219 1.981-59.644 32.272-15.228-28.144 88.72-48c2.198-1.214 4.819-1.928 7.607-1.928 0.002 0 0.004 0 0.006 0v0z" />
<glyph unicode="&#xe90d;" glyph-name="diploma" d="M992 944h-960c-8.837 0-16-7.163-16-16v0-672c0-8.837 7.163-16 16-16v0h96.288c2.912-89.92 30.112-176 79.712-176 8.116 0.098 15.659 2.469 22.046 6.503l-0.174-0.103 68.928 22.992c33.254 11.486 72.798 21.093 113.52 27.076l3.68 0.444v-152.912c0.002-8.835 7.165-15.997 16-15.997 4.417 0 8.417 1.79 11.312 4.685l68.688 68.688 68.688-68.688c2.895-2.894 6.895-4.685 11.312-4.685 8.835 0 15.998 7.161 16 15.996v0 152.912c44.384-6.409 83.924-16.011 121.943-28.906l-4.759 1.402 68.944-23.008c6.213-3.931 13.756-6.302 21.846-6.4h0.026c49.6 0 76.8 86.080 79.712 176h96.288c8.837 0 16 7.163 16 16v0 672c0 8.837-7.163 16-16 16v0zM832 444.576v195.424c0 8.837-7.163 16-16 16v0h-608c-8.837 0-16-7.163-16-16v0-195.424c-28.544-11.888-47.776-55.248-57.2-108.576h-22.8v512h800v-512h-22.8c-9.424 53.328-28.656 96.688-57.2 108.576zM298.816 418.592l-68.944 23.008c-1.627 0.989-3.555 1.985-5.552 2.852l-0.32 0.124v179.424h576v-179.424c-2.316-0.997-4.244-1.998-6.093-3.116l0.221 0.124-68.944-22.992c-63.625-21.827-136.933-34.428-213.184-34.428s-149.559 12.601-217.954 35.835l4.77-1.407zM160 256c0 96.192 28.896 160 48 160s48-63.808 48-160-28.896-160-48-160-48 63.808-48 160zM288.688 123.76l-24.56-8.176c15.171 39.303 23.959 84.78 23.959 132.31 0 2.85-0.032 5.693-0.094 8.528l0.007-0.423c0.055 2.413 0.087 5.256 0.087 8.106 0 47.53-8.789 93.008-24.829 134.896l0.87-2.586 24.56-8.176c36.297-12.583 79.281-22.918 123.585-29.139l3.727-0.429v-205.456c-48.034-6.626-91.022-16.923-132.301-30.925l4.989 1.469zM523.312 59.312c-2.895 2.894-6.895 4.685-11.312 4.685s-8.417-1.79-11.312-4.685l-52.688-52.688v348.384c21.232-1.936 42.576-3.008 64-3.008s42.768 1.072 64 3.008v-348.384zM608 153.216v205.456c48.031 6.65 91.015 16.985 132.28 31.038l-4.968-1.47 24.56 8.176c-15.171-39.303-23.959-84.78-23.959-132.31 0-2.85 0.032-5.693 0.094-8.528l-0.007 0.423c-0.055-2.413-0.087-5.256-0.087-8.106 0-47.53 8.789-93.008 24.829-134.896l-0.87 2.586-24.56 8.176c-36.297 12.542-79.286 22.84-123.591 29.030l-3.721 0.426zM816 96c-19.104 0-48 63.808-48 160s28.896 160 48 160 48-63.808 48-160-28.896-160-48-160zM976 272h-80.288c-0.352 10.784-1.072 21.472-2.128 32h34.416c8.837 0 16 7.163 16 16v0 544c0 8.837-7.163 16-16 16v0h-832c-8.837 0-16-7.163-16-16v0-544c0-8.837 7.163-16 16-16v0h34.416c-1.056-10.528-1.776-21.216-2.128-32h-80.288v640h928zM496 320h32v-224h-32zM304 816h416v-32h-416zM208 752h608v-32h-608zM320 576h320v-32h-320zM672 576h96v-32h-96zM256 512h512v-32h-512z" />
<glyph unicode="&#xe90e;" glyph-name="ambulance-1" d="M624 816c-8.837 0-16 7.163-16 16v0 48c0 8.837 7.163 16 16 16s16-7.163 16-16v0-48c0-8.837-7.163-16-16-16v0zM560 798.848c-0.005 0-0.010 0-0.016 0-5.891 0-11.038 3.184-13.816 7.925l-0.041 0.075-24 41.6c-1.381 2.317-2.197 5.109-2.197 8.092 0 8.837 7.163 16 16 16 5.928 0 11.104-3.224 13.868-8.015l0.041-0.077 24-41.6c1.348-2.295 2.144-5.054 2.144-8 0-8.831-7.154-15.991-15.983-16h-0.001zM688 798.848c-8.829 0.009-15.984 7.169-15.984 16 0 2.946 0.796 5.705 2.184 8.076l-0.041-0.075 24 41.6c2.806 4.868 7.981 8.092 13.909 8.092 8.837 0 16-7.163 16-16 0-2.983-0.816-5.775-2.238-8.166l0.041 0.074-24-41.6c-2.818-4.816-7.965-8-13.856-8-0.005 0-0.011 0-0.016 0h0.001zM832 64c0-17.673-14.327-32-32-32s-32 14.327-32 32c0 17.673 14.327 32 32 32s32-14.327 32-32zM288 64c0-17.673-14.327-32-32-32s-32 14.327-32 32c0 17.673 14.327 32 32 32s32-14.327 32-32zM980.48 435.36l-174.72 203.84c-8.809 10.308-21.822 16.8-36.351 16.8-0.045 0-0.090 0-0.136 0h-65.273v48c0 8.837-7.163 16-16 16v0c0 35.346-28.654 64-64 64s-64-28.654-64-64v0c-8.837 0-16-7.163-16-16v0-48h-464c-26.477-0.082-47.918-21.523-48-47.992v-480.008c0.082-26.477 21.523-47.918 47.992-48h81.448c-0.837-4.759-1.357-10.287-1.439-15.921l-0.001-0.079c0-53.019 42.981-96 96-96s96 42.981 96 96v0c-0.083 5.713-0.603 11.241-1.53 16.631l0.090-0.631h354.88c-0.837-4.759-1.357-10.287-1.439-15.921l-0.001-0.079c0-53.019 42.981-96 96-96s96 42.981 96 96v0c-0.083 5.713-0.603 11.241-1.53 16.631l0.090-0.631h49.44c26.477 0.082 47.918 21.523 48 47.992v276.168c-0.013 11.939-4.369 22.859-11.574 31.265l0.054-0.065zM624 752c17.651-0.054 31.946-14.349 32-31.995v-0.005h-64c0.054 17.651 14.349 31.946 31.995 32h0.005zM576 688h96v-32h-96zM64 512h112v-64h-112zM64 304h16c8.837 0 16-7.163 16-16s-7.163-16-16-16v0h-16zM256 0c-35.346 0-64 28.654-64 64s28.654 64 64 64c35.346 0 64-28.654 64-64v0c0-35.346-28.654-64-64-64v0zM800 0c-35.346 0-64 28.654-64 64s28.654 64 64 64c35.346 0 64-28.654 64-64v0c0-35.346-28.654-64-64-64v0zM960 128c0-8.837-7.163-16-16-16v0h-60.96c-16.864 28.897-47.721 48.006-83.040 48.006s-66.176-19.109-82.795-47.552l-0.245-0.454h-377.92c-16.864 28.897-47.721 48.006-83.040 48.006s-66.176-19.109-82.795-47.552l-0.245-0.454h-92.96c-8.837 0-16 7.163-16 16v0 48h896zM608 272h-416v32h416zM608 448h-112v64h112zM960 272h-16c-8.837 0-16 7.163-16 16s7.163 16 16 16v0h16zM960 336h-16c-26.51 0-48-21.49-48-48s21.49-48 48-48v0h16v-32h-320v32h208c8.837 0 16 7.163 16 16v0 64c0 8.837-7.163 16-16 16v0h-208v240c0 8.837-7.163 16-16 16s-16-7.163-16-16v0-32h-128c-8.837 0-16-7.163-16-16v0-96c0-8.837 7.163-16 16-16v0h128v-80h-432c-8.837 0-16-7.163-16-16v0-64c0-8.837 7.163-16 16-16v0h432v-32h-544v32h16c26.51 0 48 21.49 48 48s-21.49 48-48 48v0h-16v80h128c8.837 0 16 7.163 16 16v0 96c0 8.837-7.163 16-16 16v0h-128v64c0 8.837 7.163 16 16 16v0h689.28c4.851-0.025 9.194-2.181 12.143-5.58l0.017-0.020 22.56-26.4h-84c-26.477-0.082-47.918-21.523-48-47.992v-128.008c0.082-26.477 21.523-47.918 47.992-48h240.008zM640 272v32h192v-32zM960 400h-240c-8.837 0-16 7.163-16 16v0 128c0 8.837 7.163 16 16 16v0h111.52l124.64-145.44c2.363-2.791 3.809-6.424 3.84-10.393v-0.007zM256 432h32v-32c0-8.837 7.163-16 16-16v0h64c8.837 0 16 7.163 16 16v0 32h32c8.837 0 16 7.163 16 16v0 64c0 8.837-7.163 16-16 16v0h-32v32c0 8.837-7.163 16-16 16v0h-64c-8.837 0-16-7.163-16-16v0-32h-32c-8.837 0-16-7.163-16-16v0-64c0-8.837 7.163-16 16-16v0zM272 496h32c8.837 0 16 7.163 16 16v0 32h32v-32c0-8.837 7.163-16 16-16v0h32v-32h-32c-8.837 0-16-7.163-16-16v0-32h-32v32c0 8.837-7.163 16-16 16v0h-32zM463.584 778.144l41.6-24c2.317-1.381 5.109-2.197 8.092-2.197 8.837 0 16 7.163 16 16 0 5.928-3.224 11.104-8.015 13.868l-0.077 0.041-41.6 24c-2.317 1.381-5.109 2.197-8.092 2.197-8.837 0-16-7.163-16-16 0-5.928 3.224-11.104 8.015-13.868l0.077-0.041zM448 688h48c8.837 0 16 7.163 16 16s-7.163 16-16 16v0h-48c-8.837 0-16-7.163-16-16s7.163-16 16-16v0zM734.864 752c0.010 0 0.022 0 0.034 0 2.934 0 5.683 0.796 8.041 2.184l-0.074-0.040 41.6 24c4.868 2.806 8.092 7.981 8.092 13.909 0 8.837-7.163 16-16 16-2.983 0-5.775-0.816-8.166-2.238l0.074 0.041-41.6-24c-4.816-2.818-7.999-7.965-7.999-13.856 0-8.836 7.163-16 15.999-16v0zM736 704c0-8.837 7.163-16 16-16v0h48c8.837 0 16 7.163 16 16s-7.163 16-16 16v0h-48c-8.837 0-16-7.163-16-16v0z" />
<glyph unicode="&#xe90f;" glyph-name="next" d="M607.232 831.932l-39.738-44.954 349.534-308.978h-917.028v-60h917.028l-349.534-308.978 39.738-44.954 416.768 368.41v31.044z" />
<glyph unicode="&#xe910;" glyph-name="star" d="M957.152 520l-199.328-194.304 47.072-274.432c2.048-12-2.88-24.128-12.736-31.296-5.568-4.064-12.192-6.112-18.816-6.112-5.088 0-10.208 1.216-14.88 3.68l-246.464 129.568-246.432-129.536c-10.752-5.696-23.84-4.768-33.696 2.432-9.856 7.168-14.784 19.296-12.736 31.296l47.072 274.432-199.36 194.272c-8.704 8.512-11.872 21.248-8.096 32.8s13.792 20.032 25.856 21.792l275.488 40 123.2 249.664c10.784 21.856 46.624 21.856 57.408 0l123.2-249.664 275.488-40c12.064-1.76 22.080-10.208 25.856-21.792s0.608-24.256-8.096-32.8z" />
<glyph unicode="&#xe911;" glyph-name="star-1" d="M229.193-43.294c-11.219 0-22.36 3.5-31.868 10.375-17.711 12.836-25.985 34.899-21.165 56.189l65.877 290.187-223.412 195.927c-16.422 14.336-22.696 37.040-15.954 57.814 6.742 20.735 25.087 35.415 46.806 37.423l295.601 26.837 116.87 273.499c8.617 20.094 28.243 33.071 50.048 33.071s41.431-12.977 50.048-33.024l116.87-273.546 295.554-26.837c21.766-1.961 40.11-16.688 46.853-37.423s0.508-43.478-15.914-57.814l-223.412-195.888 65.877-290.179c4.828-21.336-3.453-43.4-21.157-56.197-17.665-12.797-41.22-13.782-59.822-2.602l-254.897 152.324-254.897-152.41c-8.617-5.117-18.219-7.727-27.907-7.727zM511.998 182.462c9.688 0 19.282-2.602 27.907-7.719l240.561-143.879-62.173 273.89c-4.438 19.493 2.18 39.845 17.243 53.033l210.951 185.005-279.093 25.344c-20.094 1.836-37.376 14.469-45.228 32.985l-110.167 258.1-110.3-258.139c-7.766-18.391-25.048-31.024-45.095-32.86l-279.132-25.344 210.943-185.005c15.11-13.227 21.719-33.54 17.243-53.079l-62.127-273.882 240.561 143.832c8.617 5.117 18.219 7.719 27.907 7.719zM342.821 626.169s0-0.047-0.047-0.086zM681.088 626.294l0.047-0.086c0 0.047 0 0.047-0.047 0.086z" />
<glyph unicode="&#xe912;" glyph-name="medal" d="M642.713 832.408c-112.636 56.916-248.318 35.154-337.621-54.15-103.79-103.788-114.178-269.281-24.162-384.949 3.182-4.088 7.938-6.228 12.746-6.228 3.464 0 6.954 1.11 9.9 3.404 7.034 5.474 8.298 15.612 2.826 22.646-80.038 102.844-70.788 250.004 21.514 342.307 79.42 79.424 200.076 98.78 300.245 48.166 7.952-4.024 17.66-0.828 21.68 7.126 4.018 7.954 0.83 17.66-7.128 21.678zM771.576 703.521c-4.020 7.954-13.722 11.146-21.682 7.13-7.954-4.018-11.148-13.722-7.13-21.68 50.578-100.152 31.212-220.792-48.19-300.193-92.304-92.3-239.462-101.548-342.307-21.514-7.036 5.472-17.172 4.208-22.646-2.824-5.474-7.034-4.208-17.172 2.826-22.646 52.688-41.004 115.71-61.172 178.532-61.172 75.094 0 149.904 28.822 206.418 85.336 89.282 89.28 111.054 224.936 54.178 337.563zM729.881 764.984c-3.998 4.524-8.198 8.992-12.484 13.276-4.286 4.286-8.752 8.486-13.276 12.484-6.678 5.904-16.878 5.272-22.776-1.406-5.906-6.676-5.278-16.874 1.4-22.776 4.030-3.56 8.010-7.304 11.83-11.122 3.816-3.82 7.56-7.798 11.122-11.828 3.188-3.608 7.632-5.45 12.098-5.45 3.798 0 7.61 1.334 10.68 4.046 6.68 5.9 7.308 16.098 1.406 22.776zM892.134 543.179c10.76 17.654 10.76 39.582-0.004 57.232l-21.23 34.814c-2.796 4.588-3.878 10.036-3.042 15.34l6.328 40.206c3.226 20.49-5.192 40.796-21.964 52.998l-32.902 23.932c-4.35 3.166-7.442 7.784-8.708 13.012l-9.582 39.598c-4.864 20.114-20.382 35.63-40.494 40.498l-39.6 9.584c-5.228 1.266-9.85 4.358-13.012 8.708l-23.936 32.91c-12.2 16.772-32.508 25.194-52.992 21.966l-40.22-6.328c-5.304-0.834-10.754 0.246-15.338 3.042l-34.82 21.236c-17.652 10.764-39.58 10.762-57.232 0l-34.816-21.23c-4.584-2.798-10.030-3.874-15.34-3.042l-40.208 6.328c-20.484 3.224-40.794-5.194-52.994-21.966l-23.932-32.902c-3.166-4.35-7.786-7.442-13.016-8.708l-39.598-9.582c-20.11-4.864-35.63-20.382-40.498-40.494l-9.584-39.6c-1.266-5.228-4.356-9.85-8.708-13.012l-32.91-23.936c-16.772-12.198-25.188-32.502-21.966-52.992l6.328-40.222c0.834-5.306-0.246-10.754-3.042-15.338l-21.234-34.822c-10.76-17.652-10.76-39.58 0.002-57.23l21.23-34.816c2.796-4.588 3.878-10.036 3.042-15.34l-6.328-40.208c-3.226-20.488 5.192-40.796 21.964-52.996l32.902-23.932c4.35-3.162 7.442-7.784 8.708-13.012l9.582-39.598c4.864-20.114 20.382-35.63 40.494-40.498l16.536-4.002-111.908-249.628c-2.378-5.306-1.72-11.478 1.726-16.162 3.444-4.684 9.138-7.154 14.914-6.462l90.044 10.766 51.872-74.382c3.036-4.35 7.99-6.906 13.232-6.906 0.502 0 1.010 0.024 1.514 0.070 5.788 0.544 10.838 4.162 13.216 9.464l114.29 254.958 14.482-8.83c8.826-5.382 18.72-8.072 28.616-8.072s19.79 2.692 28.616 8.072l15.004 9.148 114.434-255.276c2.378-5.306 7.426-8.92 13.216-9.464 0.506-0.048 1.012-0.072 1.514-0.072 5.242 0 10.198 2.556 13.232 6.906l51.872 74.382 90.044-10.766c5.772-0.686 11.47 1.778 14.914 6.462s4.106 10.856 1.726 16.162l-111.966 249.766 15.914 3.85c20.11 4.864 35.63 20.382 40.498 40.494l9.584 39.6c1.266 5.228 4.358 9.85 8.708 13.012l32.91 23.936c16.772 12.198 25.188 32.502 21.966 52.992l-6.328 40.222c-0.834 5.306 0.246 10.754 3.042 15.338l21.236 34.822zM336.817-15.256l-41.108 58.948c-3.408 4.888-9.236 7.504-15.152 6.792l-71.358-8.532 101.958 227.446c1.864-1.37 3.536-3.012 4.914-4.91l23.936-32.91c2.274-3.126 4.83-5.96 7.616-8.484l-53.666-119.714c-3.644-8.134-0.008-17.68 8.124-21.326 2.144-0.962 4.386-1.416 6.59-1.416 6.164 0 12.052 3.552 14.734 9.54l53.476 119.288c5.262-0.722 10.68-0.71 16.118 0.146l40.22 6.328c2.408 0.378 4.842 0.344 7.212-0.048l-103.614-231.148zM815.466 41.956l-71.36 8.528c-5.922 0.71-11.744-1.904-15.152-6.792l-41.108-58.948-103.658 231.238c2.174 0.296 4.392 0.296 6.586-0.048l40.206-6.328c5.658-0.89 11.296-0.862 16.758-0.048l53.516-119.384c2.686-5.99 8.57-9.54 14.734-9.54 2.206 0 4.448 0.454 6.59 1.416 8.132 3.644 11.77 13.194 8.124 21.326l-53.87 120.17c2.598 2.412 5 5.082 7.142 8.026l23.932 32.902c1.508 2.074 3.356 3.852 5.432 5.29l102.128-227.808zM864.576 559.983l-21.234-34.822c-6.77-11.108-9.39-24.304-7.368-37.156l6.328-40.22c1.33-8.458-2.146-16.84-9.068-21.876l-32.912-23.938c-10.534-7.664-18.026-18.858-21.090-31.52l-9.584-39.6c-2.010-8.302-8.414-14.708-16.718-16.718l-39.6-9.582c-12.664-3.064-23.86-10.556-31.524-21.092l-23.932-32.902c-5.036-6.926-13.416-10.398-21.878-9.066l-40.208 6.328c-12.854 2.022-26.052-0.594-37.162-7.368l-34.814-21.23c-7.286-4.44-16.342-4.44-23.624 0l-34.822 21.232c-8.66 5.282-18.588 8.034-28.634 8.034-2.84 0-5.694-0.22-8.524-0.666l-40.222-6.328c-8.46-1.332-16.84 2.146-21.876 9.068l-23.938 32.91c-7.664 10.534-18.858 18.026-31.52 21.090l-39.6 9.584c-8.302 2.010-14.708 8.414-16.718 16.718l-9.582 39.598c-3.064 12.664-10.554 23.862-21.092 31.526l-32.9 23.934c-6.924 5.036-10.398 13.42-9.066 21.878l6.328 40.208c2.022 12.854-0.594 26.050-7.368 37.16l-21.23 34.818c-4.442 7.286-4.442 16.34 0 23.624l21.234 34.822c6.772 11.108 9.39 24.304 7.368 37.156l-6.328 40.22c-1.33 8.458 2.146 16.84 9.068 21.876l32.912 23.938c10.534 7.664 18.026 18.858 21.090 31.52l9.584 39.6c2.010 8.302 8.414 14.708 16.718 16.718l39.6 9.582c12.664 3.064 23.86 10.556 31.522 21.092l23.932 32.902c5.036 6.924 13.416 10.402 21.878 9.068l40.208-6.328c12.856-2.026 26.054 0.594 37.162 7.368l34.814 21.23c7.286 4.44 16.342 4.44 23.624 0l34.822-21.232c11.108-6.776 24.308-9.394 37.158-7.37l40.222 6.328c8.456 1.326 16.84-2.146 21.876-9.068l23.938-32.91c7.664-10.534 18.858-18.026 31.52-21.090l39.6-9.584c8.302-2.010 14.708-8.414 16.718-16.718l9.582-39.598c3.064-12.664 10.554-23.862 21.092-31.526l32.902-23.932c6.924-5.036 10.398-13.42 9.066-21.878l-6.328-40.208c-2.022-12.854 0.594-26.050 7.368-37.16l21.23-34.818c4.444-7.286 4.444-16.34 0-23.626zM700.833 622.005c-3.556 10.948-12.866 18.592-24.298 19.948l-97.102 11.514-40.956 88.79c-4.822 10.452-14.968 16.946-26.48 16.946-11.51 0-21.658-6.494-26.48-16.946l-40.956-88.792-97.102-11.514c-11.432-1.356-20.744-9-24.298-19.948-3.556-10.942-0.516-22.6 7.932-30.414l71.79-66.39-19.056-95.908c-2.242-11.292 2.15-22.508 11.464-29.272 5.138-3.732 11.1-5.622 17.1-5.622 4.878 0 9.778 1.248 14.28 3.768l85.324 47.758 85.324-47.758c10.046-5.624 22.068-4.914 31.382 1.852s13.706 17.984 11.462 29.274l-19.056 95.906 71.79 66.39c8.452 7.814 11.492 19.47 7.936 30.418zM592.565 542.759c-4.12-3.81-5.964-9.488-4.872-14.992l19.5-98.142-87.316 48.874c-2.448 1.37-5.164 2.056-7.882 2.056s-5.432-0.684-7.882-2.056l-87.316-48.874 19.5 98.142c1.096 5.506-0.75 11.182-4.872 14.992l-73.464 67.94 99.372 11.782c5.572 0.66 10.402 4.17 12.754 9.264l41.91 90.862 41.91-90.862c2.352-5.094 7.18-8.604 12.754-9.264l99.368-11.782-73.464-67.94z" />
<glyph unicode="&#xe913;" glyph-name="safety" d="M937.296 625.248c-3.633 0.715-7.81 1.124-12.083 1.124-30.606 0-56.309-20.99-63.499-49.359l-0.097-0.453-37.792-140.8c-9.911 6.641-22.107 10.599-35.227 10.599-11.774 0-22.803-3.187-32.273-8.746l0.3 0.163-109.408-64.176c-42.812-25.531-71.076-71.545-71.216-124.172v-121.428h-32c-8.837 0-16-7.163-16-16v0-128c0-8.837 7.163-16 16-16v0h288c8.837 0 16 7.163 16 16v0 128c0 8.837-7.163 16-16 16v0h-32v18.56c0 0.004 0 0.008 0 0.012 0 14.546 6.47 27.581 16.689 36.383l0.063 0.053 74.608 64c11.98 10.286 20.819 23.916 25.085 39.44l0.131 0.56 69.424 259.072c1.372 4.915 2.161 10.558 2.161 16.386 0 0.095 0 0.19-0.001 0.285v-0.015c-0.17 30.605-21.705 56.131-50.438 62.434l-0.426 0.078zM816 0h-256v96h256zM955.104 554.384l-69.44-259.104c-2.628-9.652-7.93-17.832-15.056-23.946l-0.064-0.054-74.608-64c-17.141-14.755-27.93-36.477-27.936-60.719v-18.561h-160v121.408c0.088 40.942 22.049 76.736 54.815 96.324l0.513 0.284 109.28 64.112c4.593 2.684 10.111 4.27 15.999 4.272h0.001c0.084 0.001 0.183 0.001 0.282 0.001 12.348 0 23.040-7.089 28.228-17.42l0.083-0.182c1.887-4.069 2.987-8.831 2.987-13.85 0-12.679-7.023-23.717-17.39-29.438l-0.173-0.088-89.6-51.632c-4.824-2.819-8.014-7.973-8.014-13.872 0-8.844 7.169-16.014 16.014-16.014 2.945 0 5.705 0.795 8.076 2.182l-0.076-0.041 89.6 51.632c20.147 11.386 33.525 32.663 33.525 57.064 0 7.683-1.326 15.057-3.763 21.904l0.142-0.457 44.016 164c3.712 15.029 17.079 25.998 33.007 25.998 1.83 0 3.626-0.145 5.378-0.424l-0.193 0.025c14.521-3.171 25.259-15.844 25.424-31.054v-0.018c0.001-0.071 0.001-0.154 0.001-0.238 0-2.879-0.386-5.669-1.108-8.319l0.051 0.221zM480 128h-32v121.408c-0.116 52.639-28.351 98.657-70.477 123.843l-0.659 0.365-109.536 64.256c-9.158 5.371-20.168 8.542-31.919 8.542-13.141 0-25.356-3.967-35.513-10.768l0.231 0.146-37.776 140.8c-7.329 28.823-33.049 49.803-63.67 49.803-4.258 0-8.422-0.406-12.454-1.181l0.411 0.066c-29.254-6.34-50.848-32.004-50.848-62.712 0-5.846 0.783-11.508 2.249-16.889l-0.104 0.449 69.44-259.104c4.383-16.085 13.219-29.718 25.094-39.911l0.106-0.089 74.608-64c10.313-8.851 16.808-21.898 16.816-36.463v-18.561h-32c-8.837 0-16-7.163-16-16v0-128c0-8.837 7.163-16 16-16v0h288c8.837 0 16 7.163 16 16v0 128c0 8.837-7.163 16-16 16v0zM228.064 207.312l-74.608 64c-7.195 6.164-12.498 14.346-15.042 23.666l-0.078 0.334-69.44 259.088c-0.671 2.428-1.057 5.216-1.057 8.093 0 0.080 0 0.159 0.001 0.239v-0.012c0.098 15.296 10.874 28.047 25.244 31.177l0.212 0.039c1.547 0.25 3.331 0.392 5.148 0.392 15.935 0 29.31-10.963 32.994-25.758l0.049-0.234 44.016-163.984c-2.298-6.395-3.626-13.773-3.626-21.461 0-24.403 13.38-45.681 33.205-56.898l0.325-0.169 89.6-51.632c2.295-1.346 5.055-2.142 8-2.142 8.844 0 16.014 7.169 16.014 16.014 0 5.899-3.189 11.053-7.938 13.831l-0.076 0.041-89.6 51.632c-10.548 5.807-17.576 16.849-17.576 29.533 0 5.017 1.099 9.776 3.070 14.052l-0.086-0.209c5.31 10.434 15.969 17.457 28.268 17.457 0.097 0 0.194 0 0.29-0.001h-0.015c0.021 0 0.045 0 0.070 0 5.824 0 11.284-1.556 15.988-4.274l-0.154 0.082 109.408-64.208c33.281-19.863 55.244-55.653 55.328-96.58v-121.42h-160v18.56c0 0.004 0 0.008 0 0.012 0 24.251-10.79 45.981-27.831 60.652l-0.105 0.088zM464 0h-256v96h256zM768 710.4v201.6c0 0.009 0 0.020 0 0.032 0 8.837-7.163 16-16 16-2.946 0-5.705-0.796-8.076-2.184l0.075 0.041-22.8-13.024c-25.070-14.611-55.183-23.237-87.31-23.237-28.688 0-55.769 6.877-79.686 19.073l0.995-0.461-36.176 18.080c-2.084 1.064-4.545 1.687-7.152 1.687s-5.068-0.623-7.243-1.729l0.091 0.042-35.92-18.016c-22.941-11.764-50.051-18.659-78.77-18.659-32.122 0-62.229 8.625-88.132 23.685l0.839-0.45-22.736 13.008c-2.295 1.348-5.055 2.144-8 2.144-8.837 0-16-7.163-16-16 0-0.011 0-0.022 0-0.033v0.002-201.6c0-0.127 0-0.277 0-0.428 0-151.886 84.804-283.966 209.647-351.471l2.114-1.045 36.704-19.568c2.181-1.188 4.777-1.886 7.536-1.886s5.355 0.698 7.62 1.928l-0.084-0.042 36.704 19.568c126.955 68.543 211.76 200.616 211.76 352.497 0 0.157 0 0.315 0 0.472v-0.025zM512 370.128l-29.168 15.568c-116.806 63.062-194.832 184.578-194.832 324.317 0 0.136 0 0.272 0 0.408v-0.021 174.032c29.351-16.868 64.535-26.817 102.042-26.817 33.917 0 65.934 8.135 94.205 22.561l-1.175-0.544 28.8 14.4 29.024-14.496c27.077-13.86 59.069-21.982 92.957-21.982 37.55 0 72.77 9.972 103.158 27.413l-1.011-0.535v-174.032c0-0.121 0-0.264 0-0.407 0-139.734-78.027-261.243-192.887-323.336l-1.945-0.962zM704 815.456c0 0.002 0 0.005 0 0.008 0 8.837-7.163 16-16 16-1.196 0-2.361-0.131-3.482-0.38l0.106 0.020c-15.162-3.38-32.577-5.317-50.444-5.317-39.175 0-76.175 9.31-108.909 25.839l1.385-0.634-7.552 3.76c-2.096 1.079-4.574 1.712-7.2 1.712s-5.104-0.633-7.29-1.754l0.090 0.042-7.392-3.696c-31.366-15.922-68.392-25.25-107.596-25.25-17.859 0-35.265 1.935-52.021 5.608l1.601-0.294c-0.991 0.218-2.129 0.343-3.296 0.343-8.833 0-15.995-7.158-16-15.991v-105.073c0-0.111 0-0.243 0-0.375 0-127.58 71.241-238.521 176.112-295.211l1.776-0.878 6.576-3.52c2.179-1.185 4.772-1.882 7.528-1.882s5.349 0.697 7.612 1.923l-0.084-0.042 6.592 3.52c106.647 57.569 177.888 168.509 177.888 296.089 0 0.132 0 0.263 0 0.395v-0.021zM672 710.4c0-0.098 0-0.215 0-0.332 0-115.056-64.035-215.155-158.411-266.603l-1.59-0.793c-95.965 52.241-160 152.341-160 267.396 0 0.117 0 0.233 0 0.35v-0.018 85.968c11.327-1.657 24.403-2.604 37.7-2.604 44.457 0 86.444 10.578 123.58 29.354l-1.568-0.719 0.288 0.16 0.384-0.208c35.53-18.042 77.473-28.611 121.884-28.611 13.309 0 26.396 0.949 39.197 2.783l-1.465-0.172zM602.512 737.136l-122.512-122.512-49.952 49.952c-2.874 2.779-6.795 4.491-11.115 4.491-8.837 0-16-7.163-16-16 0-4.321 1.712-8.241 4.496-11.12l61.26-61.26c2.895-2.894 6.895-4.685 11.312-4.685s8.417 1.79 11.312 4.685l133.824 133.824c3.014 2.914 4.885 6.993 4.885 11.509 0 8.837-7.163 16-16 16-4.516 0-8.595-1.871-11.504-4.88l-0.004-0.004z" />
<glyph unicode="&#xe914;" glyph-name="health-insurance" d="M984.272 341.68l-0.224 0.384c-13.754 20.718-36.985 34.189-63.362 34.189-12.553 0-24.394-3.051-34.82-8.452l0.422 0.199-102.528-52.432c-16.2 22.543-42.347 37.052-71.884 37.052-14.642 0-28.451-3.566-40.607-9.876l0.491 0.232-129.12-66.176c-6.244-3.284-13.643-5.211-21.492-5.211-8.056 0-15.637 2.030-22.261 5.606l0.249-0.123-88 46.72c-27.849 15.16-60.99 24.073-96.213 24.073-43.912 0-84.589-13.854-117.897-37.429l0.638 0.428-9.936 47.392c-1.576 7.311-7.987 12.71-15.658 12.71-1.192 0-2.354-0.13-3.472-0.378l0.106 0.020-124.080-26.768c-7.269-1.609-12.626-7.999-12.626-15.64 0-1.159 0.123-2.288 0.357-3.377l-0.019 0.105 72.24-344.208c1.539-7.346 7.956-12.786 15.646-12.8h0.002c1.193 0.006 2.352 0.134 3.471 0.372l-0.111-0.020 124.144 26.72c7.271 1.607 12.629 7.998 12.629 15.641 0 1.164-0.124 2.299-0.36 3.392l0.019-0.105-6.4 30.8 42.416 9.136c6.896 1.542 14.817 2.425 22.943 2.425 5.174 0 10.265-0.358 15.249-1.051l-0.576 0.066 199.488-21.872c6.742-0.941 14.532-1.478 22.447-1.478 35.67 0 68.792 10.909 96.211 29.572l-0.595-0.382 319.568 214.4c12.874 8.802 21.213 23.414 21.213 39.975 0 9.724-2.875 18.777-7.822 26.354l0.113-0.185zM132.576 3.024l-65.6 312.88 92.8 20 65.6-312.896zM952.96 302.064l-319.568-214.4c-21.826-14.82-48.754-23.661-77.748-23.661-6.6 0-13.094 0.458-19.45 1.344l0.734-0.084-199.488 21.872c-5.596 0.796-12.060 1.25-18.629 1.25-10.474 0-20.677-1.155-30.491-3.344l0.929 0.174-42.272-9.088-42.176 200.672 10.928 7.616c27.623 19.646 62.044 31.409 99.213 31.409 29.715 0 57.675-7.518 82.080-20.756l-0.909 0.451 88-46.72c10.727-5.814 23.486-9.232 37.042-9.232 13.18 0 25.606 3.231 36.529 8.943l-0.435-0.207 129.152 66.256c7.488 3.907 16.353 6.2 25.754 6.2 20.817 0 39.009-11.24 48.838-27.981l0.144-0.266c1.373-2.327 2.184-5.127 2.184-8.117 0-5.858-3.114-10.988-7.776-13.827l-0.071-0.040-178.048-105.6c-20.643-12.51-45.588-19.914-72.263-19.914-11.093 0-21.887 1.28-32.243 3.702l0.954-0.188-160.576 38.4-7.424-31.136 160.72-38.4c11.603-2.776 24.926-4.368 38.62-4.368 32.679 0 63.24 9.065 89.306 24.818l-0.774-0.434 178.048 105.6c14.053 8.542 23.297 23.769 23.297 41.156 0 0.454-0.006 0.907-0.019 1.359l0.001-0.066 105.728 54.096c5.764 2.989 12.584 4.743 19.814 4.743 15.172 0 28.54-7.721 36.391-19.448l0.1-0.158 0.176-0.272c1.653-2.52 2.636-5.609 2.636-8.927 0-5.524-2.726-10.412-6.906-13.391l-0.050-0.034zM104.253 291.325l31.317 6.578 6.571-31.285-31.317-6.578-6.571 31.285zM502.576 323.072c2.607-1.918 5.881-3.070 9.424-3.070s6.817 1.152 9.468 3.101l-0.044-0.031c160.544 117.104 259.376 228.768 295.28 332.928h82.24c6.788-18.803 24.48-32 45.255-32 26.51 0 48 21.49 48 48s-21.49 48-48 48c-20.774 0-38.466-13.197-45.149-31.666l-0.106-0.334h-73.344c2.472 10.134 4.48 22.349 5.607 34.819l0.073 1.005c0.775 6.305 1.217 13.604 1.217 21.006 0 44.027-15.648 84.399-41.686 115.858l0.244-0.304c-31.192 41.243-80.164 67.616-135.296 67.616-0.067 0-0.135 0-0.202 0h0.010c-55.16-2.222-105.043-23.142-143.877-56.548l0.309 0.26c-38.525 33.146-88.408 54.066-143.11 56.273l-0.458 0.015c-0.055 0-0.119 0-0.184 0-55.144 0-104.128-26.372-135.029-67.192l-0.308-0.424c-25.783-31.163-41.423-71.538-41.423-115.566 0-7.398 0.442-14.692 1.3-21.859l-0.084 0.865c9.648-122.96 113.904-257.808 309.872-400.752zM944 688c8.837 0 16-7.163 16-16s-7.163-16-16-16c-8.837 0-16 7.163-16 16v0c0 8.837 7.163 16 16 16v0zM256.704 838.992c0.732 0.724 1.39 1.52 1.965 2.377l0.035 0.055c25.383 33.301 65.071 54.575 109.728 54.576v0c74.144 0 131.68-56.464 132.256-57.024 2.896-2.899 6.899-4.693 11.32-4.693s8.424 1.793 11.32 4.692v0c0.576 0.592 57.696 57.024 132.24 57.024 0.153 0.001 0.334 0.001 0.515 0.001 44.502 0 84.033-21.287 108.964-54.234l0.248-0.342c0.61-0.912 1.268-1.708 1.999-2.431l0.001-0.001c20.728-25.369 33.287-58.117 33.287-93.799 0-6.625-0.433-13.149-1.272-19.545l0.081 0.753c-1.192-14.242-3.514-27.324-6.918-39.963l0.358 1.563h-127.552l-59.392 104c-2.802 4.88-7.984 8.114-13.922 8.114-6.717 0-12.468-4.14-14.84-10.007l-0.038-0.107-79.12-198-50.688 164.704c-2.075 6.596-8.135 11.296-15.293 11.296-5.793 0-10.867-3.079-13.675-7.689l-0.040-0.071-43.344-72.24h-102.928v-32h112c5.792 0.001 10.865 3.080 13.672 7.689l0.040 0.071 29.488 49.232 53.456-173.696c2.037-6.353 7.77-10.922 14.609-11.199l0.031-0.001h0.704c0.002 0 0.004 0 0.006 0 6.698 0 12.435 4.116 14.82 9.957l0.039 0.107 83.68 209.232 47.568-83.2c2.779-4.902 7.949-8.162 13.884-8.192h126.404c-29.616-75.392-103.28-176.512-270.4-300.144-225.456 166.784-280.816 292.656-287.296 369.264-0.859 6.007-1.35 12.944-1.35 19.996 0 35.717 12.584 68.494 33.56 94.141l-0.21-0.265zM32 688h128v-32h-128v32z" />
<glyph unicode="&#xe915;" glyph-name="money-exchange" d="M176.080 750.4c0.151-1.487 0.483-2.851 0.977-4.135l-0.037 0.109 48-128c1.117-2.928 2.971-5.362 5.34-7.153l0.040-0.029 57.6-43.192v-248c0-8.837 7.163-16 16-16v0h144v-144c0-8.837 7.163-16 16-16v0h169.158l0.8-1.782c15.884-35.226 39.765-64.409 69.44-86.151l0.602-0.421v-71.646c0-8.837 7.163-16 16-16v0h128c0 0 0 0 0 0 8.837 0 16 7.163 16 16 0 0.563-0.029 1.12-0.086 1.669l0.006-0.069-16 160c-0.151 1.487-0.483 2.851-0.977 4.135l0.037-0.109-48 128c-1.117 2.928-2.971 5.362-5.34 7.153l-0.040 0.029-57.6 43.192v248c0 8.837-7.163 16-16 16v0h-144v144c0 8.837-7.163 16-16 16v0h-169.158l-0.8 1.782c-15.884 35.226-39.765 64.409-69.44 86.151l-0.602 0.421v71.646c0 8.837-7.163 16-16 16v0h-128c0 0 0 0 0 0-8.837 0-16-7.163-16-16 0-0.563 0.029-1.12 0.086-1.669l-0.006 0.069zM480 176v128h32v-48c0-8.837 7.163-16 16-16v0c8.832-0.010 15.99-7.168 16-15.999v-0.001c0-8.837 7.163-16 16-16v0h44.712l14.224-32zM736 192v96l34.66-26 45.628-121.67 14.032-140.33h-94.32v64c0 5.528-2.804 10.402-7.067 13.276l-0.057 0.036c-28.657 19.278-51.151 45.699-65.211 76.753l-0.465 1.149-30.138 67.786c-0.792 1.734-1.254 3.761-1.254 5.896 0 8.004 6.488 14.492 14.492 14.492 5.253 0 9.854-2.795 12.395-6.98l0.036-0.064 31.548-52.578c2.847-4.685 7.923-7.766 13.719-7.766 0 0 0.001 0 0.001 0h16c8.837 0 16 7.163 16 16v0zM576 560h128v-336.902l-17.826 29.702c-3.633 5.99-8.385 10.941-14.006 14.694l-0.168 0.106v212.4c0 8.837-7.163 16-16 16v0c-8.832 0.010-15.99 7.168-16 15.999v0.001c0 8.837-7.163 16-16 16v0h-48zM576 496h34.742c4.972-13.688 15.57-24.286 28.923-29.151l0.335-0.107v-34.786c-13.157 10.017-29.821 16.049-47.894 16.049-5.702 0-11.264-0.6-16.627-1.742l0.52 0.093zM576 413.258c4.739 1.737 10.211 2.742 15.918 2.742 0.029 0 0.058 0 0.087 0h-0.005c0.027 0 0.060 0 0.092 0 26.51 0 48-21.49 48-48s-21.49-48-48-48c-5.77 0-11.302 1.018-16.426 2.884l0.334-0.106zM592 288c0.025 0 0.054 0 0.083 0 18.080 0 34.751 6.029 48.113 16.187l-0.196-0.143v-29.056c-19.015-2.716-34.173-16.583-38.759-34.666l-0.069-0.322h-27.914c-4.972 13.688-15.57 24.286-28.923 29.151l-0.335 0.107v34.742h0.020c13.194-9.989 29.881-16 47.973-16 0.003 0 0.005 0 0.008 0v0zM544 720v-384h-224v336.902l17.826-29.712c3.633-5.99 8.385-10.941 14.006-14.694l0.168-0.106v-212.39c0-8.837 7.163-16 16-16v0c8.832-0.010 15.99-7.168 16-15.999v-0.001c0-8.837 7.163-16 16-16v0h64c8.837 0 16 7.163 16 16v0c0.010 8.832 7.168 15.99 15.999 16h0.001c8.837 0 16 7.163 16 16v0 224c0 8.837-7.163 16-16 16v0c-8.832 0.010-15.99 7.168-16 15.999v0.001c0 8.837-7.163 16-16 16v0h-44.712l-14.224 32zM432 448c0.025 0 0.054 0 0.083 0 18.080 0 34.751 6.029 48.113 16.187l-0.196-0.143v-34.786c-13.688-4.972-24.286-15.57-29.151-28.923l-0.107-0.335h-37.484c-4.972 13.688-15.57 24.286-28.923 29.151l-0.335 0.107v34.786c13.166-10.015 29.837-16.044 47.917-16.044 0.029 0 0.058 0 0.088 0h-0.005zM384 528c0 26.51 21.49 48 48 48s48-21.49 48-48c0-26.51-21.49-48-48-48v0c-26.497 0.032-47.968 21.503-48 47.997v0.003zM422.828 656h27.914c4.972-13.688 15.57-24.286 28.923-29.151l0.335-0.107v-34.786c-13.195 10.015-29.893 16.044-48 16.044s-34.805-6.029-48.198-16.188l0.198 0.144v29.058c19.014 2.716 34.172 16.582 38.759 34.664l0.069 0.322zM288 896v-64c0-5.528 2.804-10.402 7.067-13.276l0.057-0.036c28.657-19.278 51.151-45.699 65.211-76.753l0.465-1.149 30.138-67.786c0.792-1.734 1.254-3.761 1.254-5.896 0-8.004-6.488-14.492-14.492-14.492-5.253 0-9.854 2.795-12.395 6.98l-0.036 0.064-31.548 52.576c-2.847 4.686-7.923 7.768-13.72 7.768 0 0 0 0 0 0h-16c-8.837 0-16-7.163-16-16v0-96l-34.66 26-45.628 121.67-14.032 140.33zM634.434 746.126c135.211-51.336 229.566-179.821 229.566-330.344 0-34.678-5.008-68.186-14.34-99.841l0.63 2.493-2.93 10.046c-2.003 6.711-8.12 11.52-15.36 11.52-8.837 0-16-7.163-16-16 0-1.596 0.234-3.138 0.669-4.593l-0.029 0.113 14-48c1.998-6.712 8.113-11.522 15.352-11.522 1.328 0 2.618 0.162 3.852 0.467l-0.11-0.023 50 12c7.127 1.717 12.341 8.037 12.341 15.576 0 8.837-7.163 16-16 16-1.352 0-2.665-0.168-3.919-0.483l0.11 0.024-14.056-3.374c11.313 34.586 17.837 74.39 17.837 115.716 0 164.181-102.963 304.313-247.841 359.347l-2.64 0.881c-1.617 0.603-3.485 0.951-5.435 0.951-8.837 0-16-7.163-16-16 0-6.788 4.228-12.589 10.194-14.914l0.109-0.037zM136.666 539.456l13.828 6.336c-14.25-38.409-22.495-82.779-22.495-129.074 0-0.252 0-0.505 0.001-0.757v0.039c0-211.738 172.262-384 384-384 0.103 0 0.225 0 0.347 0 41.624 0 81.701 6.625 119.233 18.879l-2.714-0.767c6.483 2.143 11.078 8.147 11.078 15.224 0 8.837-7.163 16-16 16-1.718 0-3.372-0.271-4.923-0.772l0.113 0.032c-31.911-10.525-68.642-16.596-106.791-16.596-0.12 0-0.241 0-0.361 0h0.019c-194.094 0-352 157.906-352 352 0 0.183-0.001 0.4-0.001 0.617 0 41.065 7.073 80.478 20.068 117.086l-0.758-2.447 3.92-9.4c2.476-5.831 8.154-9.847 14.77-9.847 8.837 0 16.001 7.164 16.001 16.001 0 2.221-0.452 4.336-1.27 6.259l0.040-0.105-20 48c-2.476 5.831-8.154 9.845-14.769 9.845-2.418 0-4.711-0.536-6.765-1.497l0.098 0.041-48-22c-5.459-2.625-9.16-8.113-9.16-14.464 0-8.837 7.163-16 16-16 2.35 0 4.583 0.507 6.593 1.417l-0.101-0.041z" />
<glyph unicode="&#xe916;" glyph-name="calendar" d="M984 256c22.092 0 40 17.908 40 40v424c0 88.224-71.776 160-160 160h-52v40c0 22.092-17.908 40-40 40s-40-17.908-40-40v-40h-182v40c0 22.092-17.908 40-40 40s-40-17.908-40-40v-40h-180v40c0 22.092-17.908 40-40 40s-40-17.908-40-40v-40h-50c-88.224 0-160-71.776-160-160v-624c0-88.224 71.776-160 160-160h704c88.224 0 160 71.776 160 160 0 22.092-17.908 40-40 40s-40-17.908-40-40c0-44.112-35.888-80-80-80h-704c-44.112 0-80 35.888-80 80v624c0 44.112 35.888 80 80 80h50v-40c0-22.092 17.908-40 40-40s40 17.908 40 40v40h180v-40c0-22.092 17.908-40 40-40s40 17.908 40 40v40h182v-40c0-22.092 17.908-40 40-40s40 17.908 40 40v40h52c44.112 0 80-35.888 80-80v-424c0-22.092 17.908-40 40-40zM290 540c0-22.091-17.909-40-40-40s-40 17.909-40 40c0 22.091 17.909 40 40 40s40-17.909 40-40zM638 540c0-22.091-17.909-40-40-40s-40 17.909-40 40c0 22.091 17.909 40 40 40s40-17.909 40-40zM812 540c0-22.091-17.909-40-40-40s-40 17.909-40 40c0 22.091 17.909 40 40 40s40-17.909 40-40zM290 366c0-22.091-17.909-40-40-40s-40 17.909-40 40c0 22.091 17.909 40 40 40s40-17.909 40-40zM290 192c0-22.091-17.909-40-40-40s-40 17.909-40 40c0 22.091 17.909 40 40 40s40-17.909 40-40zM464 540c0-22.091-17.909-40-40-40s-40 17.909-40 40c0 22.091 17.909 40 40 40s40-17.909 40-40zM464 366c0-22.091-17.909-40-40-40s-40 17.909-40 40c0 22.091 17.909 40 40 40s40-17.909 40-40zM464 192c0-22.091-17.909-40-40-40s-40 17.909-40 40c0 22.091 17.909 40 40 40s40-17.909 40-40zM638 366c0-22.091-17.909-40-40-40s-40 17.909-40 40c0 22.091 17.909 40 40 40s40-17.909 40-40zM812 366c0-22.091-17.909-40-40-40s-40 17.909-40 40c0 22.091 17.909 40 40 40s40-17.909 40-40zM638 192c0-22.091-17.909-40-40-40s-40 17.909-40 40c0 22.091 17.909 40 40 40s40-17.909 40-40z" />
<glyph unicode="&#xe917;" glyph-name="pin" d="M512 960c-211.75 0-384-172.27-384-384 0-283.292 354.292-620 369.376-634.208 4.124-3.854 9.374-5.792 14.624-5.792s10.5 1.938 14.626 5.792c15.082 14.208 369.374 350.916 369.374 634.208 0 211.73-172.25 384-384 384zM512 362.666c-117.626 0-213.334 95.708-213.334 213.334s95.71 213.334 213.334 213.334 213.334-95.71 213.334-213.334-95.708-213.334-213.334-213.334z" />
<glyph unicode="&#xe918;" glyph-name="mission" d="M368 592c52.944 0 96 43.056 96 96s-43.056 96-96 96-96-43.056-96-96 43.056-96 96-96zM368 752c35.296 0 64-28.704 64-64s-28.704-64-64-64-64 28.704-64 64 28.704 64 64 64zM113.328 551.328l-3.040-12.24 13.424-13.408-48.992-62.992 67.968-67.968 63.008 48.992 13.424-13.424 12.224 3.056c12.704 3.168 25.168 7.024 37.504 11.216l115.152-115.184 32 32v164.224c13.2 10.656 26.032 21.824 38.096 33.888l29.456 29.44c90.576 90.576 140.448 210.992 140.448 339.072v16h-16c-128.080 0-248.496-49.888-339.072-140.448l-29.456-29.44c-12.064-12.064-23.232-24.896-33.888-38.096h-164.208l-32-32 115.168-115.168c-4.192-12.352-8.048-24.832-11.216-37.52zM117.296 465.328l92.208 118.544 54.368-54.368-118.544-92.192zM384 374.624l-82.432 82.416c28.88 12.208 56.496 27.152 82.432 44.736zM575.536 807.088l-88.464 88.464c33.76 9.424 68.832 14.896 104.64 16.176-1.264-35.824-6.752-70.88-16.176-104.64zM262.096 751.472l29.456 29.44c46.512 46.496 101.472 81.424 161.392 103.52l111.504-111.504c-22.096-59.92-57.024-114.88-103.52-161.392l-29.456-29.44c-54-54-120.944-93.040-194.24-113.856l74.896 58.256-105.632 105.632-58.256-74.912c20.816 73.312 59.872 140.272 113.856 194.256zM54.624 704h127.152c-17.584-25.936-32.528-53.536-44.72-82.416zM736.989 330.289l29.711 11.91 12.999-32.428-29.711-11.91zM792.816 277.040l-29.728-11.872 71.264-178.16 82.336-82.32 22.624 22.624-77.664 77.68zM826.832 400h-145.456l-163.68-163.68-45.136 67.68h-143.184l-313.376-313.376v-38.624h992v118.624l-82.352 82.352zM624-16h-569.376l288 288h112.816l91.248-136.88 77.312-77.744zM976-16h-320v86.624l-83.568 83.568-36.656 54.976 158.848 158.832h110.544l93.184-232.992 77.648-77.632zM150.176 29.016l22.624 22.624 22.624-22.624-22.624-22.624zM285.952 164.741l22.624 22.624 22.624-22.624-22.624-22.624zM240.704 119.496l22.624 22.624 22.624-22.624-22.624-22.624zM195.424 74.245l22.624 22.624 22.624-22.624-22.624-22.624zM402.875 231.288l26.624 17.76 15.655-23.469-26.624-17.76zM459.424 203.712l-26.624-17.744 65.888-98.848 18.32-18.768 22.64 22.64-15.216 15.2zM784 432h32v384h-28.736l76.736 87.696 76.736-87.696h-28.736v-512h32v480h67.264l-147.264 168.304-147.264-168.304h67.264zM912 272h32v-32h-32zM704 528h67.264l-147.264 168.304-147.264-168.304h67.264v-192h32v224h-28.736l76.736 87.696 76.736-87.696h-28.736v-64h32zM672 464h32v-32h-32z" />
<glyph unicode="&#xe919;" glyph-name="checked" d="M999.127 508.344l-69.839 69.826c-16.575 16.575-30.158 49.331-30.158 72.821v98.752c0 46.976-38.376 85.352-85.339 85.377h-98.792c-23.463 0-56.256 13.608-72.834 30.171l-69.826 69.826c-33.178 33.178-87.502 33.178-120.68 0l-69.826-69.876c-16.59-16.575-49.421-30.146-72.834-30.146h-98.752c-46.913 0-85.339-38.376-85.339-85.352v-98.754c0-23.398-13.58-56.256-30.158-72.821l-69.839-69.826c-33.203-33.178-33.203-87.502 0-120.732l69.839-69.826c16.588-16.575 30.158-49.421 30.158-72.821v-98.754c0-46.926 38.426-85.352 85.339-85.352h98.754c23.463 0 56.256-13.58 72.834-30.146l69.826-69.851c33.178-33.153 87.502-33.153 120.68 0l69.826 69.851c16.59 16.575 49.371 30.146 72.834 30.146h98.792c46.963 0 85.339 38.426 85.339 85.352v98.754c0 23.5 13.593 56.256 30.158 72.821l69.839 69.826c33.151 33.231 33.151 87.557-0.003 120.735zM444.261 255.986l-188.279 188.304 60.341 60.329 127.952-127.952 263.39 263.328 60.326-60.329-323.731-323.679z" />
<glyph unicode="&#xe91a;" glyph-name="airplane" d="M977.314 320.656l29.297 29.289c18.438 18.445 18.438 48.453 0 66.899-8.938 8.93-20.813 13.852-33.453 13.852-9.484 0-18.547-2.773-26.25-7.938l-6.172 20.719 31.711 31.719c18.445 18.445 18.445 48.453 0 66.891-16.977 16.984-43.742 18.289-62.281 4l-37.578 126.156c15.008 14.453 29.383 28.516 42.93 42.063 39.039 39.047 70.781 80.367 89.383 116.367 31.43 60.844 18.273 93.367 1.703 109.938-16.563 16.57-49.086 29.719-109.938-1.711-35.992-18.594-77.32-50.336-116.36-89.383-13.547-13.547-27.617-27.914-42.063-42.922l-126.164 37.578c14.289 18.531 12.984 45.297-3.992 62.281-18.445 18.438-48.453 18.445-66.891 0l-31.719-31.719-20.727 6.172c5.164 7.711 7.938 16.773 7.938 26.258 0 12.633-4.922 24.516-13.852 33.445-18.438 18.445-48.453 18.445-66.891 0l-29.289-29.289-149.289 44.469c-5.32 1.578-11.070 0.125-14.984-3.797l-38.43-38.43c-6.453-6.445-5.602-17.469 1.758-22.852l376.672-275.711c-84.93-95.758-166.742-191.633-224.5-260.133l-110.797 42.617c-5.57 2.141-11.875 0.805-16.094-3.414l-45.547-45.547c-5.891-5.898-5.891-15.453 0-21.344l227.727-227.727c5.813-5.82 15.531-5.82 21.352 0l45.539 45.539c4.219 4.219 5.563 10.531 3.414 16.102l-42.609 110.789c68.5 57.758 164.367 139.571 260.133 224.508l29.922-40.891c5.313-7.258 16.086-8.195 22.602-2.008 5.43 5.156 6.18 13.805 1.766 19.836l-31.633 43.219c50.078 44.695 99.531 89.789 144.399 132.281l142.227-477.462-19.617-19.609-195.477 267.063c-4.922 6.727-14.367 8.188-21.094 3.266-6.734-4.93-8.195-14.375-3.266-21.102l205.883-281.274c5.383-7.359 16.406-8.211 22.852-1.758l38.43 38.43c3.922 3.914 5.375 9.672 3.797 14.984zM562.548 885.102c6.594 6.594 17.602 6.594 24.195 0 6.672-6.672 6.672-17.523 0-24.195l-7.078-7.078-37.289 11.109zM437.297 919.258c6.664 6.672 17.523 6.672 24.195 0s6.672-17.523 0-24.195l-4.656-4.648-37.281 11.102zM217.75 904.672l19.617 19.609 477.462-142.219c-42.492-44.875-87.586-94.328-132.289-144.406zM225.407 365.781l91.914-35.352c-23.055-27.453-40.734-48.695-51.164-61.266l-68.688 68.688zM287.602 247.718c52.625 63.492 330.79 397.188 514.055 580.454 36.359 36.367 76.047 66.945 108.867 83.899 24.641 12.734 57.609 24.313 74.734 7.188s5.539-50.094-7.188-74.734c-16.953-32.82-47.539-72.5-83.906-108.867-183.25-183.25-516.954-461.422-580.446-514.055zM431.782 159.406l-27.93-27.93-68.688 68.688c12.563 10.422 33.813 28.102 61.266 51.156zM961.064 395.492c6.672 6.672 17.523 6.672 24.195 0s6.672-17.523 0-24.195l-17.742-17.742-11.109 37.281zM926.907 520.742c6.664 6.672 17.523 6.664 24.195 0 6.594-6.594 6.594-17.602 0-24.195l-20.172-20.172-11.109 37.289zM906.165 88.593l-128.82-128.82c-5.492-5.5-5.859-14.578-0.805-20.484 5.648-6.594 16.016-7.008 22.156-0.867l128.82 128.82c5.898 5.898 5.898 15.453 0 21.352-5.891 5.891-15.453 5.891-21.352 0zM863.103 131.656c5.898 5.891 5.898 15.453 0 21.344-5.891 5.898-15.453 5.898-21.344 0l-80.516-80.508c-5.492-5.5-5.859-14.578-0.805-20.484 5.648-6.594 16.016-7.008 22.156-0.867zM814.798 212.164c5.898 5.898 5.898 15.461 0 21.352-5.898 5.898-15.453 5.898-21.352 0l-56.359-56.359c-5.492-5.492-5.859-14.578-0.797-20.484 5.641-6.594 16.008-7.008 22.148-0.867zM154.594 853.469c-5.898 5.891-15.461 5.891-21.352 0l-128.82-128.828c-5.898-5.891-5.898-15.453 0-21.344 5.813-5.813 15.531-5.813 21.352 0l128.82 128.82c5.891 5.898 5.891 15.453 0 21.352zM219 789.055c-5.898 5.898-15.453 5.898-21.344 0l-80.516-80.516c-5.5-5.492-5.859-14.57-0.805-20.477 5.648-6.594 16.008-7.008 22.148-0.867l80.516 80.508c5.898 5.898 5.898 15.461 0 21.352zM221.805 663.039c5.82-5.813 15.531-5.813 21.352 0l56.359 56.359c5.891 5.898 5.891 15.453 0 21.352-5.898 5.891-15.453 5.891-21.352 0l-56.359-56.359c-5.891-5.898-5.891-15.453 0-21.352z" />
<glyph unicode="&#xe91b;" glyph-name="air-ambulance" d="M210.294 633.176c-3.007 0-6.037 0.897-8.676 2.765-6.794 4.794-8.404 14.191-3.603 20.985l3.39 4.794c32.25 46.471 85.324 74.279 141.89 74.279h511.618c8.316 0 15.059-6.735 15.059-15.059s-6.743-15.059-15.059-15.059h-511.618c-46.699 0-90.522-22.971-117.228-61.441l-3.463-4.897c-2.934-4.147-7.581-6.368-12.309-6.368zM453.118 385.691h-344.456c-32.757 0-60.551 24.515-63.279 55.824-1.471 18.515 5.066 36.221 17.934 48.691 10.051 10.265 23.816 16.574 38.478 17.485 8.449 0.382 15.456-5.779 15.971-14.088 0.522-8.309-5.787-15.456-14.088-15.971-7.221-0.456-14.015-3.574-19.125-8.794-6.669-6.456-9.904-15.412-9.154-24.824 1.375-15.765 15.993-28.206 33.265-28.206h344.456c35.272 0 67.993 20.515 83.36 52.25l60.088 124.044c6.279 12.824 18.463 21.721 32.61 23.853l198.206 45.824c8.074 1.882 16.184-3.176 18.059-11.294 1.875-8.103-3.176-16.176-11.279-18.059l-199.338-46.029c-5.522-0.882-9.279-3.588-11.184-7.485l-60.059-123.971c-20.368-42.074-63.728-69.25-110.463-69.25zM963.757 654.368c-8.316 0-15.059 6.735-15.059 15.059v150.235h-22.654l-33.397-92.412c-2.831-7.809-11.485-11.882-19.279-9.044-7.824 2.824-11.875 11.456-9.044 19.279l36.993 102.353c2.154 5.971 7.816 9.941 14.162 9.941h48.279c8.316 0 15.059-6.735 15.059-15.059v-165.294c0-8.324-6.743-15.059-15.059-15.059zM198.257 477.882h-95.382c-5.603 0-10.735 3.103-13.338 8.074-2.603 4.956-2.235 10.941 0.956 15.559l107.434 155.294c2.809 4.059 7.441 6.485 12.382 6.485h75.169c14.103 0 27.36-6.897 35.449-18.441 8.103-11.559 10.059-26.382 5.243-39.662l-18.412-50.618c-16.684-45.868-60.691-76.691-109.5-76.691zM131.603 508h66.654c36.191 0 68.824 22.853 81.191 56.868l18.412 50.618c1.493 4.103 0.912 8.5-1.596 12.074-2.5 3.574-6.434 5.618-10.787 5.618h-67.272zM312.015 610.338h0.147zM895.713 583.765c-36.375 0-69.015 24.279-79.375 59.044-2.353 7.368-3.588 15.515-3.588 23.912 0 26.059 12.397 50.838 33.169 66.294 8.029 6.059 17.316 10.662 26.904 13.309 0.5 0.206 1.022 0.382 1.559 0.529 6.647 1.882 13.824 2.838 21.331 2.838 41.132 0 75.588-29.397 81.934-69.897 0.75-3.691 1.169-8.162 1.169-13.074 0-45.735-37.279-82.956-83.103-82.956zM884.154 718.294c-0.669-0.279-1.36-0.5-2.074-0.676-6.382-1.574-12.647-4.588-18.096-8.691-13.25-9.868-21.118-25.618-21.118-42.206 0-5.294 0.757-10.353 2.25-15.044 6.669-22.368 27.441-37.794 50.596-37.794 29.213 0 52.985 23.706 52.985 52.838 0 2.912-0.228 5.456-0.691 7.779-4.147 26.382-26.096 45.074-52.294 45.074-4.118 0-8-0.426-11.559-1.279zM895.691 654.294c-3.912 0-7.676 1.662-10.537 4.515-1.507 1.368-2.559 3.015-3.316 4.824-0.75 1.809-1.051 3.765-1.051 5.868 0 1.971 0.301 3.926 1.051 5.735 0.757 1.794 1.963 3.456 3.316 4.809 1.353 1.515 3.007 2.559 4.816 3.324 5.574 2.25 12.353 0.897 16.419-3.324 2.86-2.706 4.515-6.618 4.515-10.544 0-2.103-0.449-4.059-1.206-5.868-0.75-1.809-1.809-3.456-3.309-4.824-1.36-1.5-3.015-2.559-4.824-3.309s-3.765-1.206-5.875-1.206zM505.647 705.882c-8.316 0-15.059 6.735-15.059 15.059v35.294c0 7.265-5.912 13.162-13.176 13.162h-83.154c-7.265 0-13.176-5.897-13.176-13.162v-35.294c0-8.324-6.743-15.059-15.059-15.059s-15.059 6.735-15.059 15.059v35.294c0 23.868 19.419 43.279 43.294 43.279h83.154c23.875 0 43.294-19.412 43.294-43.279v-35.294c0-8.324-6.743-15.059-15.059-15.059zM435.831 769.397c-8.316 0-15.059 6.735-15.059 15.059v145.441c0 8.324 6.743 15.059 15.059 15.059s15.059-6.735 15.059-15.059v-145.441c0-8.324-6.743-15.059-15.059-15.059zM745.184 870.382h-618.699c-8.316 0-15.059 6.735-15.059 15.059s6.743 15.059 15.059 15.059h618.699c8.316 0 15.059-6.735 15.059-15.059s-6.743-15.059-15.059-15.059zM163.86 289.353c-8.316 0-15.059 6.735-15.059 15.059v96.338c0 8.324 6.743 15.059 15.059 15.059s15.059-6.735 15.059-15.059v-96.338c0-8.324-6.743-15.059-15.059-15.059zM440.846 289.353c-8.316 0-15.059 6.735-15.059 15.059v96.338c0 8.324 6.743 15.059 15.059 15.059s15.059-6.735 15.059-15.059v-96.338c0-8.324-6.743-15.059-15.059-15.059zM440.846 486.221c-8.316 0-15.059 6.735-15.059 15.059v145.632c0 8.324 6.743 15.059 15.059 15.059s15.059-6.735 15.059-15.059v-145.632c0-8.324-6.743-15.059-15.059-15.059zM376.059 519.618c-5.206 0-10.265 2.691-13.059 7.529-4.154 7.206-1.691 16.412 5.515 20.574l126.132 72.824c7.199 4.176 16.412 1.691 20.574-5.515 4.154-7.206 1.691-16.412-5.515-20.574l-126.132-72.824c-2.368-1.368-4.963-2.015-7.515-2.015zM505.632 519.618c-2.551 0-5.14 0.647-7.515 2.015l-126.132 72.824c-7.206 4.162-9.669 13.368-5.515 20.574 4.162 7.191 13.338 9.691 20.574 5.515l126.132-72.824c7.206-4.162 9.669-13.368 5.515-20.574-2.794-4.824-7.853-7.529-13.059-7.529zM939.669-48.956c-8.316 0-15.059 6.735-15.059 15.059v277.691c0 8.324 6.743 15.059 15.059 15.059s15.059-6.735 15.059-15.059v-277.691c0-8.324-6.743-15.059-15.059-15.059zM84.176-48.956c-8.316 0-15.059 6.735-15.059 15.059v277.691c0 8.324 6.743 15.059 15.059 15.059s15.059-6.735 15.059-15.059v-277.691c0-8.324-6.743-15.059-15.059-15.059zM993.882 228.735h-963.765c-8.316 0-15.059 6.735-15.059 15.059v60.529c0 8.324 6.743 15.059 15.059 15.059h963.765c8.316 0 15.059-6.735 15.059-15.059v-60.529c0-8.324-6.743-15.059-15.059-15.059zM45.176 258.853h933.647v30.412h-933.647zM336.11-48.926h-145.316c-8.316 0-15.059 6.735-15.059 15.059v105.235c0 8.324 6.743 15.059 15.059 15.059h145.316c8.316 0 15.059-6.735 15.059-15.059v-105.235c0-8.324-6.743-15.059-15.059-15.059zM205.853-18.809h115.199v75.118h-115.199zM584.581-48.926h-145.316c-8.316 0-15.059 6.735-15.059 15.059v105.235c0 8.324 6.743 15.059 15.059 15.059h145.316c8.316 0 15.059-6.735 15.059-15.059v-105.235c0-8.324-6.743-15.059-15.059-15.059zM454.324-18.809h115.199v75.118h-115.199zM833.051-48.926h-145.316c-8.316 0-15.059 6.735-15.059 15.059v105.235c0 8.324 6.743 15.059 15.059 15.059h145.316c8.316 0 15.059-6.735 15.059-15.059v-105.235c0-8.324-6.743-15.059-15.059-15.059zM702.794-18.809h115.199v75.118h-115.199zM519.404 131.706c-8.316 0-15.059 6.735-15.059 15.059v89.368c0 8.324 6.743 15.059 15.059 15.059s15.059-6.735 15.059-15.059v-89.368c0-8.324-6.743-15.059-15.059-15.059zM564.081 176.382h-89.36c-8.316 0-15.059 6.735-15.059 15.059s6.743 15.059 15.059 15.059h89.36c8.316 0 15.059-6.735 15.059-15.059s-6.743-15.059-15.059-15.059zM484.816 289.353h-327.824c-26.743 0-52.471 11.279-70.596 30.956l-12.551 13.632c-5.632 6.118-5.235 15.647 0.882 21.279 6.125 5.662 15.647 5.235 21.279-0.868l12.551-13.632c12.426-13.5 30.081-21.25 48.434-21.25h327.824c9.228 0 17.816 4.132 23.559 11.353l10.713 13.456c5.184 6.515 14.654 7.574 21.162 2.397s7.581-14.647 2.397-21.162l-10.713-13.456c-11.493-14.426-28.669-22.706-47.118-22.706z" />
<glyph unicode="&#xe91c;" glyph-name="play-button" d="M73.143 960l877.714-512-877.714-512z" />
<glyph unicode="&#xe91d;" glyph-name="down-arrow" d="M512 256c-8.184 0-16.376 3.128-22.624 9.376l-320 320c-12.504 12.504-12.504 32.752 0 45.248s32.752 12.504 45.248 0l297.376-297.376 297.376 297.376c12.504 12.504 32.752 12.504 45.248 0s12.504-32.752 0-45.248l-320-320c-6.248-6.248-14.44-9.376-22.624-9.376z" />
<glyph unicode="&#xe91e;" glyph-name="next-1" d="M776.847 476.1l-473.63 472.32c-15.518 15.466-40.642 15.44-56.134-0.080-15.48-15.518-15.44-40.656 0.080-56.134l445.438-444.208-445.454-444.206c-15.518-15.48-15.558-40.602-0.080-56.122 7.766-7.78 17.94-11.67 28.114-11.67 10.148 0 20.282 3.864 28.034 11.59l473.632 472.308c7.474 7.436 11.668 17.556 11.668 28.1s-4.206 20.652-11.668 28.102z" />
<glyph unicode="&#xe91f;" glyph-name="next-2" d="M776.279 476.096l-472.843 472.843c-15.654 15.118-40.598 14.684-55.716-0.97-14.749-15.27-14.749-39.478 0-54.746l444.985-444.985-444.985-444.985c-15.384-15.386-15.384-40.33 0-55.716 15.388-15.384 40.33-15.384 55.716 0l472.843 472.843c15.384 15.388 15.384 40.33 0 55.716z" />
<glyph unicode="&#xe920;" glyph-name="checked-1" d="M746.667 405.333c-152.917 0-277.333 124.416-277.333 277.333s124.416 277.333 277.333 277.333 277.333-124.416 277.333-277.333-124.416-277.333-277.333-277.333zM746.667 917.333c-129.408 0-234.667-105.259-234.667-234.667s105.259-234.667 234.667-234.667 234.667 105.259 234.667 234.667-105.259 234.667-234.667 234.667zM704 576c-5.632 0-11.093 2.261-15.104 6.229l-85.333 85.333c-8.32 8.32-8.32 21.845 0 30.165s21.845 8.32 30.165 0l69.205-69.205 134.315 153.515c7.765 8.917 21.248 9.813 30.123 2.005 8.875-7.765 9.771-21.248 2.005-30.123l-149.333-170.667c-3.883-4.437-9.472-7.083-15.36-7.253-0.213 0-0.469 0-0.683 0zM746.667-64h-640c-58.795 0-106.667 47.872-106.667 106.667v810.667c0 58.795 47.872 106.667 106.667 106.667h298.667c11.776 0 21.333-9.557 21.333-21.333s-9.557-21.333-21.333-21.333h-298.667c-35.285 0-64-28.715-64-64v-810.667c0-35.285 28.715-64 64-64h640c35.285 0 64 28.715 64 64v256c0 11.776 9.557 21.333 21.333 21.333s21.333-9.557 21.333-21.333v-256c0-58.795-47.872-106.667-106.667-106.667zM149.333 64c-11.776 0-21.333 9.557-21.333 21.333v213.333c0 11.776 9.557 21.333 21.333 21.333h64c47.061 0 85.333-38.272 85.333-85.333s-38.272-85.333-85.333-85.333h-42.667v-64c0-11.776-9.557-21.333-21.333-21.333zM170.667 192h42.667c23.509 0 42.667 19.157 42.667 42.667s-19.157 42.667-42.667 42.667h-42.667zM448 64h-85.333c-11.776 0-21.333 9.557-21.333 21.333v213.333c0 11.776 9.557 21.333 21.333 21.333h85.333c35.285 0 64-28.715 64-64v-128c0-35.285-28.715-64-64-64zM384 106.667h64c11.776 0 21.333 9.557 21.333 21.333v128c0 11.776-9.557 21.333-21.333 21.333h-64zM576 64c-11.776 0-21.333 9.557-21.333 21.333v170.667c0 35.285 28.715 64 64 64h85.333c11.776 0 21.333-9.557 21.333-21.333s-9.557-21.333-21.333-21.333h-85.333c-11.776 0-21.333-9.557-21.333-21.333v-170.667c0-11.776-9.557-21.333-21.333-21.333zM704 149.333h-128c-11.776 0-21.333 9.557-21.333 21.333s9.557 21.333 21.333 21.333h128c11.776 0 21.333-9.557 21.333-21.333s-9.557-21.333-21.333-21.333z" />
<glyph unicode="&#xe921;" glyph-name="user" d="M874.039 810.039c-96.703 96.703-225.281 149.961-362.039 149.961-136.766 0-265.336-53.258-362.039-149.961s-149.961-225.273-149.961-362.039c0-136.758 53.258-265.336 149.961-362.039s225.273-149.961 362.039-149.961c136.758 0 265.336 53.258 362.039 149.961s149.961 225.281 149.961 362.039c0 136.766-53.258 265.336-149.961 362.039zM256.68 75.227c21.414 123.297 128.258 214.242 255.32 214.242 127.070 0 233.906-90.945 255.32-214.242-72.695-49.945-160.648-79.227-255.32-79.227s-182.625 29.281-255.32 79.227zM349.203 512.266c0 89.773 73.031 162.797 162.797 162.797s162.797-73.031 162.797-162.797c0-89.766-73.031-162.797-162.797-162.797s-162.797 73.031-162.797 162.797zM819.289 116.844c-16.148 57.398-48.219 109.477-93.172 150.156-27.578 24.961-58.969 44.656-92.719 58.539 61 39.789 101.406 108.625 101.406 186.727 0 122.852-99.953 222.797-222.805 222.797s-222.797-99.945-222.797-222.797c0-78.102 40.406-146.937 101.398-186.727-33.742-13.883-65.141-33.57-92.719-58.531-44.945-40.68-77.023-92.758-93.172-150.156-88.945 82.602-144.711 200.477-144.711 331.148 0 249.234 202.766 452 452 452s452-202.766 452-452c0-130.68-55.766-248.555-144.711-331.156z" />
<glyph unicode="&#xe922;" glyph-name="conversation" d="M1020.314 156.312l-59.474 173.086c28.668 58.604 43.818 123.78 43.92 189.358 0.176 114.026-43.94 221.84-124.224 303.581-80.3 81.756-187.304 127.778-301.305 129.584-118.21 1.868-229.322-43.096-312.857-126.628-80.548-80.546-125.224-186.732-126.638-300.205-79.388-59.772-126.246-152.962-126.092-252.5 0.074-46.58 10.558-92.882 30.424-134.752l-40.966-119.216c-7.042-20.494-1.898-42.746 13.426-58.070 10.784-10.786 25.002-16.528 39.624-16.528 6.152 0 12.376 1.016 18.446 3.102l119.218 40.966c41.87-19.866 88.172-30.35 134.752-30.424 0.168 0 0.328 0 0.496 0 101.020 0.004 194.92 48.070 254.474 129.404 61.974 1.632 123.292 16.634 178.726 43.752l173.088-59.476c7.212-2.478 14.608-3.686 21.918-3.686 17.376 0 34.272 6.824 47.090 19.644 18.208 18.21 24.32 44.652 15.952 69.008zM329.061 18.618c-0.13 0-0.268 0-0.398 0-41.228 0.062-82.17 10.226-118.392 29.39-7.448 3.938-16.192 4.62-24.156 1.884l-122.246-42.006 42.006 122.244c2.736 7.966 2.056 16.71-1.884 24.156-19.164 36.224-29.328 77.164-29.392 118.394-0.102 66.318 25.696 129.176 70.81 176.244 14.736-89.832 57.55-172.612 123.914-237.796 65.874-64.702 148.678-105.898 238.022-119.366-47.176-46.498-110.768-73.144-178.284-73.144zM961.258 130.404c-1.734-1.734-3.79-2.206-6.102-1.41l-185.296 63.672c-3.218 1.106-6.566 1.654-9.902 1.654-4.918 0-9.818-1.19-14.252-3.538-52.906-27.988-112.69-42.832-172.894-42.924-0.198 0-0.378 0-0.576 0-201.726 0-368.353 163.868-371.549 365.547-1.61 101.57 37.026 197.028 108.788 268.791s167.236 110.384 268.793 108.784c201.872-3.202 365.853-170.136 365.541-372.127-0.094-60.204-14.936-119.99-42.922-172.892-3.94-7.446-4.62-16.19-1.884-24.156l63.67-185.296c0.794-2.32 0.318-4.374-1.414-6.104zM753.785 680.975h-363.121c-16.832 0-30.476-13.646-30.476-30.476 0-16.832 13.646-30.476 30.476-30.476h363.121c16.832 0 30.476 13.646 30.476 30.476s-13.644 30.476-30.476 30.476zM753.785 555.633h-363.121c-16.832 0-30.476-13.646-30.476-30.476s13.646-30.476 30.476-30.476h363.121c16.832 0 30.476 13.646 30.476 30.476s-13.644 30.476-30.476 30.476zM614.009 430.295h-223.346c-16.832 0-30.476-13.646-30.476-30.476 0-16.832 13.646-30.476 30.476-30.476h223.344c16.832 0 30.476 13.646 30.476 30.476s-13.642 30.476-30.474 30.476z" />
</font>
</defs>
</svg>
